EBGaramond08-SC.sfdir

StartChar: percent
Encoding: 37 37 7
Width: 763
VWidth: 982
Flags: HW
HStem: -1 52<534.314 644.797> 219 53<533.555 649.348> 347 52<126.314 236.797> 567 53<125.555 241.348> 584 20G<583.5 604.5>
VStem: 41 57<428.509 539.721> 268 55<431.495 540.803> 449 57<80.5088 191.721> 676 55<83.4946 192.803>
LayerCount: 2
Fore
SplineSet
606 570 m 2xef80
 184 10 l 2
 172 -6 156 -18 139 -18 c 0
 126 -18 123 14 136 31 c 2
 530 551 l 10
 550 577 571 604 596 604 c 0
 613 604 617 584 606 570 c 2xef80
586 272 m 0
 659 272 731 227 731 154 c 0
 731 71 669 -1 586 -1 c 0
 508 -1 449 65 449 143 c 0
 449 216 513 272 586 272 c 0
506 135 m 0
 506 88 544 51 591 51 c 0
 640 51 676 95 676 144 c 0
 676 190 632 219 586 219 c 0
 541 219 506 180 506 135 c 0
178 620 m 0xf780
 251 620 323 575 323 502 c 0
 323 419 261 347 178 347 c 0
 100 347 41 413 41 491 c 0
 41 564 105 620 178 620 c 0xf780
98 483 m 0
 98 436 136 399 183 399 c 0
 232 399 268 443 268 492 c 0
 268 538 224 567 178 567 c 0
 133 567 98 528 98 483 c 0
EndSplineSet
Substitution2: "sups subtable" percent.sups
Substitution2: "sinf subtable" percent.sinf
Substitution2: "ordn subtable" percent.ordn
Substitution2: "subs subtable" percent.subs
EndChar
StartChar: hyphen
Encoding: 45 45 244
Width: 386
VWidth: 982
Flags: HW
HStem: 194 77<232.833 345.786>
VStem: 45 306<196.922 245.107>
LayerCount: 2
Fore
SplineSet
320 271 m 6
 334 272 351 266 351 243 c 12
 351 220 341 195 318 194 c 6
 99 176 l 6
 65 173 45 175 45 195 c 4
 45 214 56 249 82 252 c 6
 320 271 l 6
EndSplineSet
Substitution2: "sups subtable" hyphen.sups
Substitution2: "sinf subtable" hyphen.sinf
Substitution2: "ordn subtable" hyphen.ordn
Substitution2: "subs subtable" hyphen.subs
Substitution2: "'case' Case-Sensitive Forms lookup 5 subtable" hyphen.cap
EndChar

StartChar: slash
Encoding: 47 47 16
Width: 237
VWidth: 982
Flags: HW
HStem: 681 20G<317.5 338.5>
LayerCount: 2
Fore
SplineSet
342 667 m 2
 43 -18 l 2
 35 -36 24 -46 7 -46 c 8
 -12 -46 -5 -17 4 3 c 2
 282 648 l 2
 299 687 305 701 330 701 c 0
 347 701 349 683 342 667 c 2
EndSplineSet
Substitution2: "frac_slash subtable" fraction
Substitution2: "sups subtable" slash.sups
Substitution2: "sinf subtable" slash.sinf
Substitution2: "ordn subtable" slash.ordn
Substitution2: "subs subtable" slash.subs
EndChar
StartChar: one
Encoding: 49 49 18
Width: 276
VWidth: 982
Flags: HW
HStem: -2 46<16.002 85.6687 191.331 260.065> 377 46<21.7598 85.6687 190.145 254.28>
VStem: 97 83<53.0419 367.958>
LayerCount: 2
Fore
SplineSet
180 313 m 2
 180 108 l 2
 180 83 191 52 218 44 c 0
 245 36 261 28 261 18 c 0
 261 8 253 -2 227 -2 c 0
 205 -2 155 4 139 4 c 0
 119 4 72 -2 50 -2 c 0
 24 -2 15 8 15 18 c 0
 15 28 32 36 59 44 c 0
 86 52 97 83 97 108 c 2
 97 313 l 2
 97 338 86 369 59 377 c 0
 32 385 21 393 21 403 c 0
 21 413 29 423 55 423 c 0
 77 423 122 417 138 417 c 0
 158 417 198 423 220 423 c 0
 246 423 255 413 255 403 c 0
 255 393 243 385 216 377 c 0
 189 369 180 338 180 313 c 2
EndSplineSet
Substitution2: "one_variants subtable" one.01
Substitution2: "'tnum' Tabular Numbers lookup 31 subtable" one.taboldstyle
Substitution2: "'lnum' Lining Figures lookup 29 subtable" one.lnum
Substitution2: "Single Substitution lookup 28 subtable" one.ordn
Substitution2: "Single Substitution lookup 27 subtable" one.subs
Substitution2: "sups subtable" one.sups
Substitution2: "sinf subtable" one.sinf
Substitution2: "ordn subtable" one.ordn
Substitution2: "subs subtable" one.subs
EndChar
StartChar: five
Encoding: 53 53 22
Width: 328
VWidth: 982
Flags: HW
HStem: -169 79<21.1191 106.208> 344 74<172.036 287.615>
VStem: 39 98<244.5 302.5> 196 72<-0.535429 93.0185>
LayerCount: 2
Fore
SplineSet
218 418 m 2
 289 424 l 2
 302 425 305 413 305 405 c 0
 305 392 284 350 261 344 c 0
 237 338 175 339 161 332 c 8
 146 325 137 308 137 297 c 0
 137 282 161 257 204 218 c 0
 251 176 268 107 268 68 c 0
 268 -11 171 -99 103 -152 c 0
 86 -165 59 -169 49 -169 c 0
 34 -169 14 -152 14 -139 c 0
 14 -119 25 -96 50 -90 c 0
 58 -88 86 -87 125 -87 c 0
 143 -87 196 -42 196 11 c 0
 196 104 118 166 55 219 c 0
 46 227 39 239 39 250 c 0
 39 261 43 276 57 289 c 2
 150 377 l 2
 177 402 194 416 218 418 c 2
EndSplineSet
Substitution2: "'tnum' Tabular Numbers lookup 31 subtable" five.taboldstyle
Substitution2: "'lnum' Lining Figures lookup 29 subtable" five.lnum
Substitution2: "Single Substitution lookup 28 subtable" five.ordn
Substitution2: "Single Substitution lookup 27 subtable" five.subs
Substitution2: "sups subtable" five.sups
Substitution2: "sinf subtable" five.sinf
Substitution2: "ordn subtable" five.ordn
Substitution2: "subs subtable" five.subs
EndChar
StartChar: six
Encoding: 54 54 23
Width: 474
VWidth: 982
Flags: HW
HStem: -10 44<204.765 308.754> 321 37<182.499 272.7>
VStem: 42 100<114.492 294.193> 345 96<110.853 255.808>
LayerCount: 2
Fore
SplineSet
367 570 m 0
 381 570 387 564 387 552 c 0
 387 545 370 527 344 515 c 0
 288 489 202 429 177 353 c 0
 174 344 189 348 194 350 c 0
 209 355 232 358 250 358 c 0
 341 358 441 289 441 201 c 0
 441 97 354 -10 246 -10 c 0
 116 -10 42 95 42 230 c 0
 42 364 180 495 306 554 c 0
 329 565 351 570 367 570 c 0
142 198 m 0
 142 126 190 34 260 34 c 0
 330 34 345 122 345 192 c 0
 345 257 280 321 206 321 c 16
 155 321 142 251 142 198 c 0
EndSplineSet
Substitution2: "'tnum' Tabular Numbers lookup 31 subtable" six.taboldstyle
Substitution2: "'lnum' Lining Figures lookup 29 subtable" six.lnum
Substitution2: "Single Substitution lookup 28 subtable" six.ordn
Substitution2: "Single Substitution lookup 27 subtable" six.subs
Substitution2: "sups subtable" six.sups
Substitution2: "sinf subtable" six.sinf
Substitution2: "ordn subtable" six.ordn
Substitution2: "subs subtable" six.subs
EndChar

StartChar: semicolon
Encoding: 59 59 245
Width: 231
VWidth: 982
Flags: HW
HStem: 232 121<72.3128 162>
VStem: 54 123<247.437 335.066> 134 77<-69.9325 35>
LayerCount: 2
Fore
SplineSet
97 115 m 0xa0
 159 115 211 65 211 5 c 0
 211 -61 134 -174 75 -174 c 0
 66 -174 61 -169 61 -161 c 0
 61 -144 134 -99 134 -50 c 0
 134 -13 106 -2 80 13 c 0
 58 25 41 40 41 63 c 0
 41 94 68 115 97 115 c 0xa0
123 353 m 0
 155 353 177 323 177 291 c 0
 177 256 145 232 110 232 c 0
 79 232 54 257 54 288 c 0xc0
 54 325 86 353 123 353 c 0
EndSplineSet
Substitution2: "sups subtable" semicolon.sups
Substitution2: "sinf subtable" semicolon.sinf
Substitution2: "ordn subtable" semicolon.ordn
Substitution2: "subs subtable" semicolon.subs
EndChar
StartChar: question
Encoding: 63 63 31
Width: 266
VWidth: 982
Flags: HW
HStem: 0 117<55.9966 147.663>
VStem: 42 120<14.2754 102.66> 197 33<337.5 471.502>
LayerCount: 2
Fore
SplineSet
230 363 m 0
 230 312 218 296 200 289 c 0
 174 279 157 275 126 263 c 0
 118 260 107 203 88 203 c 0
 73 203 62 259 62 286 c 0
 62 307 66 337 79 342 c 0
 104 352 124 356 145 365 c 0
 180 380 197 401 197 435 c 0
 197 456 179 480 163 485 c 0
 141 491 118 497 89 508 c 0
 67 516 53 528 53 555 c 0
 53 598 59 627 71 627 c 0
 192 627 230 520 230 363 c 0
162 65 m 0
 162 29 139 0 101 0 c 0
 69 0 42 24 42 57 c 0
 42 91 69 117 105 117 c 0
 136 117 162 97 162 65 c 0
EndSplineSet
Substitution2: "sups subtable" question.sups
Substitution2: "sinf subtable" question.sinf
Substitution2: "ordn subtable" question.ordn
Substitution2: "subs subtable" question.subs
EndChar

StartChar: at
Encoding: 64 64 32
Width: 725
VWidth: 982
Flags: HW
HStem: -115 45<280.858 485.939> 58 39<304.875 394.518 469.5 580.354> 341 35<337.367 441.84> 478 45<273.891 494.718>
VStem: 48 52<101.416 314.517> 193 87<119.666 259.39> 457 48<129 283> 645 52<163.794 331.942>
LayerCount: 2
Fore
SplineSet
490 58 m 4
 449 58 446 100 436 100 c 4
 426 100 383 58 320 58 c 4
 254 58 193 102 193 172 c 4
 193 293 303 376 413 376 c 4
 433 376 466 367 478 363 c 4
 493 358 497 357 501 357 c 4
 511 357 516 376 526 376 c 4
 530 376 554 372 551 368 c 5
 542 344 532 304 529 288 c 6
 508 156 l 6
 507 147 505 138 505 129 c 4
 505 114 509 100 523 100 c 4
 593 100 645 153 645 236 c 4
 645 375 531 478 392 478 c 4
 234 478 100 376 100 207 c 4
 100 48 232 -70 391 -70 c 4
 456 -70 548 -40 598 2 c 4
 604 7 611 12 616 12 c 4
 625 12 630 8 630 -1 c 4
 630 -25 488 -115 380 -115 c 4
 202 -115 48 13 48 197 c 4
 48 411 221 523 412 523 c 4
 561 523 697 400 697 251 c 4
 697 134 597 58 490 58 c 4
391 341 m 4
 334 341 280 289 280 191 c 4
 280 119 318 97 356 97 c 4
 380 97 390 105 410 119 c 4
 422 127 431 137 437 168 c 6
 456 271 l 6
 457 275 457 279 457 283 c 4
 457 320 434 341 391 341 c 4
EndSplineSet
Substitution2: "at_alternates subtable" at.01
Substitution2: "sups subtable" at.sups
Substitution2: "sinf subtable" at.sinf
Substitution2: "ordn subtable" at.ordn
Substitution2: "subs subtable" at.subs
EndChar

StartChar: E
Encoding: 69 69 37
Width: 569
VWidth: 982
Flags: HW
HStem: -2 47<24.0383 102.943 238.001 469.333> 276 49<217.587 380.343> 545 46<217 439.496> 556 35<24.0204 94.0943>
VStem: 122 95<66.8442 275.966 325.021 535.239> 514 41<97.7344 155.746>
AnchorPoint: "top_accent" 306 670 basechar 0
AnchorPoint: "below_accent" 308 -80 basechar 0
AnchorPoint: "ogonek" 472 15 basechar 0
AnchorPoint: "cedilla" 323 15 basechar 0
LayerCount: 2
Fore
SplineSet
217 356 m 2xec
 217 332 226 325 240 325 c 2
 326 325 l 2
 358 325 369 336 387 353 c 0
 398 363 407 378 418 378 c 0
 427 378 429 370 429 358 c 0
 429 350 425 315 425 300 c 0
 425 285 426 254 426 243 c 0
 426 233 423 217 413 217 c 0
 400 217 387 245 381 255 c 0
 374 266 367 276 346 276 c 2
 241 276 l 2
 222 276 217 271 217 252 c 2
 217 140 l 2
 217 88 238 45 286 45 c 2
 395 45 l 2
 472 45 485 77 514 138 c 0
 519 149 532 157 541 157 c 0
 551 157 555 147 555 132 c 0
 555 104 525 30 517 17 c 0
 509 2 507 -2 490 -2 c 0
 453 -2 272 3 166 3 c 0
 119 3 60 -2 53 -2 c 0
 42 -1 20 5 20 15 c 0
 20 30 53 35 75 45 c 0
 109 60 122 92 122 129 c 2
 122 482 l 2
 122 539 97 540 40 556 c 0
 31 559 24 564 24 573 c 0
 24 585 38 591 59 591 c 2xdc
 346 591 l 2
 388 591 447 596 465 596 c 0
 481 596 489 591 491 582 c 0
 495 566 500 511 500 500 c 0
 500 488 496 474 484 474 c 0
 472 474 457 492 448 512 c 0
 440 529 415 545 367 545 c 2
 248 545 l 2
 221 545 217 537 217 524 c 2
 217 356 l 2xec
EndSplineSet
Substitution2: "c2sc subtable" E.sc
Substitution2: "sups subtable" E.sups
Substitution2: "sinf subtable" E.sinf
Substitution2: "ordn subtable" E.ordn
Substitution2: "subs subtable" E.subs
EndChar

StartChar: F
Encoding: 70 70 38
Width: 489
VWidth: 982
Flags: HW
HStem: -2 47<24.0383 102.943 236.057 315.136> 279 49<216.587 371.343> 545 46<217 431.496> 556 35<24.0204 94.0943>
VStem: 122 95<63.7073 278.985 328 535.239>
AnchorPoint: "top_accent" 287 670 basechar 0
AnchorPoint: "below_accent" 167 -80 basechar 0
AnchorPoint: "cedilla" 172 15 basechar 0
LayerCount: 2
Fore
SplineSet
53 -2 m 0xe8
 42 -1 20 5 20 15 c 0
 20 30 53 35 75 45 c 0
 109 60 122 92 122 129 c 2
 122 482 l 2
 122 539 97 540 40 556 c 0
 31 559 24 564 24 573 c 0
 24 585 38 591 59 591 c 2xd8
 338 591 l 2
 380 591 439 596 457 596 c 0
 473 596 481 591 483 582 c 0
 487 566 492 511 492 500 c 0
 492 488 488 474 476 474 c 0
 464 474 449 492 440 512 c 0
 432 529 407 545 359 545 c 2
 248 545 l 2
 221 545 217 537 217 524 c 2
 216 359 l 2
 216 335 225 328 239 328 c 2
 317 328 l 2
 349 328 360 339 378 356 c 0
 389 366 398 381 409 381 c 0
 418 381 420 373 420 361 c 0
 420 353 416 318 416 303 c 0
 416 288 417 257 417 246 c 0
 417 236 414 220 404 220 c 0
 391 220 378 248 372 258 c 0
 365 269 358 279 337 279 c 2
 240 279 l 2
 221 279 216 274 216 255 c 2
 217 130 l 2
 217 92 230 60 264 45 c 0
 286 35 319 30 319 15 c 0
 319 5 298 -1 287 -2 c 0
 280 -2 214 4 166 4 c 0
 119 4 60 -2 53 -2 c 0xe8
EndSplineSet
Substitution2: "c2sc subtable" F.sc
Substitution2: "sups subtable" F.sups
Substitution2: "sinf subtable" F.sinf
Substitution2: "ordn subtable" F.ordn
Substitution2: "subs subtable" F.subs
EndChar

StartChar: P
Encoding: 80 80 48
Width: 535
VWidth: 982
Flags: HW
HStem: -2 47<24.0383 102.943 233.057 312.136> 556 35<24.0204 93.6009> 557 44<217.593 334.988>
VStem: 122 92<63.6768 535.239> 390 100<373.538 503.957>
AnchorPoint: "top_accent" 277 670 basechar 0
AnchorPoint: "below_accent" 168 -80 basechar 0
AnchorPoint: "cedilla" 178 15 basechar 0
LayerCount: 2
Fore
SplineSet
214 523 m 2xb8
 214 129 l 2
 214 92 227 60 261 45 c 0
 283 35 316 30 316 15 c 0
 316 5 295 -1 284 -2 c 0
 277 -2 211 4 163 4 c 0
 120 4 60 -2 53 -2 c 0
 42 -1 20 5 20 15 c 0
 20 30 53 35 75 45 c 0
 109 60 122 92 122 129 c 2
 122 482 l 2
 122 539 97 540 40 556 c 0
 31 559 24 564 24 573 c 0
 24 585 38 590 59 591 c 0xd8
 147 598 188 601 277 601 c 0
 378 601 490 557 490 456 c 0
 490 374 438 325 368 287 c 0
 331 267 315 267 304 267 c 0
 293 267 286 272 286 284 c 0
 286 294 301 296 329 320 c 0
 368 353 390 389 390 441 c 0
 390 508 331 557 264 557 c 0
 236 557 214 542 214 523 c 2xb8
EndSplineSet
Substitution2: "c2sc subtable" P.sc
Substitution2: "sups subtable" P.sups
Substitution2: "sinf subtable" P.sinf
Substitution2: "ordn subtable" P.ordn
Substitution2: "subs subtable" P.subs
EndChar
StartChar: Q
Encoding: 81 81 49
Width: 754
VWidth: 982
Flags: HW
HStem: -320 70<951.89 1281.02> 560 45<265.997 428.765>
VStem: 46 112<182.744 393.544> 555 112<190.094 405.055> 1449 70<-161.215 -88.1427>
AnchorPoint: "top_accent" 371 670 basechar 0
LayerCount: 2
Fore
SplineSet
378 605 m 4
 537 605 667 470 667 311 c 4
 667 207 626 121 548 64 c 4
 495 25 480 19 480 3 c 4
 480 -29 614 -106 663 -126 c 4
 856 -206 961 -250 1148 -250 c 4
 1324 -250 1407 -238 1449 -116 c 4
 1455 -98 1471 -83 1487 -83 c 4
 1510 -83 1519 -101 1519 -118 c 4
 1519 -246 1269 -320 1126 -320 c 4
 857 -320 772 -268 598 -195 c 4
 517 -160 456 -120 388 -85 c 4
 333 -58 276 -26 228 1 c 4
 123 62 46 152 46 281 c 4
 46 461 200 605 378 605 c 4
158 325 m 4
 158 181 221 21 365 21 c 4
 411 21 461 55 495 89 c 4
 543 137 555 201 555 276 c 4
 555 421 479 560 343 560 c 4
 229 560 158 439 158 325 c 4
EndSplineSet
Substitution2: "Single Substitution lookup 59 subtable" Q.low
Substitution2: "Single Substitution lookup 58 subtable" Q.short
Substitution2: "Single Substitution lookup 57 subtable" Q.long
Substitution2: "Single Substitution lookup 56 subtable" Q.long
Substitution2: "c2sc subtable" Q.sc
Substitution2: "sups subtable" Q.sups
Substitution2: "sinf subtable" Q.sinf
Substitution2: "ordn subtable" Q.ordn
Substitution2: "subs subtable" Q.subs
EndChar

StartChar: U
Encoding: 85 85 53
Width: 617
VWidth: 982
Flags: HW
HStem: -6 50<248.099 419.105> 556 35<0.0203552 60.1516 209.234 262.983 433.023 489.859 576.362 631.977>
VStem: 86 95<124.215 533.535> 503 57<144.609 541.992>
AnchorPoint: "top_accent" 342 670 basechar 0
AnchorPoint: "below_accent" 320 -80 basechar 0
AnchorPoint: "ogonek" 402 15 basechar 0
AnchorPoint: "cedilla" 336 15 basechar 0
LayerCount: 2
Fore
SplineSet
560 492 m 2
 560 250 l 2
 560 95 458 -6 311 -6 c 0
 132 -6 86 103 86 256 c 2
 86 482 l 2
 86 530 79 535 16 556 c 0
 7 559 0 564 0 573 c 0
 0 585 20 591 35 591 c 0
 74 591 78 586 114 586 c 0
 149 586 194 591 228 591 c 0
 243 591 263 585 263 573 c 0
 263 564 257 559 248 556 c 0
 205 542 181 524 181 484 c 2
 181 284 l 2
 181 124 210 44 332 44 c 0
 469 44 503 148 503 304 c 2
 503 490 l 2
 503 542 492 541 450 555 c 0
 441 558 433 564 433 573 c 0
 433 585 453 591 468 591 c 0
 483 591 518 586 533 586 c 0
 548 586 582 591 597 591 c 0
 612 591 632 585 632 573 c 0
 632 564 624 559 615 556 c 0
 569 541 560 531 560 492 c 2
EndSplineSet
Substitution2: "c2sc subtable" U.sc
Substitution2: "Single Substitution lookup 37 subtable" U.LAT
Substitution2: "sups subtable" U.sups
Substitution2: "sinf subtable" U.sinf
Substitution2: "ordn subtable" U.ordn
Substitution2: "subs subtable" U.subs
Substitution2: "loclLAT subtable" U.LAT
EndChar

StartChar: V
Encoding: 86 86 54
Width: 557
VWidth: 982
Flags: HW
HStem: 556 35<0.0203552 52.3352 217.966 272.983 377.023 426.521 533.254 582.977>
AnchorPoint: "cedilla" 299 15 basechar 0
AnchorPoint: "below_accent" 296 -80 basechar 0
AnchorPoint: "top_accent" 308 670 basechar 0
LayerCount: 2
Fore
SplineSet
394 555 m 4
 385 558 377 564 377 573 c 4
 377 585 397 591 412 591 c 4
 427 591 469 586 484 586 c 4
 499 586 533 591 548 591 c 4
 563 591 583 585 583 573 c 4
 583 564 575 559 566 556 c 4
 520 541 502 508 486 463 c 6
 362 121 l 6
 345 75 309 -15 296 -15 c 4
 288 -15 273 13 258 54 c 6
 106 458 l 6
 89 504 79 535 16 556 c 4
 7 559 0 564 0 573 c 4
 0 585 20 591 35 591 c 4
 74 591 78 586 114 586 c 4
 149 586 204 591 238 591 c 4
 253 591 273 585 273 573 c 4
 273 564 267 559 258 556 c 4
 215 542 179 524 195 480 c 6
 293 218 l 6
 309 174 316 169 323 169 c 4
 330 169 341 172 360 229 c 6
 434 453 l 6
 457 522 436 541 394 555 c 4
EndSplineSet
Substitution2: "c2sc subtable" V.sc
Substitution2: "sups subtable" V.sups
Substitution2: "sinf subtable" V.sinf
Substitution2: "ordn subtable" V.ordn
Substitution2: "subs subtable" V.subs
EndChar

StartChar: W
Encoding: 87 87 55
Width: 737
VWidth: 982
Flags: HW
HStem: 556 35<0.0203552 52.3352 177.736 206.772 219.02 256.491 416.023 451.059 533.254 582.993 599.007 633.065 716.254 765.993>
AnchorPoint: "top_accent" 407 670 basechar 0
AnchorPoint: "below_accent" 390 -80 basechar 0
AnchorPoint: "cedilla" 293 15 basechar 0
LayerCount: 2
Fore
SplineSet
433 555 m 0
 424 558 416 564 416 573 c 0
 416 585 426 591 441 591 c 0
 456 591 479 587 494 587 c 0
 509 587 543 591 558 591 c 0
 573 591 583 585 583 573 c 0
 583 564 575 559 566 556 c 0
 520 541 502 508 486 463 c 2
 436 325 l 1
 476 218 l 2
 492 174 499 169 506 169 c 0
 513 169 524 172 543 229 c 2
 617 453 l 2
 640 522 641 547 616 555 c 0
 607 558 599 564 599 573 c 0
 599 585 608 591 623 591 c 0
 638 591 664 587 679 587 c 0
 694 587 726 591 741 591 c 0
 756 591 766 585 766 573 c 0
 766 564 758 559 749 556 c 0
 703 541 685 508 669 463 c 2
 545 121 l 2
 528 75 492 -15 479 -15 c 0
 471 -15 456 13 441 54 c 2
 388 194 l 1
 362 121 l 2
 345 75 309 -15 296 -15 c 0
 288 -15 273 13 258 54 c 2
 106 458 l 2
 89 504 79 535 16 556 c 0
 7 559 0 564 0 573 c 0
 0 585 20 591 35 591 c 0
 50 591 94 587 109 587 c 0
 124 587 157 591 172 591 c 0
 187 591 207 588 207 576 c 0
 207 567 201 559 192 556 c 0
 167 548 179 524 195 480 c 2
 293 218 l 2
 309 174 316 169 323 169 c 0
 330 169 341 172 360 229 c 2
 367 250 l 1
 289 458 l 2
 272 504 261 550 235 556 c 0
 226 558 219 564 219 573 c 0
 219 585 230 591 241 591 c 0
 256 591 290 587 305 587 c 0
 320 587 348 591 363 591 c 0
 378 591 398 585 398 573 c 0
 398 564 392 559 383 556 c 0
 356 547 362 524 378 480 c 2
 412 388 l 1
 434 453 l 2
 457 522 461 546 433 555 c 0
EndSplineSet
Substitution2: "c2sc subtable" W.sc
Substitution2: "sups subtable" W.sups
Substitution2: "sinf subtable" W.sinf
Substitution2: "ordn subtable" W.ordn
Substitution2: "subs subtable" W.subs
EndChar

StartChar: underscore
Encoding: 95 95 63
Width: 590
VWidth: 982
Flags: HW
HStem: -117 65<10.3058 580.307>
LayerCount: 2
Fore
SplineSet
69 -117 m 2
 45 -117 0 -116 0 -101 c 0
 0 -72 26 -52 83 -52 c 2
 521 -52 l 2
 549 -52 590 -50 590 -70 c 0
 590 -99 563 -117 506 -117 c 2
 69 -117 l 2
EndSplineSet
Substitution2: "sups subtable" underscore.sups
Substitution2: "sinf subtable" underscore.sinf
Substitution2: "ordn subtable" underscore.ordn
Substitution2: "subs subtable" underscore.subs
EndChar
StartChar: a
Encoding: 97 97 65
Width: 532
Flags: W
HStem: -2 54<1.86938 82.7324 163.25 214.235 301.099 352.118> 158 44<210.75 302.453>
AnchorPoint: "cedilla" 118 15 basechar 0
AnchorPoint: "ogonek" 359 15 basechar 0
AnchorPoint: "below_accent" 264 -80 basechar 0
AnchorPoint: "top_accent" 291 630 basechar 0
LayerCount: 2
Fore
SplineSet
489 48 m 0
 511 39 519 30 519 15 c 1
 519 5 498 -1 487 -2 c 0
 480 -2 455 4 407 4 c 0
 360 4 335 -2 328 -2 c 0
 317 -1 295 5 295 15 c 0
 295 30 306 37 331 46 c 0
 339 49 355 67 352 80 c 2
 336 133 l 2
 333 148 323 158 307 158 c 2
 210 158 l 2
 194 158 186.66 150.258 182 136 c 2
 167 90 l 2
 159 66 163 52 179 47 c 0
 204 39 222 30 222 15 c 0
 222 5 201 -1 190 -2 c 0
 183 -2 156 4 108 4 c 0
 61 4 32 -2 25 -2 c 0
 14 -1 -8 5 -8 15 c 0
 -8 30 24 45 47 52 c 0
 74 61 86 73 94 92 c 2
 225 396 l 2
 228.827 404.871 231.299 415.016 237.5 420.5 c 0
 266.895 446.5 293 475 304 475 c 0
 310 475 324 463 332 436 c 2
 434 100 l 2
 438 87 459 61 489 48 c 0
207 214 m 2
 202 203 206 202 221 202 c 2
 298 202 l 2
 312 202 309 205 304 218 c 2
 271 327 l 2
 267 338 260.121 337.949 255 326 c 2
 207 214 l 2
EndSplineSet
Substitution2: "Smallcaps subtable" a.sc
Substitution2: "sups subtable" a.sups
Substitution2: "sinf subtable" a.sinf
Substitution2: "ordn subtable" a.ordn
Substitution2: "subs subtable" a.subs
EndChar

StartChar: h
Encoding: 104 104 72
Width: 644
VWidth: 982
Flags: HW
AnchorPoint: "top_accent" 322 630 basechar 0
AnchorPoint: "below_accent" 322 -80 basechar 0
AnchorPoint: "cedilla" 173 15 basechar 0
LayerCount: 2
Fore
SplineSet
202 184 m 2
 202 129 l 2
 202 92 204 57 222 49 c 0
 244 39 277 30 277 15 c 0
 277 5 256 -1 245 -2 c 0
 238 -2 204 4 156 4 c 0
 109 4 70 -2 63 -2 c 0
 52 -1 30 5 30 15 c 0
 30 30 63 39 85 49 c 0
 119 64 116 92 116 129 c 2
 116 344 l 2
 116 401 107 398 50 414 c 0
 41 417 34 426 34 435 c 0
 34 447 54 453 69 453 c 0
 108 453 124 448 160 448 c 0
 195 448 205 453 239 453 c 0
 254 453 274 447 274 435 c 0
 274 426 268 417 259 414 c 0
 208 400 202 401 202 344 c 2
 202 266 l 2
 202 256 205 248 215 248 c 2
 418 248 l 2
 433 249 437 256 437 266 c 2
 437 344 l 2
 437 401 431 400 383 414 c 0
 374 417 367 426 367 435 c 0
 367 447 387 453 402 453 c 0
 441 453 445 448 481 448 c 0
 516 448 537 453 571 453 c 0
 586 453 606 447 606 435 c 0
 606 426 600 417 591 414 c 0
 534 398 523 401 523 344 c 2
 523 129 l 2
 523 92 521 64 555 49 c 0
 577 39 610 30 610 15 c 0
 610 5 589 -1 578 -2 c 0
 571 -2 525 4 477 4 c 0
 430 4 403 -2 396 -2 c 0
 385 -1 363 5 363 15 c 0
 363 30 396 39 418 49 c 0
 443 61 437 92 437 129 c 2
 437 187 l 2
 437 197 434 203 424 203 c 6
 216 203 l 2
 206 203 202 194 202 184 c 2
EndSplineSet
Substitution2: "Smallcaps subtable" h.sc
Substitution2: "sups subtable" h.sups
Substitution2: "sinf subtable" h.sinf
Substitution2: "ordn subtable" h.ordn
Substitution2: "subs subtable" h.subs
EndChar
StartChar: m
Encoding: 109 109 77
Width: 721
Flags: W
HStem: -2 51<29.3302 109.734 201.471 269.235 464.184 516.38 620.96 688.434> 414 39<34.1293 112.948 608.945 679.93>
CounterMasks: 1 38
AnchorPoint: "cedilla" 400 15 basechar 0
AnchorPoint: "ogonek" 422 15 basechar 0
AnchorPoint: "below_accent" 358 -80 basechar 0
AnchorPoint: "top_accent" 374 630 basechar 0
LayerCount: 2
Fore
SplineSet
502 46 m 16
 523.893 53.1136 515 97 515 108 c 1
 502 268 l 2
 500.087 285.898 493.862 285.971 489 275 c 2
 414 127 l 2
 398.617 96.6789 372 19 350 19 c 0
 326.36 19 313.625 51.2022 299 83 c 2
 205 287 l 2
 199.912 297.868 195.514 294.959 194 267 c 2
 187 138 l 2
 185.053 102.053 200 58 222 49 c 0
 245.34 39.4516 277 30 277 15 c 0
 277 5 256 -1 245 -2 c 0
 238 -2 192 4 144 4 c 0
 97 4 63 -2 56 -2 c 0
 45 -1 23 5 23 15 c 0
 23 30 50.013 41.5311 73 49 c 0
 88.2169 53.9443 123.613 70.2598 128 107 c 2
 152 308 l 2
 159.668 378.585 140.553 384.792 118 393 c 0
 96.3871 400.866 75.6785 405.657 50 414 c 0
 40.4894 417.09 34 426 34 435 c 0
 34 447 54 453 69 453 c 0
 108 453 168 448 204 448 c 0
 228 448 235.362 439.714 241 428 c 2
 351 196 l 2
 367.708 160.761 386.184 173.966 404 212 c 2
 503 423 l 2
 511.908 442.017 531 448 551 448 c 0
 567 448 611 453 645 453 c 0
 660 453 680 447 680 435 c 0
 680 426 674 417 665 414 c 0
 608 398 584.704 392.879 588 348 c 2
 601 171 l 2
 608.242 72.3984 620.517 59.5795 650 50 c 0
 674.49 42.0428 693 30 693 15 c 0
 693 5 672 -1 661 -2 c 0
 654 -2 632 4 584 4 c 0
 537 4 498 -2 491 -2 c 0
 480 -1 458 5 458 15 c 0
 458 30 482.036 39.5137 502 46 c 16
EndSplineSet
Substitution2: "Smallcaps subtable" m.sc
Substitution2: "sups subtable" m.sups
Substitution2: "sinf subtable" m.sinf
Substitution2: "ordn subtable" m.ordn
Substitution2: "subs subtable" m.subs
EndChar
StartChar: p
Encoding: 112 112 80
Width: 460
Flags: W
HStem: -2 51<38.3252 109.177 209.528 280.675> 175 38<252.15 297.906> 404 56<136.915 299.914> 414 39<34.1293 103.475>
VStem: 116 86<55.2266 400.424> 326 99<252.999 376.829>
AnchorPoint: "cedilla" 173 15 basechar 0
AnchorPoint: "ogonek" 195 15 basechar 0
AnchorPoint: "below_accent" 160 -80 basechar 0
AnchorPoint: "top_accent" 160 630 basechar 0
LayerCount: 2
Fore
SplineSet
202 344 m 2xec
 202 129 l 2
 202 92 200 64 234 49 c 0
 256 39 289 30 289 15 c 0
 289 5 268 -1 257 -2 c 0
 250 -2 204 4 156 4 c 0
 109 4 70 -2 63 -2 c 0
 52 -1 30 5 30 15 c 0
 30 30 63 39 85 49 c 0
 119 64 116 92 116 129 c 2
 116 344 l 2
 116 401 107 398 50 414 c 0
 41 417 34 426 34 435 c 0
 34 447 54 453 69 453 c 4xdc
 108 453 150 460 203 460 c 0
 305 460 425 422 425 322 c 0
 425 243.099 342 175 280 175 c 0
 265 175 252 181 252 191 c 0
 252 207 260.375 210.153 271 213 c 0
 297.08 219.988 326 256 326 315 c 0
 326 380 282.933 404 236 404 c 0
 211 404 202 404 202 344 c 2xec
EndSplineSet
Substitution2: "Smallcaps subtable" p.sc
Substitution2: "sups subtable" p.sups
Substitution2: "sinf subtable" p.sinf
Substitution2: "ordn subtable" p.ordn
Substitution2: "subs subtable" p.subs
EndChar

StartChar: u
Encoding: 117 117 85
Width: 620
Flags: W
HStem: -12 55<262.003 397.453> 414 39<34.1293 103.475 215.572 284.93 386.129 432.202 525.871 581.942>
VStem: 116 86<105.874 399.85> 458 50<105.795 390.884>
AnchorPoint: "cedilla" 360 15 basechar 0
AnchorPoint: "ogonek" 382 15 basechar 0
AnchorPoint: "below_accent" 325 -80 basechar 0
AnchorPoint: "top_accent" 321 630 basechar 0
LayerCount: 2
Fore
SplineSet
116 344 m 2
 116 401 107 398 50 414 c 0
 41 417 34 426 34 435 c 0
 34 447 54 453 69 453 c 0
 108 453 124 448 160 448 c 0
 195 448 216 453 250 453 c 0
 265 453 285 447 285 435 c 0
 285 426 279 417 270 414 c 0
 213 398 202 401 202 344 c 10
 202 179 l 26
 202 106.163 258 43 330 43 c 0
 414 43 458 96 458 175 c 2
 458 338 l 26
 458 372.729 430 405 407 411 c 0
 393 415 386 426 386 435 c 0
 386 447 406 453 421 453 c 0
 439 453 458 448 479 448 c 0
 499 448 527 453 547 453 c 0
 562 453 582 447 582 435 c 0
 582 426 578 417 565 414 c 0
 517 401 508 377.814 508 342 c 26
 508 204 l 2
 508 85 426 -12 308 -12 c 0
 182 -12 116 93.4131 116 207 c 26
 116 344 l 2
EndSplineSet
Substitution2: "Smallcaps subtable" u.sc
Substitution2: "Single Substitution lookup 35 subtable" u.LAT
Substitution2: "sups subtable" u.sups
Substitution2: "sinf subtable" u.sinf
Substitution2: "ordn subtable" u.ordn
Substitution2: "subs subtable" u.subs
Substitution2: "loclLAT subtable" u.LAT
EndChar
StartChar: v
Encoding: 118 118 86
Width: 549
Flags: W
HStem: -10 21G<254.5 285.5> 414 39<5.12926 58.4138 199.222 255.871 343.129 387.108 487.43 543.942>
AnchorPoint: "below_accent" 185 -82 basechar 0
AnchorPoint: "top_accent" 185 628 basechar 0
LayerCount: 2
Fore
SplineSet
416 289 m 2
 335 113 l 2
 306.585 51.2214 304 -10 267 -10 c 0
 242 -10 222.474 52.9512 197 116 c 2
 117 314 l 2
 105.387 342.743 78 398 21 414 c 0
 12 417 5 426 5 435 c 0
 5 447 25 453 40 453 c 0
 66 453 104 448 131 448 c 0
 158 448 201 453 221 453 c 0
 236 453 256 447 256 435 c 0
 256 426 247.489 414.882 233 411 c 0
 194.363 400.647 190.14 394.306 204 360 c 2
 275 184 l 2
 282.35 167.569 291.752 157.197 305 186 c 2
 385 360 l 2
 397.536 387.255 387.183 404.788 364 411 c 0
 349.511 414.882 343 426 343 435 c 0
 343 447 363 453 378 453 c 0
 396 453 415 448 436 448 c 0
 456 448 489 453 509 453 c 0
 524 453 544 447 544 435 c 0
 544 426 539.557 417.364 527 414 c 0
 478.704 401.059 453.608 370.766 416 289 c 2
EndSplineSet
Substitution2: "Smallcaps subtable" v.sc
Substitution2: "Single Substitution lookup 37 subtable" v.LATmedi
Substitution2: "sups subtable" v.sups
Substitution2: "sinf subtable" v.sinf
Substitution2: "ordn subtable" v.ordn
Substitution2: "subs subtable" v.subs
Substitution2: "loclLAT subtable" v.LAT
EndChar
StartChar: x
Encoding: 120 120 88
Width: 532
Flags: W
HStem: -2 50<16.4584 113.703 194.935 240.973 309.987 338.184 453.099 528.66> 411 42<14.3543 82.3956 219.525 264.646 327.354 369.753 452.012 527.772>
AnchorPoint: "below_accent" 272 -80 basechar 0
AnchorPoint: "top_accent" 289 630 basechar 0
LayerCount: 2
Fore
SplineSet
147 321 m 2
 110.557 368.665 99.268 390.958 30 414 c 0
 20.5112 417.156 14 426 14 435 c 0
 14 447 34 453 49 453 c 0
 75 453 113 448 140 448 c 0
 167 448 210 453 230 453 c 0
 245 453 265 447 265 435 c 0
 265 426 256.003 414.989 242 411 c 0
 213.148 402.781 213.12 390.102 235 360 c 2
 294.152 278.195 l 1
 361 360 l 2
 378.085 380.908 371 405 348 411 c 0
 334 415 327 426 327 435 c 0
 327 447 347 453 362 453 c 0
 380 453 399 448 420 448 c 0
 440 448 473 453 493 453 c 0
 508 453 528 447 528 435 c 0
 528 426 524 417 511 414 c 0
 463 401 451.541 400.06 397 331 c 2
 323.438 237.692 l 1
 423 100 l 2
 445.282 69.2184 471 58 501 45 c 0
 523 36 531 30 531 15 c 0
 531 5 510 -1 499 -2 c 0
 492 -2 467 4 419 4 c 0
 392 4 351 -2 340 -2 c 0
 327 -2 307 5 307 15 c 0
 307 30 318 37 343 46 c 0
 351 49 341.933 65.7005 331 80 c 2
 266.116 164.984 l 1
 207 90 l 2
 192.745 71.9501 186 52 202 47 c 0
 227 39 245 30 245 15 c 0
 245 5 224 -1 213 -2 c 0
 206 -2 179 4 131 4 c 0
 84 4 50 -2 43 -2 c 0
 32 -1 10 5 10 15 c 0
 10 30 44 41 67 48 c 0
 94 57 129.332 76.5232 142 92 c 2
 234.973 205.775 l 1
 147 321 l 2
EndSplineSet
Substitution2: "Smallcaps subtable" x.sc
Substitution2: "sups subtable" x.sups
Substitution2: "sinf subtable" x.sinf
Substitution2: "ordn subtable" x.ordn
Substitution2: "subs subtable" x.subs
EndChar

StartChar: y
Encoding: 121 121 89
Width: 549
Flags: W
HStem: -2 51<126.325 200.909 294.004 368.675> 414 39<1.12926 57.9443 193.726 251.871 305.129 345.703 436.451 505.942>
VStem: 204 86<54.498 228.056>
AnchorPoint: "cedilla" 263 15 basechar 0
AnchorPoint: "ogonek" 285 15 basechar 0
AnchorPoint: "below_accent" 250 -80 basechar 0
AnchorPoint: "top_accent" 257 630 basechar 0
LayerCount: 2
Fore
SplineSet
375 331 m 2
 314 248 l 2
 289.72 214.962 290 205 290 178 c 2
 290 113 l 2
 290 75 288 64 322 49 c 0
 344 39 377 30 377 15 c 0
 377 5 356 -1 345 -2 c 0
 338 -2 292 4 244 4 c 0
 197 4 158 -2 151 -2 c 0
 140 -1 118 5 118 15 c 0
 118 30 151 39 173 49 c 0
 207 64 204 73 204 111 c 2
 204 161 l 2
 204 184 190.737 215.597 182 229 c 2
 122 321 l 2
 104.525 347.807 86.2679 390.958 17 414 c 0
 7.51124 417.156 1 426 1 435 c 0
 1 447 21 453 36 453 c 0
 62 453 100 448 127 448 c 0
 154 448 197 453 217 453 c 0
 232 453 252 447 252 435 c 0
 252 426 243 415 229 411 c 0
 190 401 181 392 200 360 c 2
 244 288 l 2
 262.235 258.126 268.415 262.946 299 305 c 2
 339 360 l 2
 354.06 382.41 349 405 326 411 c 0
 312 415 305 426 305 435 c 0
 305 447 325 453 340 453 c 0
 358 453 377 448 398 448 c 0
 418 448 451 453 471 453 c 0
 486 453 506 447 506 435 c 0
 506 426 502 417 489 414 c 0
 441 401 431 401 375 331 c 2
EndSplineSet
Substitution2: "Smallcaps subtable" y.sc
Substitution2: "sups subtable" y.sups
Substitution2: "sinf subtable" y.sinf
Substitution2: "ordn subtable" y.ordn
Substitution2: "subs subtable" y.subs
EndChar
StartChar: z
Encoding: 122 122 90
Width: 488
Flags: W
HStem: -4 69<181.791 377.765> 3 62<181.791 377.765> 397 52<112.141 290.635>
AnchorPoint: "cedilla" 269 15 basechar 0
AnchorPoint: "ogonek" 291 15 basechar 0
AnchorPoint: "below_accent" 256 -80 basechar 0
AnchorPoint: "top_accent" 256 630 basechar 0
LayerCount: 2
Fore
SplineSet
342 65 m 2xa0
 369 65 395 106 405 130 c 0
 409 141 420 152 430 152 c 0
 442 152 452 140 452 115 c 0
 452 103 423 -4 408 -4 c 0xa0
 355 -4 200 3 149 3 c 0x60
 119 3 83 -4 66 -4 c 0
 50 -4 32 19 32 32 c 0
 32 46 56.9688 68.0371 82 103 c 2
 284 366 l 2
 299.836 386.618 299 397 271 397 c 2
 154 397 l 2
 115 397 106.062 364.353 87 335 c 0
 79.9197 324.097 74 316 62 316 c 0
 47 316 39 326 39 346 c 0
 39 355 53.1906 418.258 64 443 c 0
 70.8059 458.578 78 468 90 468 c 0
 104 468 125.001 448.665 173 449 c 2
 336 449 l 2
 360 449.147 403 457 419 457 c 0
 437 457 444 453 444 440 c 0
 444 425 439.779 420.667 433 412 c 2
 196 109 l 2
 179.978 87.2676 169 65.126 187 65 c 2
 342 65 l 2xa0
EndSplineSet
Substitution2: "Smallcaps subtable" z.sc
Substitution2: "sups subtable" z.sups
Substitution2: "sinf subtable" z.sinf
Substitution2: "ordn subtable" z.ordn
Substitution2: "subs subtable" z.subs
EndChar

StartChar: plusminus
Encoding: 177 177 104
Width: 424
VWidth: 982
Flags: HW
HStem: 0 66<46.7198 417.294> 278 65<46.7198 200 265 418.069>
VStem: 200 65<122.45 277 343 498.173>
LayerCount: 2
Fore
SplineSet
95 0 m 2
 74 0 42 5 42 30 c 0
 42 48 63 66 95 66 c 2
 380 66 l 2
 405 66 422 53 422 38 c 0
 422 23 409 1 379 1 c 2
 95 0 l 2
200 277 m 1
 95 277 l 2
 74 277 42 282 42 307 c 0
 42 325 63 343 95 343 c 2
 200 343 l 1
 200 448 l 2
 200 484 217 501 232 501 c 0
 247 501 265 491 265 459 c 2
 265 343 l 1
 380 343 l 2
 405 343 422 330 422 315 c 0
 422 300 409 278 379 278 c 2
 265 278 l 1
 265 161 l 2
 265 142 258 121 233 121 c 0
 208 121 200 137 200 159 c 2
 200 277 l 1
EndSplineSet
EndChar
StartChar: Oslash
Encoding: 216 216 135
Width: 670
VWidth: 982
Flags: HW
HStem: -12 46<280.922 440.915> 552 46<258.314 417.145>
VStem: 34 112<201.702 409.475> 535 112<193.054 403.445>
AnchorPoint: "top_accent" 346 670 basechar 0
AnchorPoint: "below_accent" 308 -80 basechar 0
AnchorPoint: "ogonek" 394 15 basechar 0
AnchorPoint: "cedilla" 130 15 basechar 0
LayerCount: 2
Fore
SplineSet
546 524 m 1
 582 560 l 2
 611 589 622 598 636 598 c 0
 647 598 647 593 647 583 c 0
 647 573 641 563 634 556 c 2
 573 496 l 1
 618 444 647 377 647 310 c 0
 647 139 521 -12 350 -12 c 0
 265 -12 190 16 134 65 c 1
 87 18 l 2
 73 4 59 -12 47 -12 c 0
 38 -12 34 -8 34 1 c 0
 34 11 39 27 53 40 c 2
 106 93 l 1
 60 145 34 214 34 295 c 0
 34 484 176 598 374 598 c 0
 435 598 497 569 546 524 c 1
182 167 m 1
 485 464 l 1
 451 516 401 552 336 552 c 0
 226 552 146 440 146 330 c 0
 146 275 158 217 182 167 c 1
202 131 m 1
 239 74 294 34 364 34 c 0
 483 34 535 161 535 280 c 0
 535 331 524 383 504 428 c 1
 202 131 l 1
EndSplineSet
Substitution2: "c2sc subtable" Oslash.sc
EndChar
StartChar: germandbls
Encoding: 223 223 142
Width: 552
VWidth: 982
Flags: HW
HStem: -8 45<339.028 444.561> -2 46<16.002 85.6687 184.791 235.376> 636 54<252.256 374.815>
VStem: 97 83<53.0816 362 424.715 521.184> 280 72<311.5 395.529> 405 79<525.447 607.822> 465 66<65.3148 170>
LayerCount: 2
Fore
SplineSet
299 636 m 4xbc
 201 636 180 513 180 425 c 6
 180 108 l 6
 180 72 186 49 203 44 c 4
 226 37 236 28 236 18 c 4
 236 8 228 -2 202 -2 c 4
 180 -2 155 4 139 4 c 4
 119 4 72 -2 50 -2 c 4
 24 -2 15 8 15 18 c 4
 15 28 32 36 59 44 c 4
 86 52 97 83 97 108 c 6
 98 362 l 5
 50 362 l 6
 40 363 23 365 23 375 c 4
 23 389 56 418 84 428 c 4
 95 432 97 438 97 449 c 4
 97 508 186 690 337 690 c 4
 402 690 484 652 484 590 c 4x7c
 484 554 470 534 450 510 c 6
 376 421 l 6
 365 408 352 393 352 376 c 4
 352 358 365 344 378 332 c 6
 483 240 l 6
 518 210 531 189 531 151 c 4
 531 57 468 -8 380 -8 c 4
 352 -8 324 -4 314 0 c 4
 299 6 294 7 289 20 c 4
 284 33 272 68 272 83 c 4
 272 100 273 115 283 115 c 4
 293 115 313 106 327 75 c 4
 340 48 371 37 404 37 c 4
 432 37 465 74 465 100 c 4xba
 465 132 427 162 418 170 c 6
 354 226 l 6
 318 258 280 293 280 330 c 4
 280 374 305 403 337 438 c 6
 380 492 l 6
 400 517 405 537 405 568 c 4
 405 612 345 636 299 636 c 4xbc
EndSplineSet
Substitution2: "Smallcaps subtable" germandbls.sc
AlternateSubs2: "germandbls_variants subtable" germandbls germandbls.alt
EndChar
StartChar: oslash
Encoding: 248 248 167
Width: 487
VWidth: 982
Flags: HW
HStem: -8 47<200.313 315.537> 388 42<174.865 289.146>
VStem: 22 100<145.113 313.192> 365 99<118.648 283.581>
AnchorPoint: "top_accent" 242 596 basechar 0
LayerCount: 2
Fore
SplineSet
383 381 m 1
 411 409 l 2
 423 421 437 430 452 430 c 0
 462 430 464 423 464 410 c 0
 464 400 452 388 439 375 c 2
 414 351 l 1
 445 314 464 266 464 213 c 0
 464 85 362 -8 234 -8 c 0
 181 -8 136 12 100 44 c 1
 68 13 l 2
 50 -4 45 -8 35 -8 c 0
 25 -8 22 7 22 18 c 0
 22 28 28 36 37 44 c 2
 70 77 l 1
 39 119 22 172 22 228 c 0
 22 344 134 430 239 430 c 0
 294 430 344 412 383 381 c 1
140 144 m 1
 326 326 l 1
 303 363 271 388 232 388 c 0
 160 388 122 309 122 237 c 0
 122 206 128 173 140 144 c 1
161 104 m 1
 186 66 220 39 260 39 c 0
 330 39 365 116 365 186 c 0
 365 219 359 254 347 285 c 1
 161 104 l 1
EndSplineSet
Substitution2: "Smallcaps subtable" oslash.sc
EndChar

StartChar: dotlessi
Encoding: 305 305 175
Width: 276
VWidth: 982
Flags: HW
HStem: -2 51<38.3252 109.177 209.528 280.675> 414 39<34.1293 103.475 215.572 284.93>
VStem: 116 86<55.2266 399.85>
AnchorPoint: "cedilla" 173 15 basechar 0
AnchorPoint: "ogonek" 195 15 basechar 0
AnchorPoint: "below_accent" 160 -80 basechar 0
AnchorPoint: "top_accent" 160 630 basechar 0
LayerCount: 2
Fore
SplineSet
250 453 m 0
 265 453 285 447 285 435 c 0
 285 426 279 417 270 414 c 0
 213 398 202 401 202 344 c 2
 202 129 l 2
 202 92 200 64 234 49 c 0
 256 39 289 30 289 15 c 0
 289 5 268 -1 257 -2 c 0
 250 -2 204 4 156 4 c 0
 109 4 70 -2 63 -2 c 0
 52 -1 30 5 30 15 c 0
 30 30 63 39 85 49 c 0
 119 64 116 92 116 129 c 2
 116 344 l 2
 116 401 107 398 50 414 c 0
 41 417 34 426 34 435 c 0
 34 447 54 453 69 453 c 0
 108 453 124 448 160 448 c 0
 195 448 216 453 250 453 c 0
EndSplineSet
Substitution2: "Smallcaps subtable" dotlessi.sc
EndChar
StartChar: lslash
Encoding: 322 322 756
Width: 276
VWidth: 982
Flags: HW
HStem: -2 46<16.002 85.6687 191.331 260.065> 661 20G<163 174>
VStem: 97 83<53.0419 326 421 603.762>
LayerCount: 2
Fore
SplineSet
43 296 m 2
 18 282 7 289 7 300 c 0
 7 318 17 330 60 354 c 2
 97 375 l 1
 97 567 l 2
 97 584 82 604 58 613 c 0
 47 617 35 625 35 636 c 0
 35 647 50 655 64 657 c 0
 104 664 158 681 168 681 c 0
 180 681 180 673 180 654 c 2
 180 421 l 1
 229 449 l 2
 249 460 271 452 271 444 c 0
 271 429 252 412 228 399 c 2
 180 372 l 1
 180 108 l 2
 180 83 191 52 218 44 c 0
 245 36 261 28 261 18 c 0
 261 8 253 -2 227 -2 c 0
 205 -2 155 4 139 4 c 0
 119 4 72 -2 50 -2 c 0
 24 -2 15 8 15 18 c 0
 15 28 32 36 59 44 c 0
 86 52 97 83 97 108 c 2
 97 326 l 1
 43 296 l 2
EndSplineSet
Substitution2: "Smallcaps subtable" lslash.sc
EndChar

StartChar: OE
Encoding: 338 338 214
Width: 924
VWidth: 982
Flags: HW
HStem: -12 46<283.311 439.714> 3 42<594.216 824.333> 276 49<572.322 735.343> 545 46<572 794.496> 552 46<258.314 439.99>
VStem: 34 112<206.288 409.475> 477 95<68.3233 275.966 325 500.699> 869 41<97.7344 155.746>
LayerCount: 2
Fore
SplineSet
460 496 m 0xaf
 427.979 529.98 387 552 336 552 c 0
 226 552 146 440 146 330 c 0
 146 191 225 34 364 34 c 0
 395 34 423.201 44.1289 444 58 c 0
 464.799 71.8711 477 98 477 129 c 18
 477 455 l 2
 477 475 470.287 485.083 460 496 c 0xaf
681 325 m 2
 713 325 724 336 742 353 c 0
 753 363 762 378 773 378 c 0
 782 378 784 370 784 358 c 0
 784 350 780 315 780 300 c 0
 780 285 781 254 781 243 c 0
 781 233 778 217 768 217 c 0
 755 217 742 245 736 255 c 0
 729 266 722 276 701 276 c 2
 596 276 l 2
 577 276 572 271 572 252 c 2
 572 140 l 2
 572 88 593 45 641 45 c 2
 750 45 l 2
 827 45 840 77 869 138 c 0
 874 149 887 157 896 157 c 0
 906 157 910 147 910 132 c 0
 910 104 880 30 872 17 c 0
 864 2 862 -2 845 -2 c 0
 808 -2 627 3 521 3 c 0x77
 469 3 450 -12 350 -12 c 0
 171 -12 34 113 34 295 c 0
 34 484 176 598 374 598 c 0xaf
 404.357 598 433.224 591 465 591 c 2
 701 591 l 2
 743 591 802 596 820 596 c 0
 836 596 844 591 846 582 c 0
 850 566 855 511 855 500 c 0
 855 488 851 474 839 474 c 0
 827 474 812 492 803 512 c 0
 795 529 770 545 722 545 c 2
 603 545 l 2x37
 576 545 572 537 572 524 c 2
 572 356 l 2
 572 332 577 325 586 325 c 10
 681 325 l 2
EndSplineSet
Substitution2: "c2sc subtable" OE.sc
EndChar
StartChar: oe
Encoding: 339 339 215
Width: 710
VWidth: 982
Flags: W
HStem: -10 44<222.65 353.222> 4 57<471.407 613.046> 205 51<468.749 573.377> 406 43<468.015 594.279> 424 46<205.948 336.851>
VStem: 39 102<135.961 318.177> 382 86<63.7126 205 256 383.921> 628 47<73.077 137.62>
AnchorPoint: "top_accent" 428 596 basechar 0
LayerCount: 2
Fore
SplineSet
372 373 m 0xaf
 344.332 403.406 309 424 266 424 c 0
 185 424 141 335 141 254 c 0
 141 152 187 34 289 34 c 0
 323 34 350.204 48.8221 371 72 c 0
 384.357 86.8862 382 102 382 129 c 2
 382 344 l 2
 382 362 379.403 364.864 372 373 c 0xaf
426 449 m 0x37
 461 449 574 453 616 453 c 0
 632 453 631 454 637 434 c 0
 640 425 643 395 643 385 c 0
 643 374 639 354 626 354 c 0
 613 354 602 364 593 388 c 0
 590 396 577 406 562 406 c 2
 492 406 l 2
 470 406 468 401 468 382 c 2
 468 296 l 2
 468 276 469 256 484 256 c 2
 534 256 l 2
 578 256 578 296 598 296 c 0
 608 296 610 275 610 229 c 0
 610 184 610 161 596 161 c 0
 577 161 578 205 532 205 c 2
 486 205 l 2
 473 205 468 208 468 172 c 2
 468 104 l 2
 468 81 478 61 503 61 c 2
 587 61 l 2
 607 61 618 92 628 116 c 0
 632 127 643 138 653 138 c 0
 665 138 675 126 675 101 c 0
 675 68 648 -2 631 -2 c 0
 564 -2 493 4 422 4 c 0x77
 374 4 336 -10 256 -10 c 0
 134 -10 39 91 39 213 c 0
 39 353 149 470 289 470 c 0xaf
 356 470 390 449 426 449 c 0x37
EndSplineSet
Substitution2: "Smallcaps subtable" oe.sc
Ligature2: "LATliga subtable" o e
LCarets2: 1 0 
EndChar

StartChar: tbar
Encoding: 359 359 762
Width: 532
VWidth: 982
Flags: HW
HStem: -8 68<174.072 257.049> 222 48<20.5533 277.66> 358 59<161.026 296.625>
VStem: 78 83<70.1548 354.699>
LayerCount: 2
Fore
SplineSet
52 222 m 2
 38 222 16 223 16 234 c 0
 16 252 37 270 69 270 c 2
 240 270 l 2
 265 270 282 268 282 260 c 0
 282 245 269 222 239 222 c 2
 52 222 l 2
EndSplineSet
Refer: 84 116 N 1 0 0 1 0 0 2
Substitution2: "Smallcaps subtable" tbar.sc
EndChar

StartChar: uni01E5
Encoding: 485 485 764
Width: 502
VWidth: 982
Flags: W
HStem: -10 47<216.242 339.816> 79 48<243.472 497.66> 177 39<269.129 341.051 444.464 488.915> 420 50<220.393 371.618>
VStem: 39 102<126.132 315.581> 351 86<50.125 163.255>
LayerCount: 2
Fore
SplineSet
277 79 m 2
 263 79 241 80 241 91 c 0
 241 109 251 127 283 127 c 2
 460 127 l 2
 485 127 502 125 502 117 c 0
 502 102 489 79 459 79 c 2
 277 79 l 2
EndSplineSet
Refer: 71 103 N 1 0 0 1 0 0 2
EndChar

StartChar: uni0302
Encoding: 770 770 267
Width: 0
Flags: W
HStem: 490 201
VStem: 30 217<494 518>
AnchorPoint: "top_accent" 138 596 mark 0
LayerCount: 2
Fore
SplineSet
129 586 m 0
 106 554 82 527 69 512 c 0
 61 503 47 490 39 490 c 0
 30 490 30 494 30 503 c 0
 30 518 98 640 118 673 c 0
 123 682 130 691 138 691 c 0
 146 691 153 682 158 673 c 0
 178 640 247 518 247 503 c 0
 247 494 247 490 238 490 c 0
 230 490 216 503 208 512 c 0
 195 527 169 556 147 586 c 0
 141 594 135 594 129 586 c 0
EndSplineSet
Substitution2: "Smallcaps subtable" uni0302.sc
Substitution2: "Single Substitution lookup 10 subtable" uni0302.stack
Substitution2: "'case' Case-Sensitive Forms lookup 5 subtable" uni0302.cap
EndChar

StartChar: uni0304
Encoding: 772 772 269
Width: 0
Flags: W
HStem: 535 61<64.875 294.982>
VStem: 60 240<536.883 595.744>
AnchorPoint: "top_accent" 178 596 mark 0
LayerCount: 2
Fore
SplineSet
84 596 m 2
 287 596 l 2
 293 596 300 590 300 584 c 0
 300 562 290 535 269 535 c 2
 74 535 l 2
 67 535 60 541 60 547 c 0
 60 556 65 596 84 596 c 2
EndSplineSet
Substitution2: "Smallcaps subtable" uni0304.sc
Substitution2: "'case' Case-Sensitive Forms lookup 5 subtable" uni0304.cap
EndChar

StartChar: uni0307
Encoding: 775 775 252
Width: 0
VWidth: 982
Flags: W
HStem: 535 110<41.8467 128.153>
VStem: 30 110<546.104 633.537>
AnchorPoint: "top_accent" 85 596 mark 0
LayerCount: 2
Fore
SplineSet
85 645 m 0
 115 645 140 621 140 591 c 0
 140 560 116 535 85 535 c 0
 54 535 30 560 30 591 c 0
 30 621 55 645 85 645 c 0
EndSplineSet
Substitution2: "Smallcaps subtable" uni0307.sc
Substitution2: "'case' Case-Sensitive Forms lookup 5 subtable" uni0307.cap
EndChar
StartChar: uni0308
Encoding: 776 776 272
Width: 0
Flags: W
HStem: 519 106<24.6089 109.391 195.609 280.391>
VStem: 14 106<529.609 614.391> 185 106<529.609 614.391>
AnchorPoint: "top_stack" 148 474 mark 0
AnchorPoint: "acutestack" 152 570 basemark 0
AnchorPoint: "gravestack" 143 570 basemark 0
AnchorPoint: "top_stack" 148 636 basemark 0
AnchorPoint: "top_accent" 152 596 mark 0
LayerCount: 2
Fore
SplineSet
238 625 m 0
 267 625 291 601 291 572 c 0
 291 543 267 519 238 519 c 0
 209 519 185 543 185 572 c 0
 185 601 209 625 238 625 c 0
67 625 m 0
 96 625 120 601 120 572 c 0
 120 543 96 519 67 519 c 0
 38 519 14 543 14 572 c 0
 14 601 38 625 67 625 c 0
EndSplineSet
Substitution2: "Smallcaps subtable" uni0308.sc
Substitution2: "Single Substitution lookup 14 subtable" uni0308.grkstack
Substitution2: "'case' Case-Sensitive Forms lookup 5 subtable" uni0308.cap
EndChar

StartChar: uni030A
Encoding: 778 778 274
Width: 0
Flags: W
HStem: 525 30<87.1871 139.803> 660 32<82.2969 137.158>
VStem: 28 46<561.905 657.579> 150 46<557.795 653.19>
AnchorPoint: "top_accent" 114 596 mark 0
LayerCount: 2
Fore
SplineSet
115 692 m 0
 159 692 196 658 196 614 c 0
 196 562 153 525 109 525 c 0
 65 525 28 564 28 608 c 0
 28 652 71 692 115 692 c 0
74 613 m 0
 74 585 88 555 116 555 c 0
 140 555 150 583 150 607 c 0
 150 634 133 660 106 660 c 0
 84 660 74 635 74 613 c 0
EndSplineSet
Substitution2: "Smallcaps subtable" uni030A.sc
Substitution2: "'case' Case-Sensitive Forms lookup 5 subtable" uni030A.cap
EndChar
StartChar: Theta
Encoding: 920 920 874
Width: 773
Flags: HW
LayerCount: 2
Fore
SplineSet
520 393 m 0
 531 408 539 416 546 416 c 0
 551 416 561 409 557 400 c 0
 537 356 525 317 519 269 c 0
 518 258 516 246 504 246 c 0
 497 246 492 258 489 272 c 0
 485 288 467 301 447 301 c 2
 324 301 l 2
 294 301 269 300 261 286 c 0
 255 275 240 248 225 248 c 0
 220 248 218 254 218 261 c 0
 218 267 220 275 223 281 c 0
 241 319 254 356 262 398 c 0
 265 412 271 415 276 415 c 0
 281 415 286 408 289 396 c 0
 293 382 304 371 320 371 c 2
 469 371 l 2
 491 371 511 381 520 393 c 0
380 625 m 0
 232 625 147 490 147 350 c 0
 147 179 252 25 400 25 c 0
 550 25 626 134 626 305 c 0
 626 495 540 625 380 625 c 0
50 320 m 0
 50 500 168 659 387 664 c 1
 395 664 l 2
 569 664 723 532 723 335 c 0
 723 155 606 -14 387 -14 c 0
 210 -14 50 130 50 320 c 0
EndSplineSet
Substitution2: "c2sc subtable" Theta.sc
EndChar
StartChar: Nu
Encoding: 925 925 879
Width: 770
Flags: HW
LayerCount: 2
Fore
SplineSet
616 650 m 2
 664 650 670 653 731 653 c 0
 748 653 760 650 760 642 c 0
 760 633 750 626 727 622 c 0
 677 613 665 601 664 568 c 0
 663 544 662 63 662 8 c 0
 662 -13 651 -17 641 -17 c 0
 629 -17 592 2 560 46 c 0
 542 71 227 456 204 484 c 0
 194 496 188 500 183 500 c 0
 176 500 174 487 174 479 c 0
 172 380 169 227 169 104 c 0
 169 68 183 33 233 24 c 0
 256 20 266 15 266 6 c 0
 266 -2 254 -5 237 -5 c 0
 183 -5 180 0 143 0 c 0
 107 0 106 -5 52 -5 c 0
 35 -5 23 -2 23 6 c 0
 23 15 33 19 56 25 c 0
 94 35 110 66 114 107 c 0
 122 182 132 342 132 507 c 0
 132 578 92 601 33 620 c 0
 27 622 2 632 2 644 c 0
 2 656 18 658 25 658 c 0
 103 656 107 653 179 653 c 0
 191 653 196 645 203 636 c 0
 222 609 564 180 584 156 c 0
 589 150 601 136 609 136 c 0
 614 136 618 142 619 157 c 0
 620 189 621 365 621 477 c 2
 621 564 l 1
 620 590 585 615 563 619 c 0
 540 623 530 630 530 639 c 0
 530 647 542 650 559 650 c 2
 616 650 l 2
EndSplineSet
Substitution2: "c2sc subtable" Nu.sc
EndChar

StartChar: Xi
Encoding: 926 926 880
Width: 640
Flags: HW
LayerCount: 2
Fore
SplineSet
218 308 m 2
 186 308 178 294 167 270 c 0
 164 263 155 246 147 246 c 0
 141 246 139 253 139 262 c 0
 139 267 140 273 141 278 c 0
 147 302 159 382 161 400 c 0
 163 419 168 423 173 423 c 0
 178 423 184 416 186 404 c 0
 188 389 209 373 223 373 c 2
 424 373 l 2
 437 373 452 387 460 399 c 0
 467 409 471 415 478 415 c 0
 483 415 488 410 486 400 c 0
 478 363 468 310 468 275 c 2
 468 270 l 2
 468 259 465 246 458 246 c 0
 453 246 444 259 442 269 c 0
 438 292 430 308 404 308 c 2
 218 308 l 2
155 63 m 2
 472 63 l 2
 525 63 558 85 575 121 c 0
 578 129 590 150 603 150 c 0
 609 150 610 145 610 139 c 2
 610 129 l 2
 610 125 579 54 575 12 c 0
 574 3 571 -8 561 -8 c 2
 561 -8 542 0 452 0 c 2
 129 0 l 2
 79 0 44 -8 44 -8 c 2
 36 -8 29 0 29 7 c 0
 29 9 29 11 30 12 c 0
 48 46 61 81 71 128 c 0
 74 143 79 150 86 150 c 0
 94 150 96 139 97 131 c 0
 104 78 90 63 155 63 c 2
181 589 m 2
 126 589 114 580 90 552 c 0
 83 544 69 527 59 527 c 0
 54 527 51 530 51 536 c 0
 51 540 52 545 55 550 c 0
 73 588 84 616 96 657 c 0
 100 669 110 675 115 675 c 0
 120 675 126 669 131 664 c 0
 142 653 173 650 200 650 c 2
 492 650 l 2
 521 650 553 655 565 664 c 0
 570 668 575 672 582 672 c 0
 586 672 590 667 590 661 c 0
 590 659 590 657 589 655 c 0
 574 620 563 588 558 552 c 0
 556 541 553 526 543 526 c 0
 533 526 529 541 528 551 c 0
 525 576 508 589 479 589 c 2
 181 589 l 2
EndSplineSet
Substitution2: "c2sc subtable" Xi.sc
EndChar

StartChar: Pi
Encoding: 928 928 882
Width: 804
Flags: HW
LayerCount: 2
Fore
SplineSet
604 99 m 2
 605 591 l 2
 605 598 603 610 594 610 c 2
 213 610 l 2
 203 610 200 595 200 587 c 2
 200 99 l 2
 200 57 228 33 278 24 c 0
 301 20 311 15 311 6 c 0
 311 -2 299 -5 282 -5 c 0
 228 -5 211 0 166 0 c 0
 116 0 92 -5 38 -5 c 0
 21 -5 9 -2 9 6 c 0
 9 15 19 20 42 24 c 0
 92 33 120 51 120 98 c 2
 120 550 l 2
 120 597 103 613 53 622 c 0
 30 626 20 633 20 642 c 0
 20 650 32 653 49 653 c 0
 103 653 120 650 166 650 c 2
 650 650 l 2
 693 650 705 653 759 653 c 0
 776 653 788 650 788 642 c 0
 788 633 778 626 755 622 c 0
 705 613 684 597 684 550 c 2
 684 98 l 2
 684 51 713 33 763 24 c 0
 786 20 796 15 796 6 c 0
 796 -2 784 -5 767 -5 c 0
 713 -5 696 0 650 0 c 0
 601 0 578 -5 524 -5 c 0
 507 -5 495 -2 495 6 c 0
 495 15 505 20 528 24 c 0
 578 33 604 57 604 99 c 2
EndSplineSet
Substitution2: "c2sc subtable" Pi.sc
EndChar

StartChar: Rho
Encoding: 929 929 883
Width: 552
Flags: HW
LayerCount: 2
Fore
SplineSet
441 458 m 0
 441 580 371 630 274 630 c 0
 236 630 210 618 210 588 c 2
 210 111 l 2
 210 63 227 33 277 24 c 0
 300 20 310 15 310 6 c 0
 310 -2 298 -5 281 -5 c 0
 227 -5 221 2 183 2 c 0
 132 2 107 -5 53 -5 c 0
 36 -5 24 -2 24 6 c 0
 24 15 34 20 57 24 c 0
 107 33 130 51 130 100 c 2
 130 522 l 2
 130 582 119 613 69 622 c 0
 46 626 36 633 36 642 c 0
 36 650 48 653 65 653 c 0
 119 653 122 652 163 652 c 0
 203 652 246 658 274 658 c 0
 423 658 531 590 531 482 c 0
 531 359 456 254 303 254 c 0
 274 254 258 265 258 273 c 0
 258 278 267 284 274 284 c 0
 280 284 293 279 320 279 c 0
 400 279 441 340 441 458 c 0
EndSplineSet
Substitution2: "c2sc subtable" Rho.sc
EndChar
StartChar: Chi
Encoding: 935 935 888
Width: 707
Flags: HW
LayerCount: 2
Fore
SplineSet
553 650 m 0
 592 650 640 656 667 656 c 0
 684 656 696 653 696 645 c 0
 696 636 686 631 663 625 c 0
 625 615 577 562 533 510 c 2
 418 374 l 2
 407 361 400 352 400 344 c 0
 400 341 402 338 404 334 c 2
 559 111 l 2
 589 67 628 36 666 26 c 0
 689 20 699 15 699 6 c 0
 699 -2 687 -5 670 -5 c 0
 642 -5 574 1 527 1 c 0
 486 1 448 0 424 0 c 0
 407 0 395 3 395 11 c 0
 395 20 414 27 428 31 c 0
 448 37 472 53 472 78 c 0
 472 88 469 99 460 111 c 2
 356 262 l 2
 346 276 341 276 334 267 c 2
 199 93 l 2
 193 85 190 77 190 70 c 0
 190 51 208 36 235 30 c 0
 258 24 268 19 268 10 c 0
 268 2 256 -1 239 -1 c 0
 221 -1 186 1 150 1 c 0
 105 1 57 -5 24 -5 c 0
 7 -5 -5 -2 -5 6 c 0
 -5 15 6 21 28 28 c 0
 62 38 129 72 171 124 c 2
 296 280 l 2
 307 295 314 308 314 317 c 0
 314 320 314 323 312 325 c 2
 167 529 l 2
 117 599 85 612 51 622 c 0
 29 629 18 635 18 644 c 0
 18 652 30 655 47 655 c 0
 80 655 140 650 190 650 c 0
 230 650 271 652 289 652 c 0
 306 652 318 649 318 641 c 0
 318 632 308 628 285 621 c 0
 252 611 234 606 234 590 c 0
 234 578 244 560 267 528 c 2
 358 400 l 2
 365 390 370 385 374 385 c 0
 378 385 382 389 388 397 c 2
 495 538 l 2
 511 558 521 576 521 589 c 0
 521 604 508 614 476 620 c 0
 462 623 443 631 443 640 c 0
 443 648 455 651 472 651 c 0
 496 651 523 650 553 650 c 0
EndSplineSet
Substitution2: "c2sc subtable" Chi.sc
EndChar

StartChar: beta
Encoding: 946 946 844
Width: 510
Flags: HW
LayerCount: 2
Fore
SplineSet
60 -111 m 2
 60 377 l 2
 60 558 110 705 252 705 c 0
 342 705 386 602 386 517 c 0
 386 439 354 362 339 341 c 0
 338 340 333 328 333 328 c 1
 334 325 344 324 348 324 c 0
 436 314 474 244 474 165 c 0
 474 59 375 -14 268 -14 c 0
 206 -14 166 21 145 45 c 0
 136 55 129 59 124 59 c 0
 115 59 101 46 101 34 c 2
 101 -78 l 2
 101 -158 177 -236 177 -254 c 0
 177 -274 168 -285 149 -285 c 0
 73 -285 60 -202 60 -111 c 2
425 189 m 0
 425 239 393 288 342 288 c 0
 299 288 281 224 235 224 c 0
 224 224 213 239 213 259 c 0
 213 295 247 314 269 332 c 0
 328 381 351 439 351 525 c 0
 351 567 308 628 252 628 c 0
 153 628 102 544 102 415 c 2
 101 163 l 2
 101 90 194 48 261 48 c 0
 344 48 425 106 425 189 c 0
EndSplineSet
Substitution2: "Smallcaps subtable" beta.sc
EndChar

StartChar: delta
Encoding: 948 948 846
Width: 418
Flags: HW
LayerCount: 2
Fore
SplineSet
35 158 m 0
 35 244 101 396 195 396 c 0
 216 396 251 383 262 372 c 0
 276 358 279 366 274 374 c 0
 239 431 173 522 127 570 c 0
 116 582 79 627 79 658 c 0
 79 673 121 701 148 701 c 0
 179 701 273 677 311 640 c 0
 402 551 408 498 408 482 c 0
 408 477 405 474 400 474 c 0
 384 474 343 564 268 606 c 0
 227 629 186 630 160 630 c 0
 156 630 146 628 146 622 c 0
 146 610 160 585 170 572 c 0
 202 534 260 464 306 410 c 0
 337 374 375 299 375 213 c 0
 375 81 276 -14 194 -14 c 0
 126 -14 35 61 35 158 c 0
85 131 m 0
 85 79 136 37 170 37 c 0
 227 37 313 118 313 230 c 0
 313 264 304 338 267 338 c 0
 169 338 85 249 85 131 c 0
EndSplineSet
Substitution2: "Smallcaps subtable" delta.sc
EndChar

StartChar: epsilon
Encoding: 949 949 847
Width: 334
Flags: HW
LayerCount: 2
Fore
SplineSet
304 99 m 0
 304 32 235 -14 156 -14 c 0
 99 -14 45 26 45 81 c 0
 45 137 83 170 93 177 c 0
 102 184 105 190 95 195 c 0
 68 208 45 220 45 268 c 0
 45 346 130 412 224 412 c 0
 251 412 268 403 268 381 c 0
 268 359 251 348 221 348 c 0
 144 348 95 315 95 252 c 0
 95 230 110 216 127 216 c 0
 147 216 200 261 228 261 c 0
 253 261 270 248 270 232 c 0
 270 204 238 180 215 180 c 0
 175 180 85 151 85 100 c 0
 85 79 115 52 161 52 c 0
 248 52 288 116 294 116 c 0
 302 116 304 112 304 99 c 0
EndSplineSet
Substitution2: "Smallcaps subtable" epsilon.sc
EndChar
StartChar: iota
Encoding: 953 953 851
Width: 221
Flags: HW
LayerCount: 2
Fore
SplineSet
150 343 m 0
 150 307 125 155 125 95 c 0
 125 70 139 64 153 64 c 0
 174 64 185 78 188 78 c 0
 197 78 198 73 198 62 c 0
 198 28 171 -14 121 -14 c 0
 87 -14 68 19 67 86 c 2
 65 332 l 1
 63 374 73 418 111 418 c 0
 140 418 150 391 150 343 c 0
EndSplineSet
Substitution2: "Smallcaps subtable" iota.sc
EndChar
StartChar: kappa
Encoding: 954 954 852
Width: 468
Flags: HW
LayerCount: 2
Fore
SplineSet
242 220 m 0
 266 142 303 58 388 58 c 0
 424 58 450 109 455 109 c 0
 461 109 463 104 463 100 c 0
 463 25 408 -15 365 -15 c 0
 332 -15 290 24 266 70 c 0
 247 106 230 160 223 196 c 0
 222 201 219 199 215 192 c 0
 191 146 171 90 153 28 c 0
 147 8 141 -14 127 -14 c 0
 117 -14 91 1 91 20 c 0
 91 41 101 80 112 119 c 0
 122 156 130 204 130 256 c 0
 130 277 128 328 82 328 c 0
 51 328 42 315 35 315 c 0
 28 315 25 317 25 327 c 0
 25 359 68 414 103 414 c 0
 152 414 165 376 165 307 c 0
 165 255 162 238 157 201 c 0
 156 197 159 194 162 194 c 0
 165 194 165 194 172 205 c 0
 252 328 336 414 387 414 c 0
 437 414 437 375 437 352 c 0
 437 344 433 336 425 336 c 0
 415 336 426 340 388 340 c 0
 331 340 288 303 246 237 c 0
 241 229 240 226 242 220 c 0
EndSplineSet
Substitution2: "Smallcaps subtable" kappa.sc
EndChar

StartChar: lambda
Encoding: 955 955 853
Width: 430
Flags: HW
LayerCount: 2
Fore
SplineSet
347 65 m 0
 383 64 411 99 419 99 c 0
 424 99 430 95 430 90 c 0
 430 15 375 -15 332 -15 c 0
 299 -15 280 -2 265 48 c 0
 245 114 224 224 215 293 c 0
 214 298 211 299 209 294 c 0
 187 233 117 100 71 18 c 0
 68 12 56 -18 48 -18 c 0
 34 -18 1 -6 1 12 c 0
 1 26 1 23 11 38 c 0
 62 114 163 270 194 366 c 0
 200 385 201 385 199 401 c 0
 186 490 149 625 69 625 c 0
 43 625 7 586 0 586 c 0
 -7 586 -10 588 -10 598 c 0
 -10 630 30 699 91 699 c 0
 159 699 194 607 207 537 c 0
 219 471 245 273 288 122 c 0
 300 80 331 65 347 65 c 0
EndSplineSet
Substitution2: "Smallcaps subtable" lambda.sc
EndChar
StartChar: mu
Encoding: 956 956 854
Width: 510
Flags: HW
LayerCount: 2
Fore
SplineSet
431 58 m 0
 462 58 483 80 496 106 c 0
 500 115 515 110 515 102 c 2
 515 96 l 2
 515 73 505 48 500 41 c 0
 470 -7 449 -15 417 -15 c 0
 384 -15 367 0 347 48 c 0
 345 54 328 93 326 114 c 1
 319 98 260 -13 210 -13 c 0
 162 -13 138 6 98 38 c 0
 88 46 77 62 70 62 c 0
 63 62 60 49 60 28 c 0
 60 -1 66 -43 72 -78 c 0
 85 -156 137 -236 137 -254 c 0
 137 -274 128 -285 109 -285 c 0
 77 -285 58 -265 46 -234 c 0
 37 -210 31 -75 31 0 c 0
 31 17 38 60 38 92 c 0
 38 125 31 288 31 332 c 0
 31 374 44 418 83 418 c 0
 112 418 122 391 122 343 c 0
 122 301 91 172 91 132 c 0
 91 106 123 52 170 52 c 0
 223 52 255 74 279 122 c 0
 316 196 317 255 317 332 c 0
 317 371 332 415 366 415 c 0
 400 415 405 374 405 352 c 0
 405 315 357 215 357 162 c 0
 357 125 381 58 431 58 c 0
EndSplineSet
Substitution2: "Smallcaps subtable" mu.sc
EndChar

StartChar: nu
Encoding: 957 957 855
Width: 384
Flags: HW
LayerCount: 2
Fore
SplineSet
165 107 m 0
 165 102 165 94 170 94 c 0
 174 94 176 94 186 103 c 0
 220 134 296 226 296 314 c 0
 296 379 276 400 276 406 c 0
 276 413 277 417 291 417 c 0
 320 417 349 359 349 322 c 0
 349 199 253 89 189 24 c 0
 164 -1 147 -14 135 -14 c 0
 125 -14 126 1 126 20 c 0
 126 23 128 49 128 84 c 0
 128 174 118 328 65 328 c 0
 34 328 25 315 18 315 c 0
 11 315 8 317 8 327 c 0
 8 359 34 414 95 414 c 0
 155 414 165 226 165 107 c 0
EndSplineSet
Substitution2: "Smallcaps subtable" nu.sc
EndChar
StartChar: omicron
Encoding: 959 959 857
Width: 400
Flags: HW
LayerCount: 2
Fore
SplineSet
175 -14 m 0
 77 -14 35 97 35 195 c 0
 35 306 104 414 215 414 c 0
 319 414 365 299 365 195 c 0
 365 85 285 -14 175 -14 c 0
325 235 m 0
 325 284 289 334 240 334 c 0
 148 334 75 252 75 160 c 0
 75 111 106 64 155 64 c 0
 249 64 325 141 325 235 c 0
EndSplineSet
Substitution2: "Smallcaps subtable" omicron.sc
EndChar
StartChar: rho
Encoding: 961 961 859
Width: 426
Flags: HW
LayerCount: 2
Fore
SplineSet
113 22 m 0
 113 -7 115 -43 118 -78 c 0
 125 -164 143 -245 143 -263 c 0
 143 -283 137 -285 118 -285 c 0
 88 -285 60 -269 60 -234 c 0
 60 -209 63 129 63 204 c 0
 63 325 132 414 243 414 c 0
 347 414 391 312 391 208 c 0
 391 98 313 -14 203 -14 c 0
 168 -14 142 12 123 37 c 0
 117 45 113 39 113 22 c 0
353 246 m 0
 353 295 314 345 265 345 c 0
 201 345 112 302 112 112 c 0
 112 90 143 64 171 64 c 0
 302 64 353 132 353 246 c 0
EndSplineSet
Substitution2: "Smallcaps subtable" rho.sc
EndChar
StartChar: sigma
Encoding: 963 963 860
Width: 485
Flags: HW
LayerCount: 2
Fore
SplineSet
75 160 m 0
 75 106 112 64 160 64 c 0
 261 64 317 149 317 239 c 0
 317 272 307 340 272 347 c 0
 260 349 235 350 222 350 c 0
 127 350 75 245 75 160 c 0
182 -14 m 0
 83 -14 35 102 35 195 c 0
 35 316 139 416 215 416 c 0
 257 416 368 410 420 410 c 0
 444 410 471 433 476 433 c 0
 482 433 484 429 484 424 c 0
 484 374 453 341 424 341 c 0
 410 341 331 344 324 344 c 0
 317 344 313 338 320 330 c 0
 333 314 364 276 364 223 c 0
 364 123 286 -14 182 -14 c 0
EndSplineSet
Substitution2: "Smallcaps subtable" sigma.sc
EndChar

StartChar: tau
Encoding: 964 964 861
Width: 410
Flags: HW
LayerCount: 2
Fore
SplineSet
405 430 m 0
 415 430 420 422 420 399 c 0
 420 370 392 332 368 332 c 0
 341 332 274 341 260 341 c 0
 250 341 242 338 240 329 c 0
 232 284 225 130 225 119 c 0
 225 82 253 64 267 64 c 0
 288 64 311 78 314 78 c 0
 323 78 324 73 324 62 c 0
 324 28 282 -14 232 -14 c 0
 198 -14 170 9 170 76 c 0
 170 126 209 313 209 327 c 0
 209 339 203 342 193 343 c 0
 178 344 126 345 126 345 c 2
 99 345 59 331 42 279 c 0
 40 274 36 268 28 268 c 0
 20 268 15 277 15 296 c 0
 15 341 75 408 140 408 c 0
 221 408 256 400 322 400 c 0
 407 400 395 430 405 430 c 0
EndSplineSet
Substitution2: "Smallcaps subtable" tau.sc
EndChar
StartChar: phi
Encoding: 966 966 863
Width: 510
Flags: HW
LayerCount: 2
Fore
SplineSet
287 -250 m 0
 287 -270 283 -285 264 -285 c 0
 240 -285 224 -259 224 -237 c 0
 224 -213 233 -137 238 -21 c 1
 124 -12 35 84 35 200 c 0
 35 317 124 414 238 424 c 1
 236 505 233 554 233 569 c 0
 233 598 233 616 255 616 c 0
 286 616 288 589 288 552 c 0
 288 536 286 494 283 423 c 1
 393 410 475 313 475 200 c 0
 475 86 388 -10 277 -21 c 1
 280 -155 287 -249 287 -250 c 0
276 49 m 1
 358 55 440 98 440 180 c 0
 440 272 371 349 281 359 c 1
 280 334 279 306 279 276 c 2
 277 155 l 2
 276 118 276 83 276 49 c 1
239 359 m 1
 145 349 70 271 70 175 c 0
 70 92 157 52 240 48 c 1
 241 81 241 117 241 155 c 2
 240 277 l 2
 240 306 239 334 239 359 c 1
EndSplineSet
Substitution2: "Smallcaps subtable" phi.sc
EndChar
StartChar: psi
Encoding: 968 968 865
Width: 560
Flags: HW
LayerCount: 2
Fore
SplineSet
72 328 m 0
 41 328 32 315 25 315 c 0
 18 315 15 317 15 327 c 0
 15 359 58 413 93 414 c 0
 147 416 171 334 186 158 c 0
 191 106 230 71 276 66 c 1
 275 435 273 555 273 574 c 0
 273 603 283 616 305 616 c 0
 336 616 342 605 342 568 c 0
 342 539 321 453 317 70 c 1
 367 87 388 151 415 244 c 0
 444 343 481 414 549 414 c 0
 577 414 590 399 590 388 c 0
 590 380 585 375 578 372 c 0
 543 356 516 344 502 310 c 0
 482 261 449 166 431 106 c 0
 409 33 358 -1 316 -12 c 1
 316 -67 l 2
 316 -147 365 -236 365 -254 c 0
 365 -274 356 -285 337 -285 c 0
 299 -285 276 -191 276 -100 c 2
 276 -17 l 1
 204 -14 156 62 148 146 c 0
 133 306 109 328 72 328 c 0
EndSplineSet
Substitution2: "Smallcaps subtable" psi.sc
EndChar

StartChar: omega
Encoding: 969 969 866
Width: 562
Flags: HW
LayerCount: 2
Fore
SplineSet
304 108 m 0
 309 87 318 49 358 49 c 0
 436 49 460 142 460 220 c 0
 460 347 390 394 390 399 c 0
 390 406 394 414 399 414 c 0
 463 414 527 302 527 200 c 0
 527 96 474 -14 370 -14 c 0
 290 -14 286 74 277 74 c 0
 263 74 235 -14 150 -14 c 0
 65 -14 35 86 35 170 c 0
 35 311 149 414 177 414 c 0
 192 414 200 386 200 370 c 0
 200 355 70 236 70 140 c 0
 70 100 89 52 131 52 c 0
 208 52 249 92 249 147 c 0
 249 169 237 198 237 219 c 0
 237 247 253 270 285 270 c 0
 303 270 324 254 324 221 c 0
 324 196 313 166 302 137 c 0
 300 131 302 115 304 108 c 0
EndSplineSet
Substitution2: "Smallcaps subtable" omega.sc
EndChar
StartChar: uni0409
Encoding: 1033 1033 1984
Width: 968
Flags: HW
LayerCount: 2
Fore
SplineSet
608 303 m 2
 608 108 l 2
 608 90 615 68 627 56 c 0
 638 45 662 30 687 30 c 0
 765 30 843 103 843 189 c 0
 843 266 796 299 769 314 c 0
 751 324 725 332 675 332 c 0
 668 332 608 328 608 303 c 2
665 653 m 0
 682 653 694 650 694 642 c 0
 694 633 684 626 661 622 c 0
 611 613 608 574 608 557 c 2
 608 408 l 2
 608 376 610 360 616 362 c 0
 645 370 683 376 734 376 c 0
 855 376 933 310 933 194 c 0
 933 112 881 54 833 30 c 0
 791 9 739 -4 673 -4 c 0
 668 -4 603 1 561 1 c 0
 520 1 509 -5 455 -5 c 0
 438 -5 426 -2 426 6 c 0
 426 15 436 20 459 24 c 0
 501 32 528 54 528 97 c 2
 528 557 l 2
 528 586 524 608 499 608 c 2
 331 608 l 2
 317 608 310 588 310 566 c 0
 310 53 152 -14 93 -14 c 0
 46 -14 22 11 22 44 c 0
 22 71 39 99 62 99 c 0
 98 99 89 74 129 74 c 0
 196 74 265 192 265 557 c 0
 265 601 235 616 199 622 c 0
 176 626 166 633 166 642 c 0
 166 650 178 653 195 653 c 0
 249 653 393 649 467 649 c 0
 540 649 611 653 665 653 c 0
EndSplineSet
Substitution2: "cyrillic_DLLj subtable" uni0409.alt
EndChar

StartChar: uni0410
Encoding: 1040 1040 2035
Width: 684
Flags: HW
LayerCount: 2
Fore
SplineSet
668 -5 m 0
 640 -5 574 1 529 1 c 0
 490 1 448 0 424 0 c 0
 407 0 395 4 395 12 c 0
 395 21 410 28 428 31 c 0
 472 38 489 54 489 76 c 0
 489 105 466 183 451 233 c 0
 448 243 442 244 424 244 c 2
 233 244 l 2
 227 244 221 240 216 226 c 0
 207 200 176 100 176 87 c 0
 176 58 202 38 234 30 c 0
 257 24 267 19 267 10 c 0
 267 2 255 -1 238 -1 c 0
 220 -1 184 1 147 1 c 0
 103 1 60 -5 27 -5 c 0
 10 -5 -2 0 -2 8 c 0
 -2 17 9 24 31 31 c 0
 65 41 95 58 117 108 c 0
 192 279 237 393 304 578 c 0
 319 620 316 635 318 636 c 0
 330 640 342 643 354 651 c 0
 368 660 370 686 375 686 c 0
 380 686 382 671 385 662 c 0
 449 459 530 223 563 128 c 0
 591 48 624 35 664 28 c 0
 687 24 697 14 697 5 c 0
 697 -3 685 -5 668 -5 c 0
333 542 m 2
 243 302 l 2
 242 299 241 296 241 294 c 0
 241 287 249 287 262 287 c 2
 417 287 l 2
 427 287 431 287 431 292 c 0
 431 294 430 298 429 302 c 2
 350 541 l 2
 346 553 344 559 341 559 c 0
 339 559 337 553 333 542 c 2
EndSplineSet
EndChar
StartChar: uni0411
Encoding: 1041 1041 2036
Width: 568
Flags: HW
LayerCount: 2
Fore
SplineSet
48 -5 m 0
 31 -5 19 -2 19 6 c 0
 19 15 29 20 52 24 c 0
 102 33 130 51 130 98 c 2
 130 550 l 2
 130 597 113 613 63 622 c 0
 40 626 30 633 30 642 c 0
 30 650 42 653 59 653 c 0
 113 653 130 650 176 650 c 2
 424 650 l 2
 427 650 457 655 463 655 c 0
 470 655 473 645 473 641 c 0
 474 598 481 573 481 540 c 0
 481 526 472 519 467 519 c 0
 460 519 445 536 443 547 c 0
 439 570 430 611 371 611 c 2
 239 611 l 2
 228 611 210 588 210 576 c 2
 210 408 l 2
 210 376 211 358 222 358 c 0
 224 358 225 358 227 359 c 0
 251 367 283 376 334 376 c 0
 455 376 533 310 533 194 c 0
 533 84 469 51 433 30 c 0
 393 6 339 -4 273 -4 c 0
 253 -4 197 4 153 4 c 0
 111 4 102 -5 48 -5 c 0
210 108 m 2
 210 63 238 37 287 37 c 0
 365 37 443 103 443 189 c 0
 443 266 396 303 369 318 c 0
 351 328 315 343 265 343 c 0
 235 343 210 335 210 307 c 2
 210 108 l 2
EndSplineSet
EndChar
StartChar: uni0414
Encoding: 1044 1044 1985
Width: 700
Flags: HW
LayerCount: 2
Fore
SplineSet
576 550 m 2
 576 72 l 2
 576 39 657 41 685 40 c 0
 696 40 696 30 696 22 c 0
 696 -3 681 -80 677 -174 c 0
 676 -190 667 -205 651 -205 c 0
 632 -205 630 -182 630 -162 c 0
 630 -40 614 0 540 0 c 2
 184 0 l 2
 110 0 94 -41 94 -163 c 0
 94 -183 92 -206 73 -206 c 0
 57 -206 48 -191 47 -175 c 0
 43 -80 26 -31 26 23 c 0
 26 31 31 40 41 40 c 0
 153 40 247 182 247 557 c 0
 247 595 233 613 183 622 c 0
 160 626 150 633 150 642 c 0
 150 650 162 653 179 653 c 0
 199 653 237 649 274 649 c 0
 368 649 449 649 542 650 c 0
 586 650 601 653 655 653 c 0
 672 653 684 650 684 642 c 0
 684 633 674 626 651 622 c 0
 601 613 576 596 576 550 c 2
171 58 m 0
 168 55 166 51 166 49 c 0
 166 42 180 40 200 40 c 2
 461 40 l 2
 491 40 496 50 496 72 c 2
 496 552 l 2
 496 586 489 608 464 608 c 2
 321 608 l 2
 300 608 292 596 292 564 c 0
 292 246 238 122 171 58 c 0
EndSplineSet
Substitution2: "cyrillic_DLLj subtable" uni0414.alt
EndChar
StartChar: uni0418
Encoding: 1048 1048 2042
Width: 803
Flags: HW
LayerCount: 2
Fore
SplineSet
210 551 m 2
 210 181 l 2
 210 167 214 163 221 170 c 2
 601 539 l 2
 611 549 616 557 616 562 c 0
 616 596 594 614 551 622 c 0
 528 626 518 633 518 642 c 0
 518 650 530 653 547 653 c 0
 601 653 618 650 663 650 c 0
 699 650 702 653 756 653 c 0
 773 653 785 650 785 642 c 0
 785 633 775 626 752 622 c 0
 702 613 697 590 697 552 c 2
 697 100 l 2
 697 51 704 33 754 24 c 0
 777 20 787 15 787 6 c 0
 787 -2 775 -5 758 -5 c 0
 704 -5 693 0 652 0 c 0
 610 0 599 -5 545 -5 c 0
 528 -5 516 -2 516 6 c 0
 516 15 526 20 549 24 c 0
 591 32 616 46 616 85 c 2
 616 434 l 2
 616 477 616 485 612 485 c 0
 611 485 608 483 606 481 c 2
 218 104 l 2
 210 96 211 97 211 85 c 0
 211 43 243 32 289 24 c 0
 312 20 322 15 322 6 c 0
 322 -2 310 -5 293 -5 c 0
 239 -5 222 0 176 0 c 0
 133 0 120 -5 66 -5 c 0
 49 -5 37 -2 37 6 c 0
 37 15 47 20 70 24 c 0
 120 33 130 51 130 99 c 2
 130 551 l 2
 130 597 127 613 77 622 c 0
 54 626 44 633 44 642 c 0
 44 650 56 653 73 653 c 0
 127 653 136 650 176 650 c 0
 217 650 228 653 282 653 c 0
 299 653 311 650 311 642 c 0
 311 633 301 626 278 622 c 0
 228 613 210 590 210 551 c 2
EndSplineSet
EndChar

StartChar: uni041A
Encoding: 1050 1050 2044
Width: 646
Flags: HW
LayerCount: 2
Fore
SplineSet
220 327 m 0
 211 327 211 314 211 308 c 2
 211 110 l 2
 211 67 230 33 280 24 c 0
 303 20 313 15 313 6 c 0
 313 -2 301 -5 284 -5 c 0
 230 -5 224 2 186 2 c 0
 137 2 114 -5 60 -5 c 0
 43 -5 31 -2 31 6 c 0
 31 15 41 20 64 24 c 0
 114 33 131 51 131 101 c 2
 131 551 l 2
 131 597 114 613 64 622 c 0
 41 626 31 633 31 642 c 0
 31 650 43 653 60 653 c 0
 114 653 131 650 177 650 c 0
 213 650 215 653 269 653 c 0
 286 653 298 650 298 642 c 0
 298 633 288 626 265 622 c 0
 215 613 211 590 211 551 c 2
 211 378 l 2
 211 363 212 359 217 359 c 0
 242 359 276 359 291 364 c 0
 359 385 392 487 427 566 c 0
 448 614 476 664 542 664 c 0
 585 664 603 641 603 614 c 0
 603 594 592 567 565 567 c 0
 546 567 527 582 511 582 c 0
 493 582 479 580 459 533 c 0
 432 470 405 383 349 359 c 0
 337 354 341 351 348 349 c 0
 361 344 384 339 406 315 c 0
 440 277 493 117 554 51 c 0
 573 30 605 26 652 25 c 0
 658 25 663 19 663 13 c 0
 663 8 659 3 655 0 c 0
 642 -9 606 -18 572 -18 c 0
 524 -18 473 -13 426 93 c 0
 407 137 384 187 364 232 c 0
 341 283 308 318 281 323 c 0
 261 327 239 327 220 327 c 0
EndSplineSet
EndChar
StartChar: uni041E
Encoding: 1054 1054 2047
Width: 763
Flags: HW
LayerCount: 2
Fore
SplineSet
375 625 m 0
 227 625 142 490 142 350 c 0
 142 179 247 25 395 25 c 0
 545 25 621 134 621 305 c 0
 621 495 535 625 375 625 c 0
45 320 m 0
 45 501 166 664 390 664 c 0
 564 664 718 532 718 335 c 0
 718 155 601 -14 382 -14 c 0
 205 -14 45 130 45 320 c 0
EndSplineSet
EndChar

StartChar: uni0421
Encoding: 1057 1057 2050
Width: 640
Flags: HW
LayerCount: 2
Fore
SplineSet
586 137 m 0
 592 148 606 152 611 156 c 0
 612 157 612 157 613 157 c 0
 617 157 620 147 620 138 c 0
 620 135 619 132 619 130 c 0
 615 105 601 49 586 26 c 0
 581 18 562 13 537 5 c 0
 502 -6 429 -15 369 -15 c 0
 187 -15 46 141 46 323 c 0
 46 517 216 663 410 663 c 0
 442 663 498 657 516 651 c 0
 534 645 572 636 592 633 c 0
 600 632 604 617 605 603 c 0
 609 572 612 546 613 494 c 0
 614 485 612 470 602 471 c 0
 591 472 580 485 576 508 c 1
 571 548 553 570 541 581 c 0
 531 591 486 632 394 632 c 0
 247 632 146 494 146 347 c 0
 146 184 244 16 400 16 c 0
 512 16 560 86 586 137 c 0
EndSplineSet
EndChar

StartChar: uni0422
Encoding: 1058 1058 2051
Width: 670
Flags: HW
LayerCount: 2
Fore
SplineSet
376 102 m 2
 376 54 405 33 455 24 c 0
 478 20 488 15 488 6 c 0
 488 -2 476 -5 459 -5 c 0
 405 -5 388 0 342 0 c 0
 292 0 268 -5 214 -5 c 0
 197 -5 185 -2 185 6 c 0
 185 15 195 20 218 24 c 0
 268 33 296 54 296 102 c 2
 296 557 l 2
 296 575 294 597 278 600 c 0
 259 604 238 604 204 604 c 2
 157 604 l 2
 125 604 89 591 75 565 c 0
 69 554 49 527 34 527 c 0
 29 527 27 533 27 540 c 0
 27 546 29 554 32 560 c 0
 50 598 57 629 63 671 c 0
 66 693 75 694 80 694 c 0
 85 694 99 673 105 662 c 0
 113 648 147 642 175 642 c 2
 556 642 l 2
 585 642 604 649 614 656 c 0
 634 670 649 692 664 692 c 0
 668 692 671 679 671 669 c 0
 671 666 670 662 670 660 c 0
 661 623 654 587 654 561 c 2
 654 549 l 2
 654 537 648 517 638 517 c 0
 628 517 624 532 619 558 c 0
 614 586 591 604 527 604 c 2
 432 604 l 2
 381 604 376 599 376 558 c 2
 376 102 l 2
EndSplineSet
EndChar

StartChar: uni0424
Encoding: 1060 1060 2053
Width: 739
Flags: HW
LayerCount: 2
Fore
SplineSet
329 54 m 2
 329 76 l 1
 164 76 40 192 40 346 c 0
 40 497 162 605 329 605 c 1
 329 629 l 2
 329 649 312 660 262 669 c 0
 239 673 229 680 229 689 c 0
 229 697 241 700 258 700 c 0
 312 700 329 697 375 697 c 0
 418 697 430 700 484 700 c 0
 501 700 513 697 513 689 c 0
 513 680 503 673 480 669 c 0
 430 660 409 649 409 629 c 2
 409 605 l 1
 572 605 699 507 699 359 c 0
 699 201 578 76 409 76 c 1
 409 54 l 2
 409 14 438 11 488 2 c 0
 511 -2 521 -7 521 -16 c 0
 521 -24 509 -27 492 -27 c 0
 438 -27 421 -22 375 -22 c 0
 325 -22 301 -27 247 -27 c 0
 230 -27 218 -24 218 -16 c 0
 218 -7 228 -2 251 2 c 0
 301 11 329 14 329 54 c 2
409 574 m 1
 409 107 l 1
 541 107 607 223 607 343 c 0
 607 462 544 574 409 574 c 1
329 109 m 1
 329 574 l 1
 201 574 132 478 132 367 c 0
 132 240 190 109 329 109 c 1
EndSplineSet
EndChar

StartChar: uni042A
Encoding: 1066 1066 2059
Width: 656
Flags: HW
LayerCount: 2
Fore
SplineSet
263 650 m 2
 306 650 318 653 372 653 c 0
 389 653 401 650 401 642 c 0
 401 633 391 626 368 622 c 0
 318 613 296 596 296 550 c 2
 296 408 l 2
 296 377 297 355 305 354 c 0
 307 354 369 378 420 378 c 0
 541 378 621 310 621 194 c 0
 621 84 557 51 521 30 c 0
 481 6 428 -4 361 -4 c 0
 343 -4 306 0 266 0 c 0
 214 0 194 -5 136 -5 c 0
 119 -5 107 -2 107 6 c 0
 107 15 117 20 140 24 c 0
 190 33 218 51 218 100 c 2
 218 549 l 2
 218 589 213 611 178 611 c 2
 129 611 l 2
 68 611 61 570 57 547 c 0
 55 536 40 513 33 513 c 0
 28 513 19 525 19 540 c 0
 19 573 26 598 27 641 c 0
 27 645 30 655 37 655 c 0
 43 655 69 651 72 651 c 0
 100 651 149 650 214 650 c 2
 263 650 l 2
531 184 m 0
 531 258 483 303 457 318 c 0
 439 328 421 338 371 338 c 0
 353 338 316 330 307 324 c 0
 298 318 296 310 296 299 c 2
 296 103 l 2
 296 86 299 64 311 52 c 0
 322 41 350 27 375 27 c 0
 454 27 531 50 531 184 c 0
EndSplineSet
EndChar
StartChar: uni042D
Encoding: 1069 1069 2062
Width: 642
Flags: HW
LayerCount: 2
Fore
SplineSet
499 363 m 0
 490 502 418 632 276 632 c 0
 184 632 145 591 135 581 c 0
 123 570 92 534 84 502 c 0
 81 489 78 472 67 471 c 0
 57 470 56 485 56 494 c 0
 57 526 65 574 71 603 c 0
 74 617 76 633 84 633 c 0
 101 634 141 647 160 651 c 0
 203 660 259 664 291 664 c 0
 464 664 596 514 596 341 c 0
 596 163 471 -15 287 -15 c 0
 227 -15 155 -9 118 5 c 0
 93 14 70 26 62 51 c 0
 55 74 46 117 46 143 c 0
 46 154 50 167 58 168 c 1
 59 168 l 2
 65 168 75 155 79 143 c 0
 87 121 100 95 121 76 c 0
 156 44 198 15 279 15 c 0
 427 15 492 169 499 317 c 0
 500 325 495 329 492 326 c 0
 458 288 415 271 381 271 c 0
 332 271 292 316 249 316 c 0
 199 316 174 303 157 295 c 0
 151 292 146 300 146 306 c 0
 146 309 200 378 251 378 c 0
 324 378 358 335 405 335 c 0
 439 335 470 341 491 353 c 0
 496 356 500 355 499 363 c 0
EndSplineSet
EndChar

StartChar: uni042E
Encoding: 1070 1070 2063
Width: 1015
Flags: HW
LayerCount: 2
Fore
SplineSet
48 -5 m 0
 30 -5 19 -2 19 6 c 0
 19 15 29 20 52 24 c 0
 102 33 130 51 130 98 c 2
 130 550 l 2
 130 597 113 613 63 622 c 0
 40 626 30 633 30 642 c 0
 30 650 42 653 59 653 c 0
 113 653 130 650 176 650 c 0
 219 650 231 653 285 653 c 0
 302 653 314 650 314 642 c 0
 314 633 304 626 281 622 c 0
 231 613 210 597 210 550 c 2
 210 358 l 2
 210 353 212 348 218 348 c 2
 337 345 l 1
 350 515 478 664 651 664 c 0
 828 664 965 512 965 335 c 0
 965 152 834 -14 651 -14 c 0
 478 -14 346 133 337 304 c 1
 220 300 l 2
 215 300 210 295 210 288 c 2
 210 98 l 2
 210 51 239 33 289 24 c 0
 312 20 322 15 322 6 c 0
 322 -2 309 -5 293 -5 c 0
 239 -5 222 0 176 0 c 0
 126 0 102 -5 48 -5 c 0
644 625 m 0
 509 625 433 485 433 350 c 0
 433 194 509 25 664 25 c 0
 799 25 868 170 868 305 c 0
 868 457 796 625 644 625 c 0
EndSplineSet
EndChar

StartChar: uni042F
Encoding: 1071 1071 2064
Width: 688
Flags: HW
LayerCount: 2
Fore
SplineSet
413 657 m 0
 456 657 484 650 524 650 c 0
 567 650 579 653 633 653 c 0
 650 653 662 650 662 642 c 0
 662 633 652 626 629 622 c 0
 579 613 558 597 558 550 c 2
 558 98 l 2
 558 51 587 33 637 24 c 0
 660 20 670 15 670 6 c 0
 670 -2 658 -5 641 -5 c 0
 587 -5 570 0 524 0 c 0
 474 0 450 -5 396 -5 c 0
 379 -5 367 -2 367 6 c 0
 367 15 377 20 400 24 c 0
 450 33 478 56 478 98 c 2
 478 267 l 2
 478 300 462 298 429 298 c 0
 410 298 383 294 363 278 c 0
 340 259 295 234 223 64 c 0
 198 6 154 -18 97 -18 c 0
 72 -18 38 -9 25 0 c 0
 21 3 18 8 18 13 c 0
 18 19 22 25 28 25 c 0
 137 26 143 70 169 122 c 0
 199 182 242 279 323 298 c 0
 328 299 327 303 311 304 c 0
 216 312 153 398 153 470 c 0
 153 607 270 657 413 657 c 0
249 489 m 0
 249 415 279 371 305 356 c 0
 323 346 353 333 403 333 c 0
 421 333 458 338 467 344 c 0
 476 350 478 361 478 372 c 2
 478 550 l 2
 478 567 475 589 463 601 c 0
 452 612 424 626 399 626 c 0
 320 626 249 568 249 489 c 0
EndSplineSet
EndChar
StartChar: uni0430
Encoding: 1072 1072 2065
Width: 399
Flags: HW
LayerCount: 2
Fore
SplineSet
115 87 m 0
 115 49 145 32 164 32 c 0
 190 32 208 45 224 59 c 0
 231 65 235 74 236 99 c 2
 238 148 l 2
 239 163 237 169 229 169 c 0
 226 169 220 168 215 166 c 0
 138 140 115 110 115 87 c 0
342 32 m 0
 360 32 371 36 382 46 c 0
 388 52 398 45 398 37 c 0
 398 29 356 -14 318 -14 c 0
 261 -14 252 38 244 38 c 0
 231 38 203 -13 121 -14 c 0
 80 -14 35 26 35 65 c 0
 35 107 59 135 108 155 c 2
 210 197 l 2
 236 208 237 210 238 237 c 2
 240 301 l 2
 241 335 217 365 181 365 c 0
 157 365 128 347 120 333 c 0
 117 328 116 321 116 314 c 0
 116 309 117 305 117 300 c 0
 117 286 61 265 48 265 c 0
 42 265 40 271 40 274 c 0
 40 295 55 321 80 343 c 0
 111 371 176 414 229 414 c 0
 276 414 312 374 311 325 c 2
 306 109 l 2
 306 70 313 32 342 32 c 0
EndSplineSet
EndChar
StartChar: uni0431
Encoding: 1073 1073 1725
Width: 468
Flags: HW
LayerCount: 2
Fore
SplineSet
94 326 m 0
 133 393 189 414 238 414 c 0
 354 414 433 321 433 213 c 0
 433 96 368 -14 218 -14 c 0
 106 -14 36 51 35 252 c 0
 35 371 53 500 114 573 c 0
 174 645 270 656 321 662 c 0
 389 670 395 686 415 700 c 0
 416 701 418 701 419 701 c 0
 423 701 425 694 425 690 c 0
 425 653 399 614 377 601 c 0
 356 589 288 575 223 567 c 0
 137 556 80 480 80 312 c 0
 80 301 89 317 94 326 c 0
221 383 m 0
 185 383 164 368 146 345 c 0
 129 324 117 274 117 226 c 0
 118 95 159 16 239 16 c 0
 284 16 314 38 334 77 c 0
 350 108 351 150 351 189 c 0
 351 284 306 383 221 383 c 0
EndSplineSet
EndChar

StartChar: uni0439
Encoding: 1081 1081 2072
Width: 526
Flags: HW
LayerCount: 2
Fore
SplineSet
265 510 m 0
 315 510 344 558 350 587 c 0
 355 610 365 612 370 612 c 0
 376 612 380 602 380 592 c 0
 380 527 325 478 259 478 c 0
 202 478 143 515 143 568 c 0
 143 601 172 617 188 617 c 0
 203 617 235 603 235 582 c 0
 235 567 210 560 210 547 c 0
 210 529 239 510 265 510 c 0
366 339 m 0
 366 366 351 370 331 376 c 0
 320 380 308 384 308 394 c 0
 308 402 320 403 328 403 c 0
 368 403 368 398 403 398 c 0
 438 398 440 403 480 403 c 0
 488 403 500 402 500 394 c 0
 500 384 488 380 477 376 c 0
 457 370 436 364 436 337 c 2
 436 63 l 2
 436 36 460 30 480 24 c 0
 491 20 503 16 503 6 c 0
 503 -2 490 -3 483 -3 c 0
 443 -3 437 2 402 2 c 0
 367 2 361 -3 321 -3 c 0
 314 -3 301 -2 301 6 c 0
 301 16 313 20 324 24 c 0
 344 30 366 36 366 63 c 2
 366 266 l 2
 366 271 364 273 362 271 c 2
 163 74 l 2
 160 71 160 69 160 63 c 0
 160 35 184 30 204 24 c 0
 215 20 227 16 227 6 c 0
 227 -2 214 -3 207 -3 c 0
 167 -3 161 2 126 2 c 0
 91 2 85 -3 45 -3 c 0
 38 -3 25 -2 25 6 c 0
 25 16 37 20 48 24 c 0
 68 30 90 35 90 63 c 2
 90 337 l 2
 90 364 72 370 52 376 c 0
 41 380 29 384 29 394 c 0
 29 402 42 403 49 403 c 0
 89 403 91 398 126 398 c 0
 161 398 161 403 201 403 c 0
 208 403 221 402 221 394 c 0
 221 384 209 380 198 376 c 0
 178 370 160 364 160 337 c 2
 160 137 l 2
 160 132 168 129 170 131 c 2
 361 328 l 1
 364 333 366 332 366 339 c 0
EndSplineSet
EndChar

StartChar: uni043A
Encoding: 1082 1082 2073
Width: 458
Flags: HW
LayerCount: 2
Fore
SplineSet
90 330 m 2
 90 359 73 372 53 378 c 0
 42 382 30 386 30 396 c 0
 30 406 48 405 53 405 c 0
 92 405 88 400 123 400 c 0
 158 400 156 405 195 405 c 0
 200 405 218 406 218 396 c 0
 218 386 206 382 195 378 c 0
 175 372 158 358 158 328 c 2
 158 235 l 2
 158 228 164 227 169 227 c 0
 190 227 216 228 232 234 c 0
 281 254 303 341 315 363 c 0
 338 407 365 418 393 418 c 0
 426 418 442 388 442 372 c 0
 442 357 428 325 407 325 c 0
 392 325 383 354 370 354 c 0
 352 354 346 343 336 330 c 0
 324 314 309 237 271 225 c 0
 265 223 267 220 271 220 c 0
 286 219 301 210 310 192 c 0
 322 167 347 94 361 66 c 0
 381 28 418 29 446 28 c 0
 458 28 461 22 461 12 c 0
 461 2 442 -10 394 -10 c 0
 369 -10 334 2 312 36 c 0
 293 64 267 153 254 174 c 0
 245 187 232 197 214 202 c 0
 204 204 188 205 168 205 c 0
 163 205 158 201 158 196 c 2
 158 62 l 2
 158 34 183 30 203 24 c 0
 214 20 226 16 226 6 c 0
 226 -4 208 -3 203 -3 c 0
 164 -3 160 2 125 2 c 0
 90 2 86 -3 47 -3 c 0
 42 -3 24 -4 24 6 c 0
 24 16 36 20 47 24 c 0
 67 30 90 31 90 59 c 2
 90 330 l 2
EndSplineSet
EndChar
StartChar: uni043B
Encoding: 1083 1083 1988
Width: 464
Flags: HW
LayerCount: 2
Fore
SplineSet
77 49 m 1
 88 48 102 66 113 94 c 0
 122 118 141 189 141 319 c 0
 141 358 121 362 88 369 c 0
 82 370 71 378 71 388 c 0
 71 396 89 403 93 403 c 0
 118 403 124 400 147 400 c 2
 356 400 l 2
 382 400 389 403 414 403 c 0
 418 403 436 396 436 388 c 0
 436 378 425 370 419 369 c 0
 386 362 373 354 373 300 c 2
 373 62 l 2
 373 35 389 30 409 24 c 0
 420 20 432 16 432 6 c 0
 432 -2 420 -3 412 -3 c 0
 373 -3 371 2 336 2 c 0
 301 2 297 -3 259 -3 c 0
 251 -3 239 -2 239 6 c 0
 239 16 251 20 262 24 c 0
 282 30 303 35 303 62 c 2
 303 323 l 2
 303 334 303 361 287 361 c 2
 198 361 l 2
 181 361 181 334 181 323 c 0
 181 213 166 110 117 28 c 0
 102 2 84 -14 54 -14 c 0
 21 -14 5 15 5 31 c 0
 5 46 19 78 40 78 c 0
 55 78 64 49 77 49 c 1
EndSplineSet
Substitution2: "cyrillic_DLLj subtable" uni043B.alt
EndChar

StartChar: uni043D
Encoding: 1085 1085 2075
Width: 510
Flags: HW
LayerCount: 2
Fore
SplineSet
350 337 m 2
 350 364 335 370 315 376 c 0
 304 380 292 384 292 394 c 0
 292 403 306 403 315 403 c 0
 354 403 352 398 387 398 c 0
 422 398 422 403 461 403 c 0
 470 403 484 403 484 394 c 0
 484 384 472 380 461 376 c 0
 441 370 420 364 420 337 c 2
 420 63 l 2
 420 36 444 30 464 24 c 0
 475 20 487 16 487 6 c 0
 487 -3 472 -3 464 -3 c 0
 425 -3 421 2 386 2 c 0
 351 2 347 -3 308 -3 c 0
 300 -3 285 -3 285 6 c 0
 285 16 297 20 308 24 c 0
 328 30 350 36 350 63 c 2
 350 186 l 2
 350 191 349 191 346 191 c 2
 163 191 l 2
 160 191 160 189 160 184 c 2
 160 63 l 2
 160 35 184 30 204 24 c 0
 215 20 227 16 227 6 c 0
 227 -3 212 -3 204 -3 c 0
 165 -3 161 2 126 2 c 0
 91 2 87 -3 48 -3 c 0
 40 -3 25 -3 25 6 c 0
 25 16 37 20 48 24 c 0
 68 30 90 35 90 63 c 2
 90 337 l 2
 90 364 72 370 52 376 c 0
 41 380 29 384 29 394 c 0
 29 403 44 403 52 403 c 0
 91 403 91 398 126 398 c 0
 161 398 159 403 198 403 c 0
 206 403 221 403 221 394 c 0
 221 384 209 380 198 376 c 0
 178 370 160 364 160 337 c 2
 160 234 l 2
 160 229 167 228 170 228 c 2
 345 228 l 2
 347 228 350 230 350 236 c 2
 350 337 l 2
EndSplineSet
EndChar

StartChar: uni043E
Encoding: 1086 1086 2076
Width: 495
Flags: HW
LayerCount: 2
Fore
SplineSet
237 383 m 0
 201 383 173 374 149 343 c 0
 122 309 117 258 117 210 c 0
 117 111 175 16 255 16 c 0
 300 16 338 32 358 71 c 0
 374 102 378 150 378 189 c 0
 378 284 322 383 237 383 c 0
254 414 m 0
 370 414 460 321 460 213 c 0
 460 96 384 -14 234 -14 c 0
 122 -14 35 70 35 187 c 0
 35 298 131 414 254 414 c 0
EndSplineSet
EndChar
StartChar: uni0442
Encoding: 1090 1090 2080
Width: 403
Flags: HW
LayerCount: 2
Fore
SplineSet
320 400 m 2
 337 400 358 401 363 405 c 0
 369 410 379 414 382 414 c 0
 386 414 393 408 393 399 c 0
 393 385 389 369 389 352 c 0
 389 336 390 320 391 306 c 0
 392 297 387 284 378 284 c 0
 368 284 362 301 361 309 c 0
 359 332 343 362 325 362 c 2
 245 362 l 2
 231 362 230 343 230 330 c 2
 230 64 l 2
 230 36 254 30 274 24 c 0
 285 20 297 16 297 6 c 0
 297 -2 281 -3 274 -3 c 0
 235 -3 231 2 196 2 c 0
 161 2 157 -3 118 -3 c 0
 111 -3 95 -2 95 6 c 0
 95 16 107 20 118 24 c 0
 138 30 160 36 160 65 c 2
 160 330 l 2
 160 342 159 362 148 362 c 2
 84 362 l 2
 66 362 57 341 44 309 c 0
 41 302 29 284 19 284 c 0
 13 284 12 289 12 295 c 0
 12 299 12 303 13 306 c 0
 18 324 25 371 25 396 c 0
 25 406 36 414 40 414 c 0
 43 414 49 410 55 405 c 0
 60 401 81 400 98 400 c 2
 320 400 l 2
EndSplineSet
EndChar
StartChar: uni044A
Encoding: 1098 1098 2088
Width: 454
Flags: HW
LayerCount: 2
Fore
SplineSet
104 364 m 0
 75 364 68 352 46 311 c 0
 42 304 29 286 19 286 c 0
 13 286 12 291 12 297 c 0
 12 301 12 305 13 308 c 0
 18 327 26 373 26 398 c 0
 26 408 37 416 41 416 c 0
 44 416 50 412 56 407 c 0
 62 402 74 401 92 401 c 2
 172 401 l 2
 207 401 208 403 246 403 c 0
 254 403 270 402 270 394 c 0
 270 384 258 380 247 376 c 0
 227 370 209 364 209 337 c 2
 209 236 l 2
 209 231 215 228 219 230 c 0
 231 236 267 238 286 238 c 0
 330 238 424 211 424 131 c 0
 424 25 346 -3 253 -3 c 0
 214 -3 210 2 175 2 c 0
 140 2 136 -3 98 -3 c 0
 90 -3 74 -2 74 6 c 0
 74 16 86 20 97 24 c 0
 117 30 139 35 139 63 c 2
 139 337 l 2
 139 364 138 364 104 364 c 0
218 203 m 0
 208 196 209 182 209 177 c 2
 209 73 l 2
 209 45 237 25 256 25 c 0
 306 25 351 66 351 114 c 0
 351 180 320 210 256 210 c 0
 240 210 224 207 218 203 c 0
EndSplineSet
EndChar

StartChar: uni044D
Encoding: 1101 1101 2091
Width: 398
Flags: HW
LayerCount: 2
Fore
SplineSet
82 341 m 0
 60 322 56 279 43 279 c 0
 32 279 32 289 32 302 c 0
 32 328 35 343 44 372 c 0
 47 382 54 383 63 387 c 0
 87 398 114 413 188 413 c 0
 289 413 363 322 363 219 c 0
 363 99 284 -14 164 -14 c 0
 121 -14 94 -8 54 16 c 0
 36 27 30 36 30 74 c 0
 30 88 33 101 42 101 c 0
 51 101 63 80 68 75 c 0
 106 32 135 22 179 22 c 0
 246 22 289 86 289 186 c 0
 289 192 285 199 282 195 c 0
 267 175 244 167 231 167 c 0
 197 167 179 190 146 190 c 0
 123 190 98 172 88 172 c 0
 82 172 76 173 76 181 c 0
 76 191 121 237 149 237 c 0
 174 237 215 215 245 215 c 0
 267 215 273 218 279 222 c 0
 283 224 289 229 289 233 c 0
 289 324 244 368 157 368 c 0
 115 368 101 358 82 341 c 0
EndSplineSet
EndChar
StartChar: uni0450
Encoding: 1104 1104 2094
Width: 388
Flags: HW
LayerCount: 2
Fore
SplineSet
212 478 m 0
 181 511 94 612 94 626 c 0
 94 642 118 649 143 649 c 0
 153 649 164 641 170 631 c 0
 189 598 251 484 251 469 c 0
 251 460 251 456 242 456 c 0
 234 456 220 469 212 478 c 0
229 414 m 0
 310 414 358 376 358 323 c 0
 358 290 351 275 337 268 c 0
 323 261 303 257 281 257 c 2
 117 257 l 2
 101 257 92 254 92 220 c 0
 92 130 153 46 243 46 c 0
 268 46 311 56 337 90 c 0
 340 93 345 97 348 97 c 0
 355 97 356 85 354 77 c 0
 344 42 290 -14 198 -14 c 0
 107 -14 30 70 30 203 c 0
 30 316 116 414 229 414 c 0
213 383 m 0
 157 383 111 329 111 303 c 0
 111 295 116 288 130 288 c 2
 212 288 l 2
 241 288 264 289 285 293 c 0
 292 294 295 310 295 321 c 0
 295 361 252 383 213 383 c 0
EndSplineSet
EndChar

StartChar: uni0455
Encoding: 1109 1109 2099
Width: 323
Flags: HW
LayerCount: 2
Fore
SplineSet
176 388 m 0
 138 388 113 362 113 322 c 0
 113 282 166 251 198 231 c 0
 228 212 293 172 293 106 c 0
 293 37 260 -14 149 -14 c 0
 95 -14 49 9 43 22 c 0
 36 36 31 60 30 83 c 0
 30 89 39 92 47 92 c 0
 54 92 61 90 62 85 c 0
 69 51 114 13 155 13 c 0
 203 13 225 43 225 83 c 0
 225 119 193 143 149 174 c 0
 101 208 53 247 53 296 c 0
 53 353 89 414 187 414 c 0
 227 414 252 401 262 391 c 1
 274 376 279 341 279 313 c 0
 279 310 277 309 273 309 c 0
 263 309 239 321 239 330 c 0
 238 358 209 388 176 388 c 0
EndSplineSet
EndChar

StartChar: uni0456
Encoding: 1110 1110 2100
Width: 245
Flags: HW
LayerCount: 2
Fore
SplineSet
68 563 m 0
 68 592 90 614 118 614 c 0
 147 614 169 592 169 563 c 0
 169 535 147 513 118 513 c 0
 90 513 68 535 68 563 c 0
162 434 m 0
 166 434 169 432 169 429 c 0
 165 388 160 339 160 294 c 2
 160 62 l 2
 160 35 183 30 203 24 c 0
 214 20 226 16 226 6 c 0
 226 -2 215 -3 206 -3 c 0
 168 -3 160 2 125 2 c 0
 90 2 83 -3 44 -3 c 0
 36 -3 24 -2 24 6 c 0
 24 16 36 20 47 24 c 0
 67 30 90 35 90 62 c 2
 90 279 l 2
 90 315 77 345 43 352 c 0
 38 353 35 359 35 365 c 0
 35 370 38 376 42 377 c 0
 109 393 154 434 162 434 c 0
EndSplineSet
EndChar
StartChar: uni2010
Encoding: 8208 8208 815
Width: 386
VWidth: 982
Flags: HW
LayerCount: 2
Fore
SplineSet
320 271 m 2
 334 272 351 266 351 243 c 8
 351 220 341 195 318 194 c 2
 99 176 l 2
 65 173 45 175 45 195 c 0
 45 214 56 249 82 252 c 2
 320 271 l 2
EndSplineSet
Substitution2: "'case' Case-Sensitive Forms lookup 5 subtable" uni2010.cap
EndChar
StartChar: uni2016
Encoding: 8214 8214 264
Width: 292
VWidth: 982
Flags: HW
VStem: 55 47<-215.115 605.902> 190 47<-215.115 605.902>
LayerCount: 2
Fore
SplineSet
190 574 m 2
 190 594 210 610 227 610 c 0
 236 610 237 603 237 574 c 2
 237 -188 l 2
 237 -205 218 -218 202 -218 c 0
 192 -218 190 -210 190 -190 c 2
 190 574 l 2
55 574 m 2
 55 594 75 610 92 610 c 0
 101 610 102 603 102 574 c 2
 102 -188 l 2
 102 -205 83 -218 67 -218 c 0
 57 -218 55 -210 55 -190 c 2
 55 574 l 2
EndSplineSet
Substitution2: "sups subtable" uni2016.sups
Substitution2: "sinf subtable" uni2016.sinf
Substitution2: "ordn subtable" uni2016.ordn
Substitution2: "subs subtable" uni2016.subs
EndChar
StartChar: uni2767
Encoding: 10087 10087 241
Width: 1385
VWidth: 982
Flags: HW
HStem: -101 53<185.929 281.041> -59 106<645 817.5> 160 73<414.011 470.775> 209 78<1249.06 1341.99> 349 145<652 799.5> 609 100<209.022 315.944>
VStem: 43 140<-34.0072 72.4607> 79 62<349.611 519.5> 371 33<74.4661 153.969> 815 532<213.496 339>
LayerCount: 2
Fore
SplineSet
214 -101 m 0xadc0
 143 -101 43 -55 43 27 c 0
 43 68 71 108 121 108 c 0
 157 108 200 98 200 62 c 0
 200 33 183 8 183 -10 c 0xaec0
 183 -32 194 -48 230 -48 c 0
 284 -48 371 53 371 143 c 0
 371 179 352 191 330 193 c 0
 188 205 79 309 79 458 c 0
 79 581 178 709 258 709 c 0
 290 709 336 686 336 651 c 0
 336 627 306 613 280 609 c 0
 220 600 186 584 186 549 c 0
 186 528 213 509 263 487 c 0
 323 460 387 377 411 263 c 0
 415 243 432 233 445 233 c 0xadc0
 457 233 477 255 482 282 c 0
 497 359 588 494 716 494 c 0
 776 494 829 446 859 388 c 0
 866 374 873 369 886 369 c 0
 912 369 1030 396 1049 396 c 0
 1121 396 1217 366 1244 315 c 0
 1252 300 1280 287 1318 287 c 0
 1336 287 1347 280 1347 266 c 0
 1347 231 1339 215 1318 209 c 0
 1289 201 1261 201 1247 197 c 0
 1239 195 1226 181 1216 149 c 0
 1210 130 1191 117 1167 108 c 0
 1105 85 1037 77 958 77 c 0
 911 77 907 52 886 27 c 0
 839 -29 778 -59 697 -59 c 0x5dc0
 593 -59 487 50 487 114 c 0
 487 140 466 160 440 160 c 0
 422 160 404 148 404 132 c 0
 404 21 324 -101 214 -101 c 0xadc0
835 71 m 0
 835 96 794 135 794 188 c 0
 794 277 815 310 815 334 c 0
 815 344 805 349 794 349 c 0
 744 349 699 290 699 221 c 0
 699 151 743 47 809 47 c 0x4cc0
 826 47 835 57 835 71 c 0
347 269 m 0
 347 352 236 461 176 461 c 0
 148 461 141 426 141 394 c 0x0dc0
 141 322 261 239 322 239 c 0
 337 239 347 249 347 269 c 0
EndSplineSet
EndChar
StartChar: uniA751
Encoding: 42833 42833 229
Width: 445
VWidth: 982
Flags: HW
HStem: -273 46<161.75 258.065> -260 46<4.00195 61.6411> -189 96<-132.842 -82.8566> -136 43<-74.73 65 148 376.982> -6 51<165.062 279.5> 378 52<190.056 285.598>
VStem: 65 83<-210.6 -136 -93 5.99634 63.158 341.382> 333 92<146.928 322.944>
LayerCount: 2
Fore
SplineSet
-14 -136 m 2x5f
 -56 -136 -69 -144 -87 -175 c 0
 -92 -184 -98 -189 -108 -189 c 0
 -122 -189 -141 -170 -141 -123 c 0
 -141 -103 -127 -93 -104 -93 c 2x2f
 65 -93 l 1
 65 302 l 2
 65 319 48 344 24 353 c 0
 13 357 3 363 3 374 c 0
 3 385 19 393 32 399 c 0
 43 405 126 438 136 438 c 0
 148 438 148 429 148 410 c 2
 148 392 l 1
 149 387 154 382 162 390 c 0
 178 406 230 430 275 430 c 0
 358 430 425 341 425 257 c 0
 425 121 330 -6 197 -6 c 0
 177 -6 162 6 158 6 c 0
 149 6 148 1 148 -8 c 2
 148 -93 l 1
 306 -93 l 2
 353 -93 377 -97 377 -115 c 0
 377 -130 361 -136 336 -136 c 2
 148 -136 l 1
 148 -169 l 2
 148 -204 162 -212 216 -227 c 0
 243 -235 259 -243 259 -253 c 0
 259 -263 251 -273 225 -273 c 0x9f
 191 -273 131 -260 38 -260 c 0
 12 -260 3 -250 3 -240 c 0
 3 -230 20 -222 47 -214 c 0
 60 -210 65 -186 65 -161 c 2
 65 -136 l 1
 -14 -136 l 2x5f
148 294 m 2
 148 107 l 2
 148 70 183 45 220 45 c 0
 298 45 333 129 333 211 c 0
 333 294 310 378 223 378 c 0
 178 378 148 338 148 294 c 2
EndSplineSet
EndChar
StartChar: uniA753
Encoding: 42835 42835 230
Width: 662
VWidth: 982
Flags: HW
HStem: -273 46<378.75 475.065> -260 46<221.002 278.641> -257 64<-74.2115 26.3698> -6 51<374.293 496.5> 74 50<129.225 280.661> 378 52<407.056 502.598>
VStem: 23 79<-149.608 35.78> 37 67<-184.99 -32.3299> 282 83<-210.6 5.99634 56 60.3815 109 341.382> 550 92<146.928 322.944>
LayerCount: 2
Fore
SplineSet
365 294 m 2x1cc0
 365 93 l 2
 365 56 400 45 437 45 c 0
 515 45 550 129 550 211 c 0
 550 294 527 378 440 378 c 0
 395 378 365 338 365 294 c 2x1cc0
282 53 m 1
 250 65 213 74 168 74 c 0
 116 74 102 16 102 -40 c 0x5ec0
 102 -80 104 -111 104 -142 c 0
 104 -177 24 -257 -36 -257 c 0
 -63 -257 -94 -240 -94 -210 c 0
 -94 -195 -80 -181 -64 -181 c 0
 -47 -181 -25 -193 3 -193 c 0
 21 -193 37 -179 37 -161 c 0x3dc0
 37 -111 23 -80 23 -20 c 0
 23 51 138 124 208 124 c 0
 230 124 257 118 282 109 c 1
 282 302 l 2
 282 319 265 344 241 353 c 0
 230 357 220 363 220 374 c 0
 220 385 236 393 249 399 c 0
 260 405 343 438 353 438 c 0
 365 438 365 429 365 410 c 2
 365 392 l 1
 366 387 371 382 379 390 c 0
 395 406 447 430 492 430 c 0
 575 430 642 341 642 257 c 0
 642 121 547 -6 414 -6 c 0
 394 -6 379 6 375 6 c 0
 366 6 365 1 365 -8 c 2
 365 -169 l 2
 365 -204 379 -212 433 -227 c 0
 460 -235 476 -243 476 -253 c 0
 476 -263 468 -273 442 -273 c 0x9ec0
 408 -273 348 -260 255 -260 c 0
 229 -260 220 -250 220 -240 c 0
 220 -230 237 -222 264 -214 c 0x5ec0
 277 -210 282 -186 282 -161 c 2
 282 53 l 1
EndSplineSet
EndChar

StartChar: uniA770
Encoding: 42864 42864 246
Width: 294
VWidth: 982
Flags: HW
HStem: 327 157<47.5 169.5> 327 55<23.091 115.685> 625 36<121.232 184.867>
VStem: 38 71<492.781 617.135> 203 63<495.404 611.479>
LayerCount: 2
Fore
SplineSet
145 661 m 0x78
 208 661 266 617 266 554 c 0
 266 394 107 327 59 327 c 0xb8
 36 327 22 334 22 353 c 0
 22 371 37 376 65 382 c 0
 96 389 123 403 140 427 c 0
 145 434 141 443 129 445 c 0
 94 451 38 489 38 563 c 0
 38 620 88 661 145 661 c 0x78
109 531 m 0
 109 518 131 484 147 484 c 0
 192 484 203 509 203 571 c 0
 203 589 176 625 158 625 c 0
 113 625 109 586 109 531 c 0
EndSplineSet
EndChar
StartChar: uniE00C
Encoding: 57356 57356 237
Width: 656
VWidth: 982
Flags: HW
HStem: -272 46<248.002 321.736> -258 46<428.637 486.14> -8 45<197.902 317.257> 27 88<476.494 541.93> 232 121<497.313 587> 387 43<159.422 283.215> 397 20<403 414> 490 193
VStem: 22 92<130.89 301.441> 215 157 339 83<-209.81 13.9177 51.2877 334.607> 479 123<247.437 335.066> 559 77<-69.9325 11.2483>
LayerCount: 2
Fore
SplineSet
522 115 m 0x1988
 584 115 636 65 636 5 c 0
 636 -61 559 -174 500 -174 c 0
 491 -174 486 -169 486 -161 c 0
 486 -144 559 -99 559 -50 c 0
 559 -13 542 21 510 27 c 0
 485 31 466 40 466 63 c 0
 466 94 493 115 522 115 c 0x1988
548 353 m 0
 580 353 602 323 602 291 c 0
 602 256 570 232 535 232 c 0
 504 232 479 257 479 288 c 0x0990
 479 325 511 353 548 353 c 0
EndSplineSet
Refer: 231 57374 N 1 0 0 1 0 0 2
EndChar

StartChar: uniFB04
Encoding: 64260 64260 199
Width: 801
VWidth: 982
Flags: HW
HStem: -2 46<16.002 85.6687 186.499 241.552 289.763 345.182 439.085 503.998 553.002 617.788 716.331 785.065> 355 57<180.004 349.958 433.026 622> 593 56<224.982 335.944> 634 56<487.356 598.027> 661 20G<690.5 699>
VStem: 97 83<53.0419 351.063 410 519.357> 350 83<46.8919 355 412 578.351> 622 83<53.0419 355 412 609.216>
LayerCount: 2
Fore
SplineSet
575 690 m 0xd7
 593 690 614 684 632 674 c 0
 636 672 643 670 648 671 c 0
 669 677 688 681 693 681 c 0
 705 681 705 673 705 654 c 2
 705 108 l 2
 705 83 716 52 743 44 c 0
 770 36 786 28 786 18 c 0
 786 8 778 -2 752 -2 c 0
 730 -2 680 4 664 4 c 0
 644 4 609 -2 587 -2 c 0
 561 -2 552 8 552 18 c 0
 552 28 569 36 596 44 c 0
 623 52 622 83 622 108 c 2
 622 355 l 1
 449 355 l 2
 437 355 433 346 433 332 c 2
 433 108 l 2
 433 71 441 50 461 44 c 0
 488 36 505 28 505 18 c 0
 505 8 496 -2 470 -2 c 0
 448 -2 407 4 391 4 c 0
 374 4 341 -2 319 -2 c 0
 293 -2 289 8 289 18 c 0
 289 28 301 36 328 44 c 0
 347 50 350 83 350 108 c 2
 350 332 l 2
 350 352 344 355 334 355 c 2
 204 355 l 2
 178 355 180 346 180 332 c 2
 180 108 l 2
 180 61 194 49 209 44 c 0
 236 36 242 28 242 18 c 0
 242 8 239 -2 213 -2 c 0
 191 -2 154 4 138 4 c 0
 118 4 72 -2 50 -2 c 0
 24 -2 15 8 15 18 c 0
 15 28 32 36 59 44 c 0
 86 52 97 83 97 108 c 2
 97 338 l 2
 97 346 92 352 55 352 c 0
 46 352 23 356 23 366 c 0
 23 380 57 396 84 406 c 0
 95 410 97 424 97 435 c 0
 97 536 195 649 313 649 c 0xef
 332 649 354 644 384 630 c 0
 396 624 411 615 416 615 c 0
 421 615 423 621 444 639 c 0
 481 671 525 690 575 690 c 0xd7
622 412 m 1
 622 550 l 2
 622 574 617 586 602 607 c 0
 591 623 570 634 541 634 c 0xd7
 473 634 433 584 433 525 c 2
 433 428 l 2
 433 413 442 412 455 412 c 2
 622 412 l 1
180 426 m 2
 180 406 185 410 193 410 c 2
 333 410 l 2
 354 410 350 412 350 420 c 0
 350 472 356 506 358 511 c 0
 362 524 361 526 357 535 c 0
 339 578 319 593 279 593 c 0xe7
 219 593 180 552 180 473 c 2
 180 426 l 2
EndSplineSet
EndChar
StartChar: G.subs
Encoding: 1114356 -1 1039
Width: 467
Flags: HW
LayerCount: 2
Fore
SplineSet
404 374 m 0
 408 349 411 323 411 307 c 0
 411 301 406 295 401 295 c 0
 392 295 389 304 386 311 c 0
 381 324 376 332 366 343 c 0
 358 353 325 375 263 375 c 0
 160 375 89 286 89 191 c 0
 89 98 160 14 261 14 c 0
 294 14 324 27 335 34 c 0
 351 44 363 61 363 82 c 0
 363 92 364 106 364 117 c 0
 364 125 364 132 361 135 c 0
 350 148 310 154 297 154 c 0
 294 154 284 158 284 164 c 0
 284 170 294 174 297 174 c 0
 329 174 343 172 379 172 c 0
 402 172 414 174 437 174 c 0
 440 174 450 172 450 164 c 0
 450 159 440 155 437 154 c 0
 418 149 413 140 410 124 c 0
 406 101 406 87 406 63 c 0
 406 59 408 57 410 53 c 0
 413 49 419 46 419 43 c 0
 419 40 415 34 410 32 c 0
 371 12 310 -8 259 -8 c 0
 133 -8 29 84 29 200 c 0
 29 316 143 398 268 398 c 0
 300 398 403 383 404 374 c 0
EndSplineSet
EndChar
StartChar: H.subs
Encoding: 1114357 -1 1040
Width: 540
Flags: HW
LayerCount: 2
Fore
SplineSet
465 60 m 1
 466 31 468 19 500 14 c 0
 515 12 522 9 522 4 c 0
 522 -1 514 -3 503 -3 c 0
 468 -3 462 0 436 0 c 0
 409 0 401 -3 366 -3 c 0
 355 -3 347 -1 347 4 c 0
 347 9 354 12 369 14 c 0
 396 19 413 32 413 58 c 2
 413 180 l 2
 413 184 412 184 410 184 c 0
 354 185 311 186 267 186 c 0
 230 186 193 185 147 184 c 0
 144 184 144 183 144 178 c 2
 144 64 l 2
 144 39 165 19 195 14 c 0
 210 12 216 9 216 4 c 0
 216 -1 209 -3 198 -3 c 0
 163 -3 152 0 122 0 c 0
 94 0 85 -3 50 -3 c 0
 39 -3 31 -1 31 4 c 0
 31 9 38 12 53 14 c 0
 85 19 92 30 92 59 c 2
 92 331 l 2
 92 359 89 368 57 373 c 0
 42 375 36 380 36 385 c 0
 36 390 44 392 55 392 c 0
 90 392 96 390 122 390 c 0
 149 390 155 392 190 392 c 0
 201 392 209 390 209 385 c 0
 209 380 203 375 188 373 c 0
 156 368 144 354 144 331 c 2
 144 214 l 2
 144 209 149 208 153 208 c 0
 208 207 249 206 292 206 c 0
 327 206 363 207 408 208 c 0
 412 208 413 210 413 215 c 0
 413 252 412 285 412 331 c 0
 412 353 402 368 370 373 c 0
 355 375 348 380 348 385 c 0
 348 390 356 392 367 392 c 0
 402 392 414 390 443 390 c 0
 466 390 467 392 502 392 c 0
 513 392 521 390 521 385 c 0
 521 380 514 375 499 373 c 0
 467 368 465 354 465 331 c 2
 465 60 l 1
EndSplineSet
EndChar

StartChar: I.subs
Encoding: 1114358 -1 1041
Width: 229
Flags: HW
LayerCount: 2
Fore
SplineSet
92 330 m 2
 92 358 80 368 48 373 c 0
 33 375 27 380 27 385 c 0
 27 390 35 392 46 392 c 0
 81 392 92 390 122 390 c 0
 150 390 157 392 192 392 c 0
 203 392 211 390 211 385 c 0
 211 380 205 375 190 373 c 0
 158 368 144 358 144 330 c 2
 144 59 l 2
 144 31 163 19 195 14 c 0
 210 12 216 9 216 4 c 0
 216 -1 209 -3 198 -3 c 0
 163 -3 152 0 122 0 c 0
 90 0 73 -3 38 -3 c 0
 27 -3 20 -1 20 4 c 0
 20 9 26 12 41 14 c 0
 73 19 92 31 92 59 c 2
 92 330 l 2
EndSplineSet
EndChar
StartChar: L.subs
Encoding: 1114361 -1 1044
Width: 379
Flags: HW
LayerCount: 2
Fore
SplineSet
133 340 m 2
 133 58 l 2
 133 33 140 21 183 21 c 2
 278 21 l 2
 281 21 303 27 315 37 c 0
 332 51 337 57 348 79 c 0
 350 84 357 97 363 97 c 0
 368 97 370 90 370 85 c 0
 370 54 355 31 352 7 c 0
 351 2 349 -3 343 -3 c 0
 256 -3 185 0 120 0 c 0
 88 0 32 -3 32 -3 c 2
 20 -3 14 0 14 4 c 0
 14 11 26 13 29 14 c 0
 63 20 81 32 81 58 c 2
 81 336 l 2
 81 365 74 368 42 373 c 0
 27 375 20 380 20 385 c 0
 20 390 28 392 39 392 c 0
 74 392 83 390 112 390 c 0
 144 390 159 392 194 392 c 0
 205 392 213 390 213 385 c 0
 213 380 206 375 191 373 c 0
 159 368 133 363 133 340 c 2
EndSplineSet
EndChar

StartChar: M.subs
Encoding: 1114362 -1 1045
Width: 552
Flags: HW
LayerCount: 2
Fore
SplineSet
105 298 m 0
 101 306 98 302 98 293 c 2
 98 62 l 2
 98 46 108 27 140 22 c 0
 155 20 161 13 161 8 c 0
 161 3 153 0 142 0 c 2
 22 0 l 2
 11 0 3 3 3 8 c 0
 3 13 10 20 25 22 c 0
 57 27 65 53 65 61 c 2
 65 318 l 2
 65 334 65 339 54 351 c 0
 41 365 29 366 13 370 c 0
 9 371 4 379 4 384 c 0
 4 390 15 393 19 393 c 2
 121 393 l 2
 133 393 151 347 158 332 c 2
 261 121 l 2
 266 110 270 108 276 119 c 2
 394 355 l 1
 405 374 414 393 424 393 c 2
 520 393 l 2
 522 393 536 391 536 384 c 0
 536 377 523 370 519 369 c 0
 497 363 473 360 473 341 c 2
 473 57 l 2
 473 32 490 27 522 22 c 0
 537 20 543 13 543 8 c 0
 543 3 535 0 524 0 c 2
 373 0 l 2
 362 0 354 3 354 8 c 0
 354 13 361 20 376 22 c 0
 401 25 409 30 409 58 c 2
 409 304 l 2
 409 317 404 315 399 304 c 2
 250 -11 l 1
 240 8 165 179 105 298 c 0
EndSplineSet
EndChar
StartChar: N.subs
Encoding: 1114363 -1 1046
Width: 503
Flags: HW
LayerCount: 2
Fore
SplineSet
370 390 m 0
 425 390 425 392 482 392 c 0
 493 392 500 390 500 385 c 0
 500 380 494 375 479 373 c 0
 447 368 437 361 437 341 c 0
 435 234 434 165 434 74 c 2
 434 8 l 2
 434 -5 430 -11 420 -11 c 0
 404 -11 391 0 384 9 c 0
 290 118 242 178 140 287 c 0
 133 295 127 298 124 298 c 0
 119 298 117 292 117 287 c 0
 115 237 110 159 110 79 c 2
 110 59 l 1
 111 37 117 19 149 14 c 0
 164 12 170 9 170 4 c 0
 170 -1 162 -3 151 -3 c 0
 116 -3 114 0 90 0 c 0
 67 0 66 -3 31 -3 c 0
 20 -3 12 -1 12 4 c 0
 12 9 19 12 34 14 c 0
 66 19 72 57 73 65 c 0
 77 97 87 210 87 307 c 0
 87 323 80 340 72 348 c 0
 60 361 53 365 28 372 c 0
 24 373 8 379 8 386 c 0
 8 393 18 395 23 395 c 0
 74 394 76 392 123 392 c 0
 131 392 133 387 138 382 c 0
 236 271 285 203 386 94 c 0
 389 91 395 82 399 82 c 0
 401 82 403 85 403 94 c 0
 403 120 402 307 401 337 c 0
 400 353 386 369 372 371 c 0
 357 373 351 378 351 383 c 0
 351 388 359 390 370 390 c 0
EndSplineSet
EndChar

StartChar: O.subs
Encoding: 1114364 -1 1047
Width: 508
Flags: HW
LayerCount: 2
Fore
SplineSet
247 375 m 0
 151 375 105 294 105 210 c 0
 105 107 164 16 260 15 c 1
 262 15 l 2
 355 15 403 102 403 183 c 0
 403 272 351 375 247 375 c 0
32 192 m 0
 32 300 110 395 252 398 c 1
 256 398 l 2
 370 398 473 320 473 201 c 0
 473 93 394 -8 252 -8 c 0
 137 -8 32 78 32 192 c 0
EndSplineSet
EndChar
StartChar: Q.subs
Encoding: 1114366 -1 1049
Width: 527
Flags: HW
LayerCount: 2
Fore
SplineSet
254 376 m 0
 159 376 96 296 96 213 c 0
 96 109 177 7 285 7 c 0
 384 7 438 110 438 194 c 0
 438 286 360 376 254 376 c 0
248 -32 m 0
 235 -22 184 4 174 6 c 0
 125 18 34 84 34 184 c 0
 34 303 131 397 266 397 c 0
 380 397 500 332 500 210 c 0
 500 68 396 22 343 0 c 0
 333 -4 327 -10 333 -17 c 0
 358 -42 379 -55 411 -77 c 0
 453 -105 474 -114 521 -115 c 1
 528 -115 l 2
 544 -115 558 -113 563 -111 c 0
 571 -108 582 -106 582 -113 c 0
 582 -120 581 -124 571 -129 c 0
 546 -142 519 -149 495 -149 c 0
 433 -149 392 -132 350 -104 c 0
 316 -82 291 -63 248 -32 c 0
EndSplineSet
EndChar
StartChar: R.subs
Encoding: 1114367 -1 1050
Width: 451
Flags: HW
LayerCount: 2
Fore
SplineSet
140 218 m 0
 140 200 152 198 171 197 c 1
 176 197 l 2
 210 197 227 208 242 221 c 0
 260 237 271 258 271 293 c 0
 271 327 257 376 184 376 c 0
 148 376 143 362 142 344 c 0
 140 301 140 266 140 218 c 0
417 -13 m 0
 380 -13 351 -6 328 20 c 0
 296 56 274 78 229 145 c 0
 222 156 214 162 201 168 c 0
 182 176 162 180 150 181 c 0
 143 182 140 176 140 169 c 2
 140 66 l 2
 140 40 151 19 183 14 c 0
 198 12 205 9 205 4 c 0
 205 -1 197 -3 186 -3 c 0
 151 -3 147 1 122 1 c 0
 89 1 73 -3 38 -3 c 0
 27 -3 19 -1 19 4 c 0
 19 9 25 12 40 14 c 0
 72 19 88 31 88 60 c 2
 88 313 l 2
 88 349 80 368 48 373 c 0
 33 375 27 380 27 385 c 0
 27 390 35 392 46 392 c 0
 81 392 82 391 109 391 c 0
 134 391 146 394 184 394 c 0
 279 394 330 358 330 293 c 0
 330 266 311 236 301 227 c 0
 287 215 262 197 254 193 c 0
 251 192 251 191 254 187 c 0
 294 131 323 86 385 35 c 0
 408 16 429 15 460 15 c 0
 466 15 470 13 470 8 c 0
 470 -9 433 -13 417 -13 c 0
EndSplineSet
EndChar
StartChar: U.subs
Encoding: 1114370 -1 1053
Width: 476
Flags: HW
LayerCount: 2
Fore
SplineSet
419 328 m 0
 414 259 415 207 413 152 c 0
 410 59 341 -8 247 -8 c 0
 122 -8 67 77 67 193 c 2
 67 328 l 2
 67 357 51 368 37 372 c 0
 22 376 16 380 16 385 c 0
 16 390 23 392 34 392 c 0
 54 392 73 390 97 390 c 0
 117 390 135 391 149 391 c 0
 160 391 168 390 168 385 c 0
 168 380 160 377 146 373 c 0
 136 370 119 353 119 329 c 2
 119 176 l 2
 119 97 176 22 262 22 c 0
 345 22 385 86 385 180 c 0
 385 206 383 261 382 307 c 0
 381 338 374 367 356 372 c 0
 347 374 334 379 334 384 c 0
 334 389 342 391 353 391 c 0
 373 391 383 390 402 390 c 0
 423 390 439 392 454 392 c 0
 465 392 473 390 473 385 c 0
 473 380 467 376 452 373 c 0
 429 369 420 352 419 328 c 0
EndSplineSet
EndChar
StartChar: V.subs
Encoding: 1114371 -1 1054
Width: 436
Flags: HW
LayerCount: 2
Fore
SplineSet
352 312 m 2
 228 36 l 2
 220 18 210 -9 205 -9 c 0
 202 -9 193 17 186 34 c 2
 73 313 l 2
 62 341 43 366 21 372 c 0
 7 376 0 380 0 385 c 0
 0 390 8 392 19 392 c 0
 39 392 65 390 95 390 c 0
 122 390 150 391 164 391 c 0
 175 391 183 390 183 385 c 0
 183 380 177 377 162 373 c 0
 144 369 129 352 129 328 c 0
 129 320 130 311 134 302 c 2
 209 118 l 2
 214 107 217 101 221 101 c 0
 224 101 228 107 233 118 c 2
 318 313 l 2
 320 317 320 321 320 325 c 0
 320 346 301 368 286 372 c 0
 277 374 265 379 265 384 c 0
 265 389 272 391 283 391 c 0
 303 391 329 390 359 390 c 0
 383 390 407 392 422 392 c 0
 433 392 441 390 441 385 c 0
 441 380 434 376 419 373 c 0
 387 366 362 334 352 312 c 2
EndSplineSet
EndChar

StartChar: acutecomb.cap
Encoding: 1114135 -1 703
Width: 0
Flags: HW
HStem: 685 153
VStem: 6 167
AnchorPoint: "top_accent" 48 705 mark 0
AnchorPoint: "top_stack" 52 710 mark 0
LayerCount: 2
Fore
SplineSet
12 685 m 0
 8 685 6 688 6 691 c 0
 6 695 8 701 11 706 c 0
 35 746 55 786 82 825 c 0
 89 835 98 838 109 838 c 0
 123 838 173 829 173 815 c 0
 173 808 169 804 160 796 c 0
 120 762 70 724 30 694 c 0
 21 687 15 685 12 685 c 0
EndSplineSet
EndChar
StartChar: acutecomb.capstack
Encoding: 1114158 -1 726
Width: 0
Flags: HW
HStem: 710 21G<12.5 16.5> 755 59<92.1727 148.216>
VStem: 5 160
AnchorPoint: "acutestack" 0 710 mark 0
LayerCount: 2
Fore
SplineSet
5 716 m 0
 5 721 7 725 13 731 c 0
 28 745 75 790 99 808 c 0
 105 812 110 814 115 814 c 0
 126 814 165 781 165 770 c 0
 165 765 158 760 147 755 c 0
 107 738 64 723 33 713 c 0
 27 711 18 710 15 710 c 0
 10 710 5 712 5 716 c 0
EndSplineSet
EndChar

StartChar: acutecomb.grksc
Encoding: 1114998 -1 1707
Width: 1000
Flags: HW
LayerCount: 2
Fore
SplineSet
47 478 m 0
 41 468 31 456 23 456 c 0
 14 456 14 460 14 469 c 0
 14 487 45 609 55 645 c 0
 58 657 72 663 80 663 c 0
 99 663 118 638 118 622 c 0
 118 612 68 514 47 478 c 0
EndSplineSet
EndChar

StartChar: acutecomb.stack
Encoding: 1114167 -1 735
Width: 0
Flags: HW
HStem: 456 167
VStem: 16 109
AnchorPoint: "acutestack" 32 456 mark 0
LayerCount: 2
Fore
SplineSet
43 471 m 0
 37 465 26 456 21 456 c 0
 16 456 16 459 16 464 c 0
 16 479 48 596 53 605 c 0
 59 615 66 623 76 623 c 0
 86 623 125 608 125 593 c 0
 125 581 50 478 43 471 c 0
EndSplineSet
Substitution2: "Smallcaps subtable" acutecomb.stacksc
EndChar

StartChar: asciitilde.subs
Encoding: 1114411 -1 1094
Width: 500
Flags: HW
LayerCount: 2
Fore
SplineSet
131 286 m 0
 165 286 203 250 253 250 c 0
 273 250 315 269 328 285 c 0
 329 286 329 286 330 286 c 0
 333 286 338 278 338 274 c 2
 338 272 l 1
 328 252 281 195 244 195 c 0
 208 195 158 231 118 231 c 0
 101 231 61 210 49 196 c 0
 46 193 38 203 38 208 c 0
 38 238 109 286 131 286 c 0
EndSplineSet
EndChar

StartChar: asterisk.subs
Encoding: 1114337 -1 1020
Width: 172
Flags: HW
LayerCount: 2
Fore
SplineSet
74 311 m 1
 50 312 10 316 10 326 c 0
 10 336 48 338 72 337 c 1
 66 360 59 396 69 399 c 0
 79 402 91 366 97 343 c 1
 117 356 152 374 157 365 c 0
 162 356 133 337 113 324 c 1
 132 308 160 280 153 272 c 0
 146 264 115 288 96 304 c 1
 88 281 71 246 61 249 c 0
 51 252 66 288 74 311 c 1
EndSplineSet
EndChar
StartChar: b.sc
Encoding: 1114716 -1 1423
Width: 457
Flags: W
HStem: -2 56<46.2333 111.729 213.989 306.934> 221 46<202.391 298.051> 404 57<119.133 301.841> 414 39<34.1293 102.399>
VStem: 116 86<66.749 220.553 267.049 400.445> 319 85<297.885 386.209> 328 99<74.6819 197.974>
AnchorPoint: "below_accent" 198 -80 basechar 0
AnchorPoint: "top_accent" 198 630 basechar 0
AnchorPoint: "ogonek" 195 15 basechar 0
AnchorPoint: "cedilla" 173 15 basechar 0
LayerCount: 2
Fore
SplineSet
156 4 m 0xea
 109 4 70 -2 63 -2 c 0
 52 -1 30 5 30 15 c 0
 30 30 63 39 85 49 c 0
 119 64 116 92 116 129 c 2
 116 344 l 2
 116 401 107 398 50 414 c 0
 41 417 34 426 34 435 c 0
 34 447 54 453 69 453 c 0xda
 108 453 160 461 202 461 c 0
 301 461 404 446 404 355 c 0xec
 404 306 367.934 275.576 321 263 c 0
 311.341 260.412 314.135 252.721 325 251 c 0
 382.286 241.927 427 193 427 137 c 0
 427 57 342 -2 262 -2 c 0
 233 -2 204 4 156 4 c 0xea
202 354 m 2
 202 296 l 2
 202 284 204 267 225 267 c 0
 274 267 319 279 319 350 c 0
 319 383.26 277 404 239 404 c 0xec
 215 404 202 401 202 354 c 2
202 201 m 2
 202 115 l 2
 202 78 226 54 263 54 c 0
 302 54 328 90 328 139 c 0xca
 328 202 286 221 232 221 c 0
 213 221 202 215 202 201 c 2
EndSplineSet
EndChar
StartChar: backslash.subs
Encoding: 1114377 -1 1060
Width: 259
Flags: HW
LayerCount: 2
Fore
SplineSet
251 -28 m 2
 254 -35 240 -37 232 -37 c 0
 223 -37 216 -36 212 -28 c 2
 19 389 l 2
 16 396 28 399 35 399 c 0
 45 399 54 398 58 389 c 2
 251 -28 l 2
EndSplineSet
EndChar

StartChar: bar.subs
Encoding: 1114409 -1 1092
Width: 169
Flags: HW
LayerCount: 2
Fore
SplineSet
61 380 m 2
 61 395 91 399 95 399 c 0
 100 399 108 397 108 391 c 2
 108 -94 l 2
 108 -109 79 -108 73 -108 c 0
 69 -108 61 -106 61 -100 c 2
 61 380 l 2
EndSplineSet
EndChar

StartChar: comma.subs
Encoding: 1114339 -1 1022
Width: 148
Flags: HW
LayerCount: 2
Fore
SplineSet
45 17 m 0
 26 19 22 29 22 43 c 0
 22 61 42 70 60 70 c 0
 101 70 117 46 117 12 c 0
 117 -49 62 -88 27 -88 c 0
 20 -88 12 -84 12 -77 c 0
 12 -70 19 -67 25 -66 c 0
 53 -61 70 -41 70 -9 c 0
 70 5 59 16 45 17 c 0
EndSplineSet
EndChar
StartChar: d.sc
Encoding: 1114718 -1 1425
Width: 579
Flags: W
HStem: 0 48<36.8522 108.571 226.125 371.56> 410 53<130.135 358.408> 414 39<34.1293 103.475>
VStem: 116 86<72.4655 400.286> 447 100<160.927 322.665>
AnchorPoint: "below_accent" 282 -80 basechar 0
AnchorPoint: "top_accent" 282 630 basechar 0
AnchorPoint: "cedilla" 307 15 basechar 0
LayerCount: 2
Fore
SplineSet
156 4 m 0xd8
 108.99 4 70 -2 63 -2 c 0
 52 -1 30 5 30 15 c 0
 30 30 63 39 85 49 c 0
 119 64 116 92 116 129 c 2
 116 344 l 2
 116 401 107 398 50 414 c 0
 41 417 34 426 34 435 c 0
 34 447 54 453 69 453 c 0xb8
 129.958 453 192 463 270 463 c 0
 400 463 547 401 547 271 c 0
 547 116 434 0 287 0 c 0
 257 0 180 4 156 4 c 0xd8
202 348 m 2
 202 122.5 l 2
 202 81.5 234 48 299 48 c 0
 400 48 447 146 447 242 c 0
 447 338 369 410 277 410 c 0xd8
 216 410 202 396 202 348 c 2
EndSplineSet
EndChar

StartChar: d.subs
Encoding: 1114385 -1 1068
Width: 313
Flags: HW
LayerCount: 2
Fore
SplineSet
221 -9 m 0
 212 -9 211 26 208 26 c 0
 207 26 170 -6 127 -6 c 0
 53 -6 7 47 7 108 c 0
 7 193 59 251 157 251 c 0
 185 251 196 243 200 243 c 0
 203 243 203 247 203 258 c 2
 203 333 l 2
 203 358 197 374 181 377 c 0
 176 378 171 384 171 390 c 0
 171 395 174 400 179 401 c 0
 225 412 251 425 261 425 c 0
 264 425 265 424 266 422 c 1
 266 415 258 394 258 340 c 2
 258 84 l 2
 258 36 262 27 274 27 c 0
 287 27 298 34 306 34 c 0
 309 34 311 28 311 22 c 0
 311 15 309 9 306 8 c 0
 274 3 230 -9 221 -9 c 0
137 222 m 0
 112 222 68 203 68 123 c 0
 68 31 111 20 139 20 c 0
 161 20 204 41 204 81 c 2
 204 158 l 2
 204 192 177 222 137 222 c 0
EndSplineSet
EndChar

StartChar: dagger.subs
Encoding: 1114418 -1 1101
Width: 440
Flags: HW
LayerCount: 2
Fore
SplineSet
165 400 m 0
 178 400 198 393 198 375 c 0
 198 330 181 307 181 262 c 0
 181 258 185 252 191 252 c 0
 223 252 243 269 277 269 c 0
 294 269 304 253 304 236 c 0
 304 220 296 203 280 203 c 0
 246 203 226 220 194 220 c 0
 183 220 181 199 181 195 c 0
 181 173 207 156 207 144 c 0
 207 130 179 141 179 -127 c 0
 179 -142 178 -164 165 -164 c 0
 150 -164 149 -143 149 -128 c 0
 149 151 123 130 123 144 c 0
 123 155 149 172 149 194 c 0
 149 198 143 220 139 220 c 0
 104 220 89 203 52 203 c 0
 36 203 26 222 26 236 c 0
 26 252 36 269 52 269 c 0
 84 269 102 252 135 252 c 0
 140 252 149 255 149 262 c 0
 149 311 132 326 132 375 c 0
 132 391 152 400 165 400 c 0
EndSplineSet
EndChar

StartChar: daggerdbl.subs
Encoding: 1114419 -1 1102
Width: 440
Flags: HW
LayerCount: 2
Fore
SplineSet
207 58 m 0
 207 47 180 31 180 9 c 0
 180 5 187 -9 191 -9 c 0
 225 -9 241 6 278 6 c 0
 293 6 300 -10 300 -24 c 0
 300 -39 293 -54 278 -54 c 0
 246 -54 228 -39 195 -39 c 0
 190 -39 180 -40 180 -47 c 0
 180 -96 198 -89 198 -138 c 0
 198 -153 178 -160 165 -160 c 0
 152 -160 132 -156 132 -138 c 0
 132 -102 150 -83 150 -47 c 0
 150 -43 144 -39 139 -39 c 0
 107 -39 89 -54 56 -54 c 0
 39 -54 30 -41 30 -24 c 0
 30 -9 37 6 53 6 c 0
 86 6 104 -9 136 -9 c 0
 145 -9 150 4 150 8 c 0
 150 30 123 46 123 58 c 0
 123 66 149 84 149 110 c 2
 149 138 l 2
 149 160 123 181 123 186 c 0
 123 197 150 212 150 233 c 0
 150 237 143 250 139 250 c 0
 105 250 89 235 52 235 c 0
 37 235 30 252 30 266 c 0
 30 281 37 296 52 296 c 0
 84 296 102 281 135 281 c 0
 140 281 147 283 147 288 c 0
 147 337 132 330 132 379 c 0
 132 394 152 400 165 400 c 0
 178 400 198 397 198 379 c 0
 198 343 183 324 183 288 c 0
 183 284 187 281 191 281 c 0
 223 281 244 296 278 296 c 0
 295 296 300 283 300 266 c 0
 300 252 297 235 281 235 c 0
 247 235 226 250 194 250 c 0
 186 250 180 238 180 234 c 0
 180 213 207 198 207 186 c 0
 207 178 181 164 181 138 c 2
 181 110 l 2
 181 88 207 63 207 58 c 0
EndSplineSet
EndChar
StartChar: egrave.subs
Encoding: 1114416 -1 1099
Width: 232
Flags: HW
LayerCount: 2
Fore
SplineSet
124 304 m 0
 118 311 60 382 60 394 c 0
 60 402 72 413 84 413 c 0
 100 413 115 407 122 396 c 0
 136 376 154 308 154 299 c 0
 154 293 149 291 142 291 c 0
 137 291 127 300 124 304 c 0
9 117 m 0
 9 192 71 251 145 251 c 0
 184 251 223 225 223 185 c 0
 223 152 219 143 200 143 c 2
 69 142 l 2
 64 142 63 138 63 134 c 0
 63 85 94 38 143 38 c 0
 165 38 185 46 202 64 c 0
 203 65 206 69 211 69 c 0
 216 69 226 57 226 51 c 0
 226 40 189 -2 126 -2 c 0
 61 -2 9 52 9 117 c 0
65 174 m 0
 64 171 67 171 73 171 c 2
 173 171 l 2
 177 171 177 176 177 183 c 0
 177 208 159 224 135 224 c 0
 104 224 75 206 65 174 c 0
EndSplineSet
EndChar
StartChar: eight.lnum
Encoding: 1114306 -1 987
Width: 452
Flags: HW
HStem: -14 40<177.745 295.959> 561 36<179.591 283.557>
VStem: 34 95<73.5729 196.475> 63 82<417.986 529.792> 320 82<395.537 528.928> 335 95<78.8106 176.666>
LayerCount: 2
Back
SplineSet
268 358 m 4
 314 396 324 444 324 505 c 4
 324 556 288 606 237 606 c 4
 186 606 137 569 137 520 c 4
 137 443 184 418 254 361 c 4
 258 358 264 355 268 358 c 4
290 337 m 4
 365 288 419 248 419 167 c 4
 419 63 320 -14 222 -14 c 4
 130 -14 45 49 45 141 c 4
 45 229 128 274 179 302 c 4
 188 307 184 308 176 315 c 4
 116 366 60 415 60 500 c 4
 60 582 155 630 242 630 c 4
 322 630 401 579 401 498 c 4
 401 450 371 420 348 400 c 4
 329 384 318 375 295 358 c 4
 278 346 279 344 290 337 c 4
189 284 m 4
 146 249 125 221 125 157 c 4
 125 87 166 15 236 15 c 4
 295 15 339 67 339 126 c 4
 339 188 279 240 221 280 c 4
 213 286 207 290 201 290 c 4
 198 290 194 288 189 284 c 4
EndSplineSet
Fore
SplineSet
268 339 m 0xd8
 306 368 320 403 320 468 c 0
 320 516 284 561 237 561 c 0
 190 561 145 530 145 483 c 0
 145 416 198 381 254 342 c 0
 258 339 264 336 268 339 c 0xd8
305 312 m 0
 371 270 430 234 430 155 c 0
 430 50 327 -14 222 -14 c 0
 129 -14 34 36 34 129 c 0xe4
 34 208 99 241 169 277 c 0
 173 279 174 283 166 290 c 0
 107 341 63 384 63 463 c 0
 63 550 154 597 242 597 c 0
 323 597 402 546 402 465 c 0
 402 393 350 363 310 333 c 0
 293 321 295 318 305 312 c 0
189 254 m 0
 152 225 129 194 129 145 c 0
 129 83 174 26 236 26 c 0
 288 26 335 64 335 114 c 0
 335 182 277 213 221 251 c 0
 213 257 207 260 201 260 c 0
 198 260 194 258 189 254 c 0
EndSplineSet
Substitution2: "'tnum' Tabular Numbers lookup 31 subtable" eight.tablining
Substitution2: "'onum' Minuskelziffern lookup 30 subtable" eight
EndChar

StartChar: eight.tablining
Encoding: 1114326 -1 1007
Width: 452
Flags: HW
HStem: -14 40<177.745 295.959> 561 36<179.591 283.557>
VStem: 34 95<73.5729 196.475> 63 82<417.986 529.792> 320 82<395.537 528.928> 335 95<78.8106 176.666>
LayerCount: 2
Fore
SplineSet
268 339 m 0xd8
 306 368 320 403 320 468 c 0
 320 516 284 561 237 561 c 0
 190 561 145 530 145 483 c 0
 145 416 198 381 254 342 c 0
 258 339 264 336 268 339 c 0xd8
305 312 m 0
 371 270 430 234 430 155 c 0
 430 50 327 -14 222 -14 c 0
 129 -14 34 36 34 129 c 0xe4
 34 208 99 241 169 277 c 0
 173 279 174 283 166 290 c 0
 107 341 63 384 63 463 c 0
 63 550 154 597 242 597 c 0
 323 597 402 546 402 465 c 0
 402 393 350 363 310 333 c 0
 293 321 295 318 305 312 c 0
189 254 m 0
 152 225 129 194 129 145 c 0
 129 83 174 26 236 26 c 0
 288 26 335 64 335 114 c 0
 335 182 277 213 221 251 c 0
 213 257 207 260 201 260 c 0
 198 260 194 258 189 254 c 0
EndSplineSet
Substitution2: "'pnum' Proportionalziffern lookup 32 subtable" eight.lnum
Substitution2: "'onum' Minuskelziffern lookup 30 subtable" eight.taboldstyle
EndChar
StartChar: emdash.cap
Encoding: 1115054 -1 2119
Width: 1000
VWidth: 982
Flags: HW
HStem: 417 68<51.7004 950.395>
LayerCount: 2
Fore
SplineSet
924 485 m 2
 954 485 960 483 960 468 c 0
 960 454 947 417 917 417 c 2
 69 417 l 2
 46 417 40 419 40 435 c 0
 40 451 59 485 89 485 c 2
 924 485 l 2
EndSplineSet
EndChar

StartChar: exclam.subs
Encoding: 1114328 -1 1011
Width: 175
Flags: HW
LayerCount: 2
Fore
SplineSet
94 64 m 0
 115 64 133 48 133 28 c 0
 133 8 115 -8 94 -8 c 0
 73 -8 55 8 55 28 c 0
 55 48 73 64 94 64 c 0
94 389 m 1
 95 389 l 2
 117 389 128 367 128 345 c 0
 128 293 115 214 105 146 c 0
 103 133 99 123 93 123 c 0
 87 123 83 129 81 146 c 0
 73 214 60 306 60 344 c 0
 60 367 71 388 94 389 c 1
EndSplineSet
EndChar
StartChar: f.short
Encoding: 1114707 -1 1395
Width: 310
VWidth: 982
Flags: HW
AnchorPoint: "below_accent" 138 -80 basechar 0
AnchorPoint: "top_accent" 267 785 basechar 0
LayerCount: 2
Fore
SplineSet
322 690 m 4
 373 690 438 642 438 605 c 4
 438 581 426 559 401 559 c 4
 377 559 364 586 349 607 c 4
 338 623 317 634 288 634 c 4
 220 634 180 584 180 525 c 6
 180 420 l 6
 180 405 189 410 202 410 c 6
 267 412 l 6
 283 412 290 399 290 389 c 4
 290 379 281 355 267 355 c 6
 196 355 l 6
 184 355 180 346 180 332 c 6
 180 108 l 6
 180 83 188 55 224 44 c 4
 251 36 268 28 268 18 c 4
 268 8 259 -2 233 -2 c 4
 211 -2 154 4 138 4 c 4
 118 4 72 -2 50 -2 c 4
 24 -2 15 8 15 18 c 4
 15 28 32 36 59 44 c 4
 86 52 97 83 97 108 c 6
 97 338 l 6
 97 346 92 352 55 352 c 4
 46 352 23 356 23 366 c 4
 23 380 56 396 84 406 c 4
 95 410 97 424 97 435 c 4
 97 573 184 690 322 690 c 4
EndSplineSet
EndChar
StartChar: f_r
Encoding: 1114117 -1 203
Width: 622
VWidth: 982
Flags: HW
HStem: -2 46<16.002 85.6687 188.543 250.31 304.763 366.061 473.857 545.09> 350 80<496.724 579.338> 355 55<44.2508 96.9348 180.026 287.437> 559 21G<389 413.5> 634 56<227.359 344.58>
VStem: 97 83<53.0419 351.063 410 544.318> 373 83<61.7399 337.805>
AnchorPoint: "below_accent" 138 -80 basechar 0
AnchorPoint: "top_accent" 267 785 basechar 0
LayerCount: 2
Fore
SplineSet
415 4 m 0xde
 396 4 356 -2 334 -2 c 0
 308 -2 304 8 304 18 c 0
 304 28 316 36 343 44 c 0
 368 51 373 83 373 108 c 2
 373 302 l 2
 373 319 356 344 332 353 c 0
 321 357 311 363 311 374 c 0
 311 385 327 393 340 399 c 0
 351 405 434 438 444 438 c 0
 456 438 456 429 456 410 c 2xbe
 456 385 l 2
 456 370 471 385 476 391 c 0
 492 408 526 430 556 430 c 0
 597 430 613 411 613 388 c 0
 613 373 599 347 583 331 c 0
 580 328 572 322 567 322 c 0
 552 322 530 350 510 350 c 0
 487 350 458 329 458 303 c 2
 456 108 l 2
 456 83 478 52 505 44 c 0
 532 36 546 28 546 18 c 0
 546 8 538 -2 512 -2 c 0
 490 -2 431 4 415 4 c 0xde
322 690 m 0
 373 690 438 642 438 605 c 0
 438 581 426 559 401 559 c 0
 377 559 364 586 349 607 c 0
 338 623 317 634 288 634 c 0
 220 634 180 584 180 525 c 2
 180 420 l 2
 180 405 189 410 202 410 c 2
 267 412 l 2
 283 412 290 399 290 389 c 0
 290 379 281 355 267 355 c 2
 196 355 l 2
 184 355 180 346 180 332 c 2
 180 108 l 2
 180 83 186 52 214 44 c 0
 240 36 251 28 251 18 c 0
 251 8 242 -2 216 -2 c 0
 194 -2 154 4 138 4 c 0
 118 4 72 -2 50 -2 c 0
 24 -2 15 8 15 18 c 0
 15 28 32 36 59 44 c 0
 86 52 97 83 97 108 c 2
 97 338 l 2
 97 346 92 352 55 352 c 0
 46 352 23 356 23 366 c 0
 23 380 56 396 84 406 c 0
 95 410 97 424 97 435 c 0
 97 573 184 690 322 690 c 0
EndSplineSet
EndChar
StartChar: five.lnum
Encoding: 1114303 -1 984
Width: 425
Flags: HW
HStem: -38 44<44.0435 174.788> 515 90<197.915 336.675>
VStem: 280 100<117.987 253.961>
LayerCount: 2
Fore
SplineSet
280 187 m 0
 280 279 183 322 93 332 c 0
 69 335 47 349 47 373 c 0
 47 410 86 501 105 542 c 0
 111 556 115 565 136 570 c 0
 194 585 323 605 349 605 c 0
 356 605 360 596 360 591 c 0
 360 571 335 518 305 515 c 0
 253 510 174 508 144 505 c 0
 130 504 104 448 103 432 c 0
 102 423 104 414 113 413 c 0
 242 402 380 339 380 209 c 0
 380 57 226 -38 79 -38 c 0
 63 -38 42 -36 42 -26 c 0
 42 -7 61 6 78 6 c 0
 192 6 280 81 280 187 c 0
EndSplineSet
Substitution2: "'tnum' Tabular Numbers lookup 31 subtable" five.tablining
Substitution2: "'onum' Minuskelziffern lookup 30 subtable" five
EndChar

StartChar: five.subs
Encoding: 1114263 -1 944
Width: 300
Flags: HW
LayerCount: 2
Fore
SplineSet
248 124 m 0
 248 66 213 34 177 14 c 0
 155 2 116 -13 74 -13 c 0
 64 -13 59 -8 59 -4 c 0
 59 2 63 12 78 12 c 0
 134 12 188 32 188 104 c 0
 188 166 107 175 67 186 c 0
 57 189 52 195 52 207 c 0
 52 231 70 278 76 294 c 0
 81 306 88 315 101 318 c 0
 140 326 191 332 236 332 c 0
 243 332 244 327 244 322 c 0
 244 318 231 283 212 281 c 0
 182 277 132 278 112 278 c 0
 101 278 87 264 87 250 c 0
 87 243 93 240 101 238 c 0
 174 220 248 207 248 124 c 0
EndSplineSet
EndChar
StartChar: four.lnum
Encoding: 1114302 -1 983
Width: 518
Flags: HW
HStem: -2 44<189.485 283.25 398.566 485.296> 175 67<121.908 279.16> 182 60<122.886 298 388.065 484> 398 20G<367.5 379.5>
VStem: 298 89<58.4003 181.875 242.023 397.812>
LayerCount: 2
Fore
SplineSet
298 100 m 2xb8
 298 173 l 2
 298 179 284 182 283 182 c 0xb8
 201 182 124 176 19 175 c 0
 14 175 9 181 9 185 c 0
 9 186 9 187 10 188 c 0
 35 219 36 217 49 235 c 2
 331 611 l 2
 346 634 359 639 382 639 c 0
 394 639 395 620 387 609 c 2
 122 251 l 2
 120 248 129 242 133 242 c 2xd8
 286 242 l 2
 291 242 298 246 298 250 c 2
 298 376 l 2
 298 390 299 394 307 398 c 0
 327 409 363 418 372 418 c 0
 387 418 387 396 387 354 c 2
 387 247 l 2
 387 244 389 241 392 241 c 2
 482 241 l 2
 488 241 493 238 493 234 c 0
 493 218 476 185 472 185 c 2
 401 185 l 2
 392 185 388 179 388 178 c 2
 388 104 l 2
 388 69 398 57 432 42 c 0
 454 32 487 30 487 15 c 0
 487 5 466 -1 455 -2 c 0
 448 -2 382 4 334 4 c 0
 287 4 228 -2 221 -2 c 0
 210 -1 188 5 188 15 c 0
 188 30 221 32 243 42 c 0
 277 57 298 65 298 100 c 2xb8
EndSplineSet
Substitution2: "'tnum' Tabular Numbers lookup 32 subtable" four.tablining
Substitution2: "'onum' Minuskelziffern lookup 31 subtable" four
EndChar
StartChar: g.sc
Encoding: 1114721 -1 1428
Width: 502
Flags: W
HStem: -10 47<216.242 339.816> 177 39<269.129 341.051 444.464 488.915> 420 50<220.393 371.618>
VStem: 39 102<126.132 315.581> 351 86<50.125 163.255>
AnchorPoint: "cedilla" 298 15 basechar 0
AnchorPoint: "below_accent" 271 -80 basechar 0
AnchorPoint: "top_accent" 298 630 basechar 0
LayerCount: 2
Fore
SplineSet
437 77 m 2
 437 41 444.096 43.3213 415 30 c 0
 376.812 12.5166 322 -10 262 -10 c 0
 137 -10 39 96 39 219 c 0
 39 358 162 470 302 470 c 0
 372 470 416.35 452.432 431 446 c 0
 443.819 440.373 451 424 451 410 c 0
 451 375.47 442 324 432 324 c 0
 415 324 406.971 338.11 395 371 c 0
 383.371 402.949 333 420 291 420 c 0
 197 420 141 323 141 227 c 0
 141 134 192 37 283 37 c 0
 317 37 351 57 351 82 c 2
 351 135 l 2
 351 158 342 161 285 177 c 0
 276 180 269 189 269 198 c 0
 269 210 289 216 304 216 c 0
 343 216 359 211 395 211 c 0
 430 211 429 216 463 216 c 0
 478 216 489 210 489 198 c 0
 489 189 481.591 179.525 474 177 c 0
 447.432 168.162 437 153 437 135 c 2
 437 77 l 2
EndSplineSet
EndChar

StartChar: g.subs
Encoding: 1114388 -1 1071
Width: 277
Flags: HW
LayerCount: 2
Fore
SplineSet
133 -112 m 0
 184 -112 212 -80 212 -46 c 0
 212 -24 192 -17 171 -13 c 0
 154 -10 125 -6 109 -6 c 0
 92 -6 81 -15 73 -25 c 0
 63 -36 55 -45 55 -63 c 0
 55 -96 80 -112 133 -112 c 0
113 225 m 0
 84 225 62 200 62 171 c 0
 62 138 80 107 117 107 c 0
 149 107 167 129 167 168 c 0
 167 199 149 225 113 225 c 0
61 -2 m 1
 39 2 19 16 19 44 c 0
 19 53 21 56 29 63 c 0
 40 73 47 80 57 94 c 1
 52 95 8 113 8 164 c 0
 8 224 64 251 121 251 c 0
 149 251 174 238 191 236 c 0
 215 232 233 231 259 231 c 0
 263 231 265 226 265 221 c 0
 265 216 263 211 259 211 c 0
 243 211 229 208 222 206 c 1
 219 199 220 195 220 186 c 0
 220 128 170 80 111 80 c 0
 97 80 88 82 82 84 c 1
 72 79 66 73 66 65 c 0
 66 48 99 41 120 39 c 0
 203 32 261 14 261 -29 c 0
 261 -95 196 -146 117 -146 c 0
 64 -146 -4 -131 -4 -82 c 0
 -4 -53 42 -32 61 -2 c 1
EndSplineSet
EndChar

StartChar: gamma.sc
Encoding: 1114212 -1 893
Width: 430
Flags: HW
LayerCount: 2
Fore
SplineSet
308 448 m 2
 370 448 379 459 386 459 c 0
 391 459 395 453 395 448 c 0
 398 412 400 364 400 343 c 0
 400 339 398 315 388 315 c 0
 377 315 372 327 368 341 c 0
 360 372 351 406 307 406 c 2
 211 406 l 2
 199 406 195 393 195 380 c 2
 195 79 l 2
 195 43 226 32 261 25 c 0
 272 23 285 19 285 9 c 0
 285 1 272 -3 265 -3 c 0
 226 -3 200 3 158 3 c 0
 116 3 89 -3 50 -3 c 0
 43 -3 30 1 30 9 c 0
 30 19 43 23 54 25 c 0
 89 32 120 43 120 79 c 2
 120 352 l 2
 120 393 104 415 62 422 c 0
 50 424 38 431 38 441 c 0
 38 449 51 453 58 453 c 0
 86 453 128 448 158 448 c 2
 308 448 l 2
EndSplineSet
EndChar
StartChar: grave.subs
Encoding: 1114381 -1 1064
Width: 181
Flags: HW
LayerCount: 2
Fore
SplineSet
116 283 m 0
 64 350 26 371 26 382 c 0
 26 390 37 398 48 398 c 0
 63 398 74 393 81 382 c 0
 95 362 142 286 142 277 c 0
 142 272 139 269 133 269 c 0
 127 269 120 279 116 283 c 0
EndSplineSet
EndChar
StartChar: gravecomb.sc
Encoding: 1114970 -1 1679
Width: 0
Flags: HW
HStem: 490 193
VStem: 8 157
AnchorPoint: "top_accent" 124 596 mark 0
LayerCount: 2
Fore
SplineSet
126 512 m 0
 95 545 8 646 8 660 c 0
 8 676 38 683 63 683 c 0
 73 683 84 675 90 665 c 0
 109 632 165 518 165 503 c 0
 165 494 165 490 156 490 c 0
 148 490 134 503 126 512 c 0
EndSplineSet
EndChar
StartChar: h.subs
Encoding: 1114389 -1 1072
Width: 332
Flags: HW
LayerCount: 2
Fore
SplineSet
281 50 m 2
 281 34 296 27 309 24 c 1
 316 21 324 16 324 10 c 0
 324 4 312 0 309 0 c 2
 202 0 l 2
 199 0 187 4 187 10 c 0
 187 16 195 21 202 24 c 1
 215 27 227 34 227 50 c 2
 227 153 l 2
 227 185 200 215 172 215 c 0
 134 215 103 193 103 150 c 2
 103 48 l 2
 103 32 114 27 127 24 c 1
 135 21 142 16 142 10 c 0
 142 4 131 0 127 0 c 2
 21 0 l 2
 18 0 6 4 6 10 c 0
 6 16 14 21 21 24 c 1
 34 27 49 32 49 48 c 2
 49 337 l 2
 49 358 42 376 20 381 c 0
 16 382 12 387 12 392 c 0
 12 397 15 402 19 403 c 0
 52 410 75 419 96 427 c 1
 97 427 l 2
 101 427 107 425 109 423 c 1
 109 416 103 406 103 341 c 2
 103 214 l 1
 125 238 160 251 195 251 c 0
 243 251 281 217 281 171 c 2
 281 50 l 2
EndSplineSet
EndChar
StartChar: hookabovecomb.cap
Encoding: 1115048 -1 2113
Width: 0
Flags: W
HStem: 683 21G<89.5 101> 812 37<58.0961 113.915>
VStem: 68 48<684.437 726.169> 116 61<751.21 811.33>
LayerCount: 2
Fore
SplineSet
29 771 m 0xd0
 11 771 5 788 5 802 c 0
 5 812 9 821 18 826 c 0
 38 838 61 849 99 849 c 0
 138 849 177 818 177 779 c 0xd0
 177 762 159 729 132 725 c 0
 119 723 116 715 116 709 c 0
 116 705 118 700 121 694 c 0
 126 685 106 683 96 683 c 0
 83 683 68 704 68 718 c 0xe0
 68 730 70 741 92 750 c 0
 106 756 116 764 116 785 c 4
 116 798 103 812 91 812 c 0
 72 812 56 796 43 770 c 0
 40 764 35 771 29 771 c 0xd0
EndSplineSet
EndChar
StartChar: hyphen.cap
Encoding: 1115049 -1 2114
Width: 386
VWidth: 982
Flags: HW
LayerCount: 2
Fore
SplineSet
320 521 m 2
 334 522 351 516 351 493 c 8
 351 470 341 445 318 444 c 2
 99 426 l 2
 65 423 45 425 45 445 c 0
 45 464 56 499 82 502 c 2
 320 521 l 2
EndSplineSet
EndChar

StartChar: iota.sc
Encoding: 1114218 -1 899
Width: 315
Flags: HW
LayerCount: 2
Fore
SplineSet
158 3 m 0
 116 3 89 -3 50 -3 c 0
 43 -3 30 1 30 9 c 0
 30 19 43 23 54 25 c 0
 89 32 120 43 120 79 c 2
 120 352 l 2
 120 393 104 415 62 422 c 0
 50 424 38 431 38 441 c 0
 38 449 51 453 58 453 c 0
 97 453 122 448 158 448 c 0
 193 448 218 453 257 453 c 0
 264 453 277 449 277 441 c 0
 277 431 265 424 253 422 c 0
 211 415 195 393 195 352 c 2
 195 79 l 2
 195 43 226 32 261 25 c 0
 272 23 285 19 285 9 c 0
 285 1 272 -3 265 -3 c 0
 226 -3 200 3 158 3 c 0
EndSplineSet
EndChar
StartChar: kappa.sc
Encoding: 1114219 -1 900
Width: 524
Flags: HW
LayerCount: 2
Fore
SplineSet
539 25 m 0
 550 23 563 19 563 9 c 0
 563 1 550 -3 543 -3 c 0
 504 -3 458 1 404 2 c 0
 384 2 393 0 354 0 c 0
 347 0 334 4 334 12 c 0
 334 22 343 24 355 30 c 0
 368 36 368 48 360 57 c 2
 223 212 l 2
 218 218 207 225 202 225 c 0
 196 225 195 211 195 206 c 2
 195 80 l 2
 195 43 204 32 239 25 c 0
 250 23 263 19 263 9 c 0
 263 1 250 -3 243 -3 c 0
 204 -3 191 3 158 3 c 0
 116 3 89 -3 50 -3 c 0
 43 -3 30 1 30 9 c 0
 30 19 43 23 54 25 c 0
 89 32 120 43 120 79 c 2
 120 352 l 2
 120 392 104 415 62 422 c 0
 50 424 38 431 38 441 c 0
 38 449 51 453 58 453 c 0
 97 453 122 448 158 448 c 0
 193 448 208 452 247 452 c 0
 254 452 267 448 267 440 c 0
 267 430 255 423 243 421 c 0
 214 417 195 390 195 351 c 2
 195 261 l 2
 195 252 197 247 202 247 c 0
 211 247 235 267 258 285 c 0
 304 321 336 350 372 390 c 0
 383 403 368 412 352 420 c 0
 340 426 332 427 332 437 c 0
 332 445 345 449 352 449 c 0
 391 449 408 448 444 448 c 0
 479 448 509 455 520 455 c 0
 527 455 540 452 540 444 c 0
 540 434 528 426 516 424 c 0
 474 417 460 407 426 384 c 0
 390 360 319 307 281 269 c 0
 276 264 279 257 284 251 c 2
 416 106 l 2
 445 73 490 33 539 25 c 0
EndSplineSet
EndChar
StartChar: l.sc
Encoding: 1114726 -1 1433
Width: 483
Flags: W
HStem: -2 68<206.752 379.337> -2 51<38.3252 109.177> 414 39<34.1293 103.475 215.572 284.93>
VStem: 116 86<70.1788 399.85>
AnchorPoint: "cedilla" 290 15 basechar 0
AnchorPoint: "below_accent" 247 -80 basechar 0
AnchorPoint: "top_accent" 161 630 basechar 0
LayerCount: 2
Fore
SplineSet
152 4 m 0xb0
 105 4 70 -2 63 -2 c 0
 52 -1 30 5 30 15 c 0
 30 30 63 39 85 49 c 0x70
 119 64 116 92 116 129 c 2
 116 344 l 2
 116 401 107 398 50 414 c 0
 41 417 34 426 34 435 c 0
 34 447 54 453 69 453 c 0
 108 453 124 448 160 448 c 0
 195 448 216 453 250 453 c 0
 265 453 285 447 285 435 c 0
 285 426 279 417 270 414 c 0
 213 398 202 401 202 344 c 2
 202 129 l 2
 202 75 213 66 256 66 c 2
 342 66 l 2
 370 66 395.344 105.859 405 130 c 0
 409.234 140.585 420 152 430 152 c 0
 442 152 452 140 452 115 c 0
 452 103 428.578 -2 379 -2 c 0
 311.766 -2 218 4 152 4 c 0xb0
EndSplineSet
EndChar

StartChar: l.subs
Encoding: 1114393 -1 1076
Width: 162
Flags: HW
LayerCount: 2
Fore
SplineSet
108 47 m 2
 108 31 123 29 136 25 c 0
 147 22 151 16 151 10 c 0
 151 4 143 0 136 0 c 2
 26 0 l 2
 19 0 11 4 11 10 c 0
 11 16 15 22 26 25 c 0
 39 29 54 31 54 47 c 2
 54 335 l 2
 54 357 45 375 24 379 c 0
 20 380 17 385 17 390 c 0
 17 395 20 400 24 401 c 0
 57 408 78 418 99 425 c 1
 101 425 l 2
 105 425 112 423 112 421 c 0
 112 414 108 393 108 339 c 2
 108 47 l 2
EndSplineSet
EndChar

StartChar: lambda.sc
Encoding: 1114220 -1 901
Width: 549
Flags: HW
LayerCount: 2
Fore
SplineSet
147 65 m 2
 137 41 164 33 184 27 c 0
 195 23 207 19 207 9 c 0
 207 1 194 -3 187 -3 c 0
 148 -3 141 2 106 2 c 0
 71 2 69 -3 30 -3 c 0
 23 -3 10 1 10 9 c 0
 10 19 22 23 33 26 c 0
 64 33 90 36 114 92 c 2
 230 360 l 2
 244 393 239 407 242 410 c 0
 251 419 275 444 281 451 c 0
 289 460 294 463 297 463 c 0
 301 463 302 460 304 454 c 2
 439 107 l 2
 453 72 468 35 508 27 c 0
 519 25 531 19 531 9 c 0
 531 1 518 -3 511 -3 c 0
 472 -3 458 2 423 2 c 0
 388 2 367 -3 328 -3 c 0
 321 -3 308 1 308 9 c 0
 308 19 320 24 331 27 c 0
 359 34 382 37 375 58 c 2
 271 337 l 2
 265 352 263 352 257 337 c 2
 147 65 l 2
EndSplineSet
EndChar

StartChar: longs.short
Encoding: 1114710 -1 1400
Width: 286
VWidth: 982
Flags: HW
AnchorPoint: "below_accent" 141 -80 basechar 0
AnchorPoint: "top_accent" 265 785 basechar 0
LayerCount: 2
Fore
SplineSet
50 362 m 2
 40 363 23 365 23 375 c 0
 23 389 56 418 84 428 c 0
 95 432 97 438 97 449 c 0
 97 508 181 690 332 690 c 0
 414 690 466 658 466 608 c 0
 466 585 448 562 423 562 c 0
 403 562 381 577 348 605 c 0
 324 625 294 636 280 636 c 0
 200 636 180 513 180 425 c 2
 180 108 l 1
 180 83 191 52 218 44 c 0
 245 36 261 28 261 18 c 0
 261 8 253 -2 227 -2 c 0
 205 -2 155 4 139 4 c 0
 119 4 72 -2 50 -2 c 0
 24 -2 15 8 15 18 c 0
 15 28 32 36 59 44 c 0
 86 52 97 83 97 108 c 2
 98 362 l 1
 50 362 l 2
EndSplineSet
EndChar
StartChar: n.sc
Encoding: 1114728 -1 1435
Width: 539
Flags: W
HStem: -10 21G<456.5 472.5> -2 51<48.3252 119.177 198.528 260.458> 414 39<34.1293 90.8308 347.086 395.972 491.275 536.909>
VStem: 126 65<55.2266 271.891> 415 58<174 397.007>
AnchorPoint: "below_accent" 294 -80 basechar 0
AnchorPoint: "top_accent" 276 630 basechar 0
LayerCount: 2
Fore
SplineSet
415 344 m 2x78
 415 386 391.466 404.531 363 414 c 0
 354.46 416.841 347 426 347 435 c 0
 347 447 359 453 374 453 c 0
 390 453 419 448 445 448 c 0
 470 448 489 453 508 453 c 0
 523 453 537 447 537 435 c 0
 537 426 529.702 416.165 522 414 c 0
 496.007 406.694 473 381 473 346 c 2
 473 167 l 2
 473 134 480 84 480 62 c 0
 480 32.4 479 -10 466 -10 c 0xb8
 447 -10 427.063 3.59473 374 70 c 2
 199 289 l 2
 193.762 295.047 191 272 191 245 c 2
 191 129 l 2
 191 92 189 64 223 49 c 0
 245 39 266 30 266 15 c 0
 266 5 245 -1 234 -2 c 0
 227 -2 204 4 156 4 c 0
 109 4 80 -2 73 -2 c 0
 62 -1 40 5 40 15 c 0
 40 30 73 39 95 49 c 0
 129 64 126 92 126 129 c 2
 126 315 l 2
 126 335 124.229 366.793 111 379 c 0
 98.5068 390.528 80.4338 404.111 50 414 c 0
 40.4894 417.09 34 426 34 435 c 0
 34 447 54 453 69 453 c 0
 108 453 126 448 160 448 c 0
 179 448 197.534 428.305 222 398 c 2
 398 180 l 2
 406 171 415.269 152.002 415 174 c 2
 415 344 l 2x78
EndSplineSet
EndChar
StartChar: nine.subs
Encoding: 1114267 -1 948
Width: 300
Flags: HW
LayerCount: 2
Fore
SplineSet
163 338 m 0
 229 338 279 282 279 216 c 0
 279 87 132 -22 49 -22 c 0
 45 -22 38 -15 38 -11 c 0
 38 -4 45 1 50 2 c 0
 135 23 211 106 217 179 c 1
 200 164 165 143 127 143 c 0
 82 143 32 171 32 219 c 0
 32 288 94 338 163 338 c 0
219 227 m 0
 219 271 186 310 142 310 c 0
 108 310 87 276 87 242 c 0
 87 208 119 175 153 175 c 0
 184 175 219 196 219 227 c 0
EndSplineSet
EndChar
StartChar: nine.tablining
Encoding: 1114327 -1 1008
Width: 468
VWidth: 982
Flags: HW
HStem: -40 47<22.1799 83.7515> 226 48<193.11 315.72> 559 36<186.925 288.405>
VStem: 41 99<323.393 485.145> 353 99<306.198 490.411>
LayerCount: 2
Fore
SplineSet
254 595 m 0
 359 595 452 513 452 409 c 0
 452 283 312 50 155 -7 c 8
 113 -22 67 -40 46 -40 c 0
 30 -40 21 -32 21 -22 c 0
 21 -8 33 3 44 7 c 0
 128 38 293 186 316 244 c 0
 319 252 269 226 204 226 c 0
 123 226 41 309 41 401 c 0
 41 512 142 595 254 595 c 0
140 385 m 0
 140 320 199 274 275 274 c 0
 333 274 353 311 353 403 c 0
 353 483 309 559 232 559 c 0
 157 559 140 460 140 385 c 0
EndSplineSet
Substitution2: "'pnum' Proportionalziffern lookup 32 subtable" nine.lnum
Substitution2: "'onum' Minuskelziffern lookup 30 subtable" nine.taboldstyle
EndChar
StartChar: nine.taboldstyle
Encoding: 1114317 -1 998
Width: 468
VWidth: 982
Flags: HW
HStem: -143 57<52.377 119.687> 394 36<208.472 307.625>
VStem: 41 99<151.019 315.505> 353 99<143.012 335.689>
LayerCount: 2
Fore
SplineSet
267 430 m 4
 375 430 452 352 452 244 c 4
 452 118 339 -53 182 -110 c 12
 140 -125 94 -143 73 -143 c 4
 57 -143 48 -135 48 -125 c 4
 48 -111 60 -90 71 -86 c 4
 93 -78 117 -67 158 -44 c 4
 212 -13 266 31 273 48 c 4
 276 56 243 54 204 61 c 4
 108 78 41 137 41 236 c 4
 41 351 152 430 267 430 c 4
140 208 m 4
 140 140 193 90 260 90 c 4
 318 90 353 158 353 260 c 4
 353 319 324 394 264 394 c 4
 178 394 140 295 140 208 c 4
EndSplineSet
Substitution2: "'pnum' Proportionalziffern lookup 32 subtable" nine
Substitution2: "'lnum' Lining Figures lookup 29 subtable" nine.tablining
EndChar
StartChar: nu.sc
Encoding: 1114222 -1 903
Width: 600
Flags: HW
LayerCount: 2
Fore
SplineSet
500 351 m 2
 500 21 l 2
 500 1 495 -14 484 -14 c 0
 471 -14 454 -3 441 13 c 2
 194 318 l 2
 185 329 173 337 169 337 c 0
 164 337 162 329 162 310 c 0
 162 220 163 135 167 79 c 0
 170 43 183 32 218 25 c 0
 229 23 242 19 242 9 c 0
 242 1 229 -3 222 -3 c 0
 183 -3 173 3 141 3 c 0
 107 3 93 -3 54 -3 c 0
 47 -3 34 1 34 9 c 0
 34 19 47 23 58 25 c 0
 93 32 113 42 116 79 c 0
 119 109 123 277 123 308 c 0
 123 368 116 409 49 422 c 0
 37 424 25 431 25 441 c 0
 25 449 38 453 45 453 c 0
 85 453 125 449 177 449 c 0
 185 449 192 441 198 434 c 2
 437 147 l 2
 440 143 446 134 450 134 c 0
 452 134 455 137 455 147 c 2
 455 351 l 2
 455 391 439 415 397 422 c 0
 385 424 373 431 373 441 c 0
 373 449 386 453 393 453 c 0
 432 453 443 448 479 448 c 0
 514 448 516 453 555 453 c 0
 562 453 575 449 575 441 c 0
 575 431 563 424 551 422 c 0
 509 415 500 391 500 351 c 2
EndSplineSet
EndChar

StartChar: omega.sc
Encoding: 1114233 -1 914
Width: 660
Flags: HW
LayerCount: 2
Fore
SplineSet
212 73 m 0
 135 118 87 167 87 252 c 0
 87 378 208 464 334 464 c 0
 454 464 573 384 573 264 c 0
 573 173 519 115 446 73 c 0
 440 69 437 61 443 61 c 2
 520 61 l 2
 555 61 570 74 585 96 c 0
 592 105 598 118 608 118 c 0
 612 118 615 115 615 111 c 0
 615 78 600 22 593 8 c 0
 590 2 590 -4 583 -4 c 0
 562 -4 546 0 526 0 c 2
 383 0 l 2
 379 0 377 3 377 7 c 0
 377 26 388 56 397 62 c 0
 437 91 485 166 485 245 c 0
 485 340 421 435 326 435 c 0
 237 435 175 347 175 258 c 0
 175 172 198 111 266 58 c 0
 275 51 279 23 282 7 c 0
 283 4 282 0 277 0 c 2
 133 0 l 2
 113 0 97 -4 76 -4 c 0
 69 -4 68 1 66 8 c 0
 61 29 45 77 45 112 c 0
 45 116 47 119 51 119 c 0
 61 119 63 110 70 101 c 0
 85 79 93 61 129 61 c 2
 211 61 l 2
 216 61 218 69 212 73 c 0
EndSplineSet
EndChar
StartChar: one.01
Encoding: 1115030 -1 2005
Width: 283
VWidth: 982
Flags: HW
HStem: -2 46<23.002 92.6687 198.331 267.065>
VStem: 104 83<53.0419 338.32>
LayerCount: 2
Fore
SplineSet
104 292 m 2
 104 327 77 348 45 357 c 0
 33 360 23 365 23 377 c 0
 23 388 33 393 44 395 c 0
 98 405 169 433 177 433 c 0
 189 433 187 424 187 409 c 2
 187 108 l 2
 187 83 198 52 225 44 c 0
 252 36 268 28 268 18 c 0
 268 8 260 -2 234 -2 c 0
 212 -2 162 4 146 4 c 0
 126 4 79 -2 57 -2 c 0
 31 -2 22 8 22 18 c 0
 22 28 39 36 66 44 c 0
 93 52 104 83 104 108 c 2
 104 292 l 2
EndSplineSet
EndChar
StartChar: one.tablining
Encoding: 1114319 -1 1000
Width: 362
Flags: HW
HStem: -2 47<34.0383 113.49 245.237 325.136> 498 48<44.1431 110.869> 589 20G<215 219>
VStem: 134 90<66.2403 475.641>
LayerCount: 2
Fore
SplineSet
224 129 m 2
 224 93 240 60 274 45 c 0
 296 35 329 30 329 15 c 0
 329 5 308 -1 297 -2 c 0
 290 -2 224 4 176 4 c 0
 129 4 70 -2 63 -2 c 0
 52 -1 30 5 30 15 c 0
 30 30 63 35 85 45 c 0
 119 60 134 93 134 129 c 2
 134 432 l 2
 134 474 86 496 61 498 c 0
 52 499 44 512 44 522 c 0
 44 531 52 545 60 546 c 0
 118 550 175 583 211 608 c 0
 212 609 214 609 216 609 c 0
 222 609 229 605 228 600 c 0
 225 580 224 557 224 529 c 2
 224 129 l 2
EndSplineSet
Substitution2: "'pnum' Proportionalziffern lookup 32 subtable" one.lnum
Substitution2: "'onum' Minuskelziffern lookup 30 subtable" one.taboldstyle
EndChar

StartChar: paragraph.01
Encoding: 1115037 -1 2012
Width: 672
Flags: HW
HStem: -122 56<409.11 616.196> -115 45<543.988 635.654> 550 55<404.347 484.649 520 634.28>
VStem: 47 354<136.5 354.086> 467 53<-65.6836 549.729>
LayerCount: 2
Fore
SplineSet
467 532 m 2xb8
 467 546 460 550 449 550 c 0
 427 550 401 543 401 516 c 2
 401 -29 l 2
 401 -53 421 -66 446 -66 c 0
 463 -66 467 -62 467 -46 c 2
 467 532 l 2xb8
499 -122 m 0
 271 -122 47 18 47 246 c 0
 47 472 275 605 500 605 c 0
 549 605 601 602 621 599 c 0
 631 597 636 590 636 581 c 0
 636 572 628 552 620 552 c 0
 614 552 579 556 538 556 c 0
 528 556 520 547 520 538 c 2
 520 -39 l 2
 520 -61 522 -72 540 -72 c 0
 559 -72 602 -70 616 -70 c 0
 626 -70 636 -78 636 -88 c 0
 636 -101 631 -112 618 -115 c 0x78
 580 -124 510 -122 499 -122 c 0
EndSplineSet
EndChar
StartChar: paragraph.subs
Encoding: 1114414 -1 1097
Width: 433
Flags: HW
LayerCount: 2
Fore
SplineSet
281 -93 m 0
 293 -93 296 -83 296 -61 c 2
 296 105 l 2
 296 113 294 119 286 119 c 0
 184 119 88 187 88 289 c 0
 88 400 214 451 325 451 c 2
 405 451 l 2
 415 451 418 441 418 434 c 0
 418 427 410 418 404 418 c 2
 350 418 l 2
 342 418 337 412 337 405 c 2
 337 -53 l 2
 337 -103 306 -144 252 -144 c 0
 217 -144 179 -126 179 -91 c 0
 179 -63 200 -42 226 -42 c 0
 246 -42 267 -60 267 -80 c 0
 267 -87 274 -93 281 -93 c 0
EndSplineSet
EndChar
StartChar: parenright.subs
Encoding: 1114336 -1 1019
Width: 205
Flags: HW
LayerCount: 2
Fore
SplineSet
173 169 m 0
 173 67 100 -81 54 -124 c 0
 51 -127 47 -128 43 -128 c 0
 34 -128 24 -122 24 -117 c 0
 24 -115 25 -113 27 -112 c 0
 73 -69 121 58 121 160 c 0
 121 262 75 366 29 409 c 0
 26 411 25 413 25 414 c 0
 25 419 39 422 44 422 c 0
 50 422 54 420 59 416 c 0
 105 373 173 271 173 169 c 0
EndSplineSet
EndChar
StartChar: phi.sc
Encoding: 1114230 -1 911
Width: 617
Flags: HW
LayerCount: 2
Fore
SplineSet
271 52 m 1
 166 61 55 109 55 215 c 0
 55 324 162 381 271 391 c 1
 271 401 l 2
 271 421 247 429 225 433 c 0
 213 435 201 442 201 452 c 0
 201 460 214 464 221 464 c 0
 260 464 272 459 309 459 c 0
 344 459 357 464 396 464 c 0
 403 464 416 460 416 452 c 0
 416 442 404 435 392 433 c 0
 370 429 346 421 346 401 c 2
 346 391 l 1
 452 382 562 332 562 228 c 0
 562 121 455 62 346 52 c 1
 346 44 l 2
 346 22 368 16 392 12 c 0
 403 10 416 6 416 -4 c 0
 416 -12 403 -16 396 -16 c 0
 357 -16 343 -10 309 -10 c 0
 272 -10 254 -16 215 -16 c 0
 208 -16 195 -12 195 -4 c 0
 195 6 208 10 219 12 c 0
 243 17 271 22 271 44 c 2
 271 52 l 1
346 363 m 1
 346 80 l 1
 421 87 476 144 476 219 c 0
 476 295 422 356 346 363 c 1
271 82 m 1
 271 363 l 1
 199 357 144 307 144 235 c 0
 144 156 192 89 271 82 c 1
EndSplineSet
EndChar

StartChar: pi.sc
Encoding: 1114225 -1 906
Width: 630
Flags: HW
LayerCount: 2
Fore
SplineSet
231 412 m 2
 202 412 195 402 195 382 c 2
 195 79 l 2
 195 43 208 32 243 25 c 0
 254 23 267 19 267 9 c 0
 267 1 254 -3 247 -3 c 0
 208 -3 187 3 149 3 c 0
 110 3 89 -3 50 -3 c 0
 43 -3 30 1 30 9 c 0
 30 19 43 23 54 25 c 0
 89 32 120 43 120 79 c 2
 120 352 l 2
 120 393 104 415 62 422 c 0
 50 424 38 431 38 441 c 0
 38 449 51 453 58 453 c 0
 97 453 122 448 158 448 c 2
 473 448 l 2
 508 448 533 453 572 453 c 0
 579 453 592 449 592 441 c 0
 592 431 580 424 568 422 c 0
 526 415 510 393 510 352 c 2
 510 79 l 2
 510 43 541 32 576 25 c 0
 587 23 600 19 600 9 c 0
 600 1 587 -3 580 -3 c 0
 541 -3 518 3 478 3 c 0
 440 3 419 -3 380 -3 c 0
 373 -3 360 1 360 9 c 0
 360 19 373 23 384 25 c 0
 419 32 435 43 435 79 c 2
 435 384 l 2
 435 404 431 412 399 412 c 2
 231 412 l 2
EndSplineSet
EndChar

StartChar: quotesingle.subs
Encoding: 1114334 -1 1017
Width: 126
Flags: HW
LayerCount: 2
Fore
SplineSet
42 280 m 0
 42 292 43 302 43 312 c 0
 43 330 40 349 40 373 c 0
 40 389 67 406 81 406 c 0
 87 406 89 398 89 389 c 0
 89 344 69 304 59 281 c 0
 56 274 50 266 47 266 c 0
 44 266 42 275 42 280 c 0
EndSplineSet
EndChar
StartChar: r.fina
Encoding: 1114184 -1 797
Width: 1000
VWidth: 982
Flags: HW
HStem: -6 77<399.104 757.224> -2 46<35.7626 91.2055> 4 75<180.083 379.877> 350 80<220.735 305.757>
VStem: 97 83<79.3235 337.805> 894 76<145.075 276.763>
AnchorPoint: "top_accent" 189 596 basechar 0
AnchorPoint: "below_accent" 142 -80 basechar 0
LayerCount: 2
Fore
SplineSet
97 108 m 2x5c
 97 302 l 2
 97 319 80 344 56 353 c 0
 45 357 35 363 35 374 c 0
 35 385 51 393 64 399 c 0
 75 405 158 438 168 438 c 0
 180 438 180 429 180 410 c 2
 180 385 l 2
 180 370 195 385 200 391 c 0
 216 408 250 430 280 430 c 0
 321 430 337 411 337 388 c 0
 337 373 323 347 307 331 c 0
 304 328 296 322 291 322 c 0
 276 322 254 350 234 350 c 0
 211 350 182 329 182 303 c 2
 180 110 l 2
 180 77 184 79 213 79 c 0x3c
 368 79 543 71 699 71 c 0
 825 71 894 97 894 213 c 0
 894 239 887 251 887 260 c 0
 887 284 896 308 924 308 c 0
 941 308 970 280 970 236 c 0
 970 67 787 -6 585 -6 c 0x9c
 440 -6 252 4 139 4 c 0x3c
 117 4 87 -2 65 -2 c 0
 39 -2 35 8 35 18 c 0
 35 28 47 36 74 44 c 0
 92 49 97 83 97 108 c 2x5c
EndSplineSet
EndChar
StartChar: semicolon.subs
Encoding: 1114344 -1 1027
Width: 148
Flags: HW
LayerCount: 2
Fore
SplineSet
67 224 m 0
 89 224 106 207 106 185 c 0
 106 163 89 146 67 146 c 0
 45 146 28 163 28 185 c 0
 28 207 45 224 67 224 c 0
45 17 m 0
 26 19 24 29 24 43 c 0
 24 61 42 70 60 70 c 0
 101 70 117 46 117 12 c 0
 117 -49 64 -88 29 -88 c 0
 22 -88 14 -84 14 -77 c 0
 14 -70 21 -67 27 -66 c 0
 55 -61 70 -41 70 -9 c 0
 70 5 59 16 45 17 c 0
EndSplineSet
EndChar
StartChar: seven.lnum
Encoding: 1114305 -1 986
Width: 487
VWidth: 982
Flags: HW
HStem: 501 85<68.59 338.996>
VStem: 11 47<437.39 488.789>
LayerCount: 2
Back
SplineSet
377 541 m 6
 379 545 382 550 367 551 c 5
 118 551 l 6
 97 551 60 548 41 525 c 4
 36 519 25 506 15 506 c 4
 11 506 10 509 10 514 c 4
 10 521 13 531 14 536 c 4
 21 565 30 585 30 610 c 5
 31 619 37 621 40 621 c 4
 43 621 78 618 103 617 c 4
 133 616 176 616 223 616 c 4
 322 616 433 618 452 621 c 5
 453 621 l 6
 456 621 459 613 459 608 c 4
 459 592 431 555 421 538 c 6
 107 -5 l 6
 101 -16 92 -32 88 -32 c 4
 73 -32 60 -21 60 -6 c 4
 60 -2 72 19 81 35 c 6
 377 541 l 6
EndSplineSet
Fore
SplineSet
410 586 m 2
 423 586 433 583 433 562 c 0
 433 544 429 538 412 504 c 2
 145 33 l 2
 120 -12 105 -41 82 -41 c 0
 71 -41 66 -28 66 -11 c 0
 66 -6 74 15 88 39 c 2
 316 436 l 2
 320 444 339 473 339 485 c 0
 339 497 334 501 305 501 c 2
 116 501 l 2
 92 501 65 483 58 463 c 0
 53 447 39 435 26 435 c 0
 14 435 11 442 11 463 c 0
 11 473 21 498 29 519 c 8
 41 550 55 586 81 586 c 2
 410 586 l 2
EndSplineSet
Substitution2: "'tnum' Tabular Numbers lookup 32 subtable" seven.tablining
Substitution2: "'onum' Minuskelziffern lookup 31 subtable" seven
EndChar
StartChar: seven.subs
Encoding: 1114265 -1 946
Width: 300
Flags: HW
LayerCount: 2
Fore
SplineSet
222 275 m 2
 224 279 227 284 212 284 c 2
 79 284 l 2
 60 284 35 235 26 235 c 0
 22 235 17 241 17 247 c 0
 17 269 34 317 36 323 c 0
 38 331 41 334 50 334 c 2
 269 334 l 2
 276 334 283 331 283 324 c 0
 283 308 269 289 260 272 c 2
 111 17 l 2
 105 6 98 -10 91 -10 c 0
 76 -10 67 -4 67 7 c 0
 67 11 75 29 88 50 c 2
 222 275 l 2
EndSplineSet
EndChar
StartChar: seven.tablining
Encoding: 1114325 -1 1006
Width: 487
VWidth: 982
Flags: HW
HStem: 501 85<68.59 338.996>
VStem: 11 47<437.39 488.789>
LayerCount: 2
Fore
SplineSet
410 586 m 2
 423 586 433 583 433 562 c 0
 433 544 429 538 412 504 c 2
 145 33 l 2
 120 -12 105 -41 82 -41 c 0
 71 -41 66 -28 66 -11 c 0
 66 -6 74 15 88 39 c 2
 316 436 l 2
 320 444 339 473 339 485 c 0
 339 497 334 501 305 501 c 2
 116 501 l 2
 92 501 65 483 58 463 c 0
 53 447 39 435 26 435 c 0
 14 435 11 442 11 463 c 0
 11 473 21 498 29 519 c 8
 41 550 55 586 81 586 c 2
 410 586 l 2
EndSplineSet
Substitution2: "'pnum' Proportionalziffern lookup 33 subtable" seven.lnum
Substitution2: "'onum' Minuskelziffern lookup 31 subtable" seven.taboldstyle
EndChar
StartChar: six.subs
Encoding: 1114264 -1 945
Width: 300
Flags: HW
LayerCount: 2
Fore
SplineSet
215 96 m 0
 215 132 198 180 155 180 c 0
 118 180 86 143 86 104 c 0
 86 50 116 20 155 20 c 0
 192 20 215 57 215 96 c 0
99 182 m 1
 119 199 149 211 182 211 c 0
 236 211 272 167 272 118 c 0
 272 49 228 -8 144 -8 c 0
 63 -8 26 40 26 107 c 0
 26 189 72 241 94 262 c 0
 124 290 174 322 247 340 c 0
 251 340 255 335 255 330 c 0
 255 322 240 316 236 314 c 0
 194 298 118 252 99 182 c 1
EndSplineSet
EndChar
StartChar: t.sc
Encoding: 1114734 -1 1441
Width: 532
Flags: W
HStem: -2 51<143.325 214.177 314.486 385.675> 388 50<93.9867 219.973 307.791 443.877>
VStem: 221 86<55.2266 387.974>
AnchorPoint: "cedilla" 278 15 basechar 0
AnchorPoint: "below_accent" 265 -80 basechar 0
AnchorPoint: "top_accent" 265 630 basechar 0
LayerCount: 2
Fore
SplineSet
221 343 m 2
 221 385 215 388 200 388 c 2
 120 388 l 2
 100 388 77 333 63 333 c 0
 49 333 39 342 39 359 c 0
 39 412 54 464 75 464 c 0
 95 464 112 438 161 438 c 2
 376 438 l 2
 429 438 465 466 480 466 c 0
 496 466 501 452 501 437 c 0
 501 423 481 347 466 347 c 0
 446 347 445 388 412 388 c 2
 336 388 l 2
 314 388 307 391 307 345 c 2
 307 129 l 2
 306.829 92 305 64 339 49 c 0
 361 39 394 30 394 15 c 0
 394 5 373 -1 362 -2 c 0
 355 -2 309 4 261 4 c 0
 214 4 175 -2 168 -2 c 0
 157 -1 135 5 135 15 c 0
 135 30 168 39 190 49 c 0
 224 64 221 92 221 129 c 2
 221 343 l 2
EndSplineSet
EndChar

StartChar: tau.sc
Encoding: 1114228 -1 909
Width: 550
Flags: HW
LayerCount: 2
Fore
SplineSet
232 79 m 2
 232 374 l 2
 232 406 229 406 196 406 c 2
 124 406 l 2
 103 406 76 388 66 371 c 0
 62 363 52 350 42 350 c 0
 37 350 35 353 35 358 c 0
 35 369 42 381 49 456 c 0
 50 471 59 471 62 471 c 0
 68 471 85 450 147 450 c 2
 390 450 l 2
 479 450 495 470 502 470 c 0
 507 470 511 464 511 459 c 0
 511 408 515 387 515 366 c 0
 515 362 511 346 503 347 c 0
 495 348 489 364 487 370 c 0
 483 387 466 406 422 406 c 0
 387 406 330 405 318 404 c 0
 309 403 307 387 307 374 c 2
 307 79 l 2
 307 43 338 32 373 25 c 0
 384 23 397 19 397 9 c 0
 397 1 384 -3 377 -3 c 0
 338 -3 312 3 270 3 c 0
 228 3 201 -3 162 -3 c 0
 155 -3 142 1 142 9 c 0
 142 19 155 23 166 25 c 0
 201 32 232 43 232 79 c 2
EndSplineSet
EndChar
StartChar: theta.sc
Encoding: 1114217 -1 898
Width: 616
Flags: HW
LayerCount: 2
Fore
SplineSet
296 433 m 0
 184 433 150 332 150 237 c 0
 150 120 206 22 318 22 c 0
 433 22 466 138 466 217 c 0
 466 318 416 433 296 433 c 0
60 222 m 0
 60 345 174 465 302 465 c 0
 435 465 556 362 556 226 c 0
 556 103 466 -15 302 -15 c 0
 169 -15 60 93 60 222 c 0
391 288 m 0
 398 296 403 301 408 301 c 0
 411 301 419 296 415 290 c 1
 402 260 396 215 392 182 c 0
 391 174 390 156 380 156 c 0
 374 156 370 172 367 180 c 0
 364 189 352 200 339 200 c 2
 271 200 l 2
 252 200 237 200 232 192 c 0
 228 186 210 156 201 156 c 0
 198 156 194 161 194 166 c 0
 194 170 196 180 198 184 c 0
 210 210 218 260 223 289 c 0
 225 299 229 301 232 301 c 0
 235 301 239 298 241 291 c 0
 244 283 248 263 261 263 c 2
 353 263 l 2
 371 263 385 281 391 288 c 0
EndSplineSet
EndChar

StartChar: three.taboldstyle
Encoding: 1114311 -1 992
Width: 314
VWidth: 982
Flags: HW
HStem: -156 65<32.8125 143.09> 367 62<109.714 197.875>
VStem: 211 78<245.651 354.407> 230 80<-22.9513 110.516>
LayerCount: 2
Fore
SplineSet
181 429 m 0xe0
 240 429 289 385 289 325 c 0xe0
 289 270 279 238 197 186 c 0
 193 184 193 181 198 180 c 0
 293 170 310 108 310 69 c 0
 310 -61 196 -156 66 -156 c 0
 46 -156 30 -141 30 -125 c 0
 30 -104 51 -91 70 -91 c 0
 79 -91 125 -103 144 -103 c 0
 194 -103 230 -33 230 33 c 0xd0
 230 79 231 124 157 124 c 0
 126 124 99 112 95 112 c 0
 87 112 78 127 78 134 c 0
 78 143 97 165 109 172 c 0
 131 185 150 189 179 215 c 0
 197 231 211 255 211 308 c 0
 211 346 182 367 151 367 c 0
 119 367 93 349 66 320 c 0
 63 316 60 312 50 312 c 0
 39 312 36 321 36 328 c 0
 36 349 104 429 181 429 c 0xe0
EndSplineSet
Substitution2: "'pnum' Proportionalziffern lookup 32 subtable" three
Substitution2: "'lnum' Lining Figures lookup 29 subtable" three.tablining
EndChar
StartChar: tildecomb.capstack
Encoding: 1114160 -1 728
Width: 0
Flags: HW
HStem: 720 71<42.961 242.895>
VStem: 5 282
AnchorPoint: "top_accent" 142 705 mark 0
AnchorPoint: "acutestack" 93 818 basemark 0
AnchorPoint: "gravestack" 201 818 basemark 0
LayerCount: 2
Fore
SplineSet
202 720 m 0
 177 720 108 722 83 722 c 0
 49 722 34 688 24 688 c 0
 16 688 5 695 5 705 c 0
 5 738 55 794 92 794 c 0
 117 794 183 791 208 791 c 0
 243 791 258 836 270 836 c 0
 280 836 287 829 287 819 c 0
 287 789 239 720 202 720 c 0
EndSplineSet
EndChar
StartChar: tildecomb.sc
Encoding: 1114973 -1 1682
Width: 0
Flags: HW
HStem: 518 75<78.8506 241.88>
VStem: 26 277
AnchorPoint: "top_stack" 148 644 basemark 0
AnchorPoint: "top_accent" 166 596 mark 0
LayerCount: 2
Fore
SplineSet
40 489 m 0
 30 489 26 499 26 509 c 0
 26 519 89 593 114 593 c 0
 139 593 196 591 221 591 c 0
 256 591 279 635 287 635 c 0
 297 635 303 628 303 618 c 0
 303 608 234 517 209 517 c 0
 184 517 122 518 97 518 c 0
 72 518 48 489 40 489 c 0
EndSplineSet
EndChar
StartChar: two.tablining
Encoding: 1114320 -1 1001
Width: 486
VWidth: 982
Flags: HW
HStem: -2 70<157.73 403.864> 525 70<150.997 271.88>
VStem: 50 42<433.035 475.535> 308 100<328.734 486.916>
LayerCount: 2
Fore
SplineSet
332 249 m 0
 302 213 168 82 158 75 c 0
 152 71 161 67 167 67 c 2
 343 68 l 2
 371 65 396 79 412 98 c 0
 434 125 445 146 455 146 c 0
 464 146 469 138 469 121 c 0
 469 71 432 -2 418 -2 c 0
 381 -2 288 4 231 4 c 0
 166 4 66 -2 46 -2 c 0
 41 -2 26 9 26 15 c 0
 26 21 28 22 34 28 c 2
 214 207 l 2
 276 268 308 322 308 410 c 0
 308 467 277 525 220 525 c 0
 163 525 113 490 92 447 c 0
 88 438 82 433 72 433 c 0
 58 433 50 445 50 463 c 0
 50 498 121 595 250 595 c 0
 341 595 408 517 408 426 c 0
 408 350 379 306 332 249 c 0
EndSplineSet
Substitution2: "'pnum' Proportionalziffern lookup 32 subtable" two.lnum
Substitution2: "'onum' Minuskelziffern lookup 30 subtable" two.taboldstyle
EndChar
StartChar: underscore.subs
Encoding: 1114380 -1 1063
Width: 325
Flags: HW
LayerCount: 2
Fore
SplineSet
16 -73 m 2
 317 -73 l 2
 321 -73 325 -82 325 -86 c 0
 325 -97 317 -109 305 -109 c 2
 9 -109 l 2
 3 -109 0 -100 0 -96 c 0
 0 -91 5 -73 16 -73 c 2
EndSplineSet
EndChar
StartChar: uni0304.cap
Encoding: 1114141 -1 709
Width: 0
Flags: HW
HStem: 717 60<9.62363 298.042>
VStem: 5 300<720.164 776.75>
AnchorPoint: "top_accent" 154 705 mark 0
AnchorPoint: "top_stack" 155 706 mark 0
AnchorPoint: "top_stack" 155 819 basemark 0
LayerCount: 2
Fore
SplineSet
29 777 m 2
 292 777 l 2
 298 777 305 771 305 765 c 0
 305 745 290 717 274 717 c 2
 19 717 l 2
 12 717 5 723 5 729 c 0
 5 738 10 777 29 777 c 2
EndSplineSet
EndChar

StartChar: uni0304.stack
Encoding: 1114170 -1 738
Width: 0
Flags: HW
HStem: 490 55<53.9478 305.949>
VStem: 50 260<491.76 544.782>
AnchorPoint: "top_accent" 180 572 mark 0
AnchorPoint: "top_stack" 180 491 mark 0
AnchorPoint: "acutestack" 182 570 basemark 0
AnchorPoint: "gravestack" 186 570 basemark 0
AnchorPoint: "top_stack" 180 590 basemark 0
LayerCount: 2
Fore
SplineSet
74 545 m 2
 297 545 l 2
 303 545 310 539 310 533 c 0
 310 511 298 490 279 490 c 2
 64 490 l 2
 57 490 50 496 50 502 c 0
 50 511 56 545 74 545 c 2
EndSplineSet
Substitution2: "Smallcaps subtable" uni0304.stacksc
EndChar

StartChar: uni0304.stacksc
Encoding: 1114992 -1 1701
Width: 1000
Flags: HW
LayerCount: 2
Fore
SplineSet
74 540 m 2
 297 540 l 2
 303 540 310 534 310 528 c 0
 310 506 298 490 279 490 c 2
 64 490 l 2
 57 490 50 496 50 502 c 0
 50 511 56 540 74 540 c 2
EndSplineSet
EndChar
StartChar: uni0306.cap
Encoding: 1114138 -1 706
Width: 0
Flags: HW
HStem: 692 66<63.6606 220.339>
VStem: 5 274<756 809>
AnchorPoint: "top_accent" 145 705 mark 0
AnchorPoint: "top_stack" 142 695 mark 0
AnchorPoint: "gravestack" 189 807 basemark 0
AnchorPoint: "hookstack" 85 822 basemark 0
AnchorPoint: "acutestack" 89 811 basemark 0
AnchorPoint: "top_stack" 142 851 basemark 0
LayerCount: 2
Fore
SplineSet
39 799 m 0
 66 767 99 758 142 758 c 0
 185 758 218 767 245 799 c 0
 251 807 259 820 269 820 c 0
 279 820 279 809 279 796 c 0
 279 756 227 692 142 692 c 0
 57 692 5 756 5 796 c 0
 5 809 9 820 15 820 c 0
 25 820 33 807 39 799 c 0
EndSplineSet
Substitution2: "c2sc subtable" uni0306.sc
EndChar
StartChar: uni0306.cyrcap
Encoding: 1115008 -1 1717
Width: 1000
Flags: HW
LayerCount: 2
Fore
SplineSet
5 795 m 0
 5 825 28 857 55 857 c 0
 75 857 103 846 103 819 c 0
 103 800 87 783 87 767 c 0
 87 749 108 731 149 731 c 0
 223 731 254 778 270 834 c 0
 272 842 280 846 282 846 c 0
 288 846 290 836 290 829 c 0
 290 751 226 692 146 692 c 0
 78 692 5 732 5 795 c 0
EndSplineSet
EndChar
StartChar: uni0306.stack
Encoding: 1114171 -1 739
Width: 0
Flags: HW
HStem: 461 62<98.558 231.989>
VStem: 50 36<540.89 581.899> 250 34<542.826 582.229>
AnchorPoint: "top_accent" 166 572 mark 0
AnchorPoint: "top_stack" 167 465 mark 0
AnchorPoint: "top_stack" 167 617 basemark 0
AnchorPoint: "gravestack" 161 566 basemark 0
AnchorPoint: "acutestack" 172 566 basemark 0
AnchorPoint: "hookstack" 166 565 basemark 0
LayerCount: 2
Fore
SplineSet
86 562 m 0
 95 538 131 523 167 523 c 0
 204 523 241 538 250 562 c 0
 253 571 261 583 271 583 c 0
 281 583 284 572 284 559 c 0
 284 524 233 461 163 461 c 0
 93 461 50 524 50 559 c 0
 50 572 53 583 63 583 c 0
 73 583 83 571 86 562 c 0
EndSplineSet
Substitution2: "Smallcaps subtable" uni0306.stacksc
EndChar

StartChar: uni0306.stacksc
Encoding: 1114993 -1 1702
Width: 1000
Flags: HW
LayerCount: 2
Fore
SplineSet
86 562 m 0
 95 538 131 517 167 517 c 0
 204 517 241 538 250 562 c 0
 253 571 261 583 271 583 c 0
 281 583 284 572 284 559 c 0
 284 524 237 461 167 461 c 0
 97 461 50 524 50 559 c 0
 50 572 53 583 63 583 c 0
 73 583 83 571 86 562 c 0
EndSplineSet
EndChar

StartChar: uni0307.sc
Encoding: 1114976 -1 1685
Width: 0
VWidth: 982
Flags: HW
HStem: 535 110<41.8467 128.153>
VStem: 30 110<546.104 633.537>
AnchorPoint: "top_accent" 85 596 mark 0
LayerCount: 2
Fore
SplineSet
85 645 m 0
 115 645 140 621 140 591 c 0
 140 560 116 535 85 535 c 0
 54 535 30 560 30 591 c 0
 30 621 55 645 85 645 c 0
EndSplineSet
EndChar
StartChar: uni0307.stacksc
Encoding: 1114994 -1 1703
Width: 1000
Flags: HW
LayerCount: 2
Fore
SplineSet
62 543 m 0
 62 572 84 594 112 594 c 0
 141 594 163 572 163 543 c 0
 163 515 141 493 112 493 c 0
 84 493 62 515 62 543 c 0
EndSplineSet
EndChar

StartChar: uni0308.grkstacksc
Encoding: 1115003 -1 1712
Width: 1000
Flags: HW
LayerCount: 2
Fore
SplineSet
251 572 m 0
 276 572 299 549 299 524 c 0
 299 499 276 476 251 476 c 0
 226 476 205 499 205 524 c 0
 205 549 226 572 251 572 c 0
54 572 m 0
 79 572 100 549 100 524 c 0
 100 499 79 476 54 476 c 0
 29 476 6 499 6 524 c 0
 6 549 29 572 54 572 c 0
EndSplineSet
EndChar
StartChar: uni030A.cap
Encoding: 1114143 -1 711
Width: 0
Flags: HW
HStem: 700 26<59.9364 118.931> 817 27<56.315 117.482>
VStem: 1 46<732.006 813.285> 129 46<728.922 811.576>
AnchorPoint: "top_accent" 92 735 mark 0
AnchorPoint: "top_stack" 94 873 basemark 0
LayerCount: 2
Fore
SplineSet
92 844 m 0
 134 844 175 819 175 777 c 0
 175 730 131 700 84 700 c 0
 41 700 1 726 1 769 c 0
 1 815 46 844 92 844 c 0
47 772 m 0
 47 744 65 726 93 726 c 0
 118 726 129 747 129 772 c 0
 129 799 112 817 85 817 c 0
 59 817 47 798 47 772 c 0
EndSplineSet
EndChar

StartChar: uni030A.stacksc
Encoding: 1114995 -1 1704
Width: 1000
Flags: HW
LayerCount: 2
Fore
SplineSet
115 615 m 0
 155 615 196 585 196 545 c 0
 196 502 149 464 109 464 c 0
 69 464 28 499 28 539 c 0
 28 579 75 615 115 615 c 0
69 544 m 0
 69 519 88 492 116 492 c 0
 144 492 155 518 155 538 c 0
 155 567 134 587 109 587 c 0
 81 587 69 563 69 544 c 0
EndSplineSet
EndChar
StartChar: uni030B.cap
Encoding: 1114140 -1 708
Width: 0
Flags: HW
HStem: 697 153
VStem: 6 299
AnchorPoint: "top_accent" 115 705 mark 0
LayerCount: 2
Fore
SplineSet
144 697 m 0
 140 697 138 700 138 703 c 0
 138 707 140 713 143 718 c 0
 167 758 187 798 214 837 c 0
 221 847 230 850 241 850 c 0
 255 850 305 841 305 827 c 0
 305 820 301 816 292 808 c 0
 252 774 202 736 162 706 c 0
 153 699 147 697 144 697 c 0
12 697 m 0
 8 697 6 700 6 703 c 0
 6 707 8 713 11 718 c 0
 35 758 54 798 81 837 c 0
 88 847 97 850 108 850 c 0
 122 850 173 841 173 827 c 0
 173 820 169 816 160 808 c 0
 120 774 70 736 30 706 c 0
 21 699 15 697 12 697 c 0
EndSplineSet
Substitution2: "c2sc subtable" uni030B.sc
EndChar

StartChar: uni030C.cap
Encoding: 1114133 -1 701
Width: 0
Flags: HW
HStem: 700 122
VStem: 5 291<808 818>
AnchorPoint: "top_accent" 151 705 mark 0
AnchorPoint: "top_stack" 151 720 mark 0
AnchorPoint: "top_stack" 151 850 basemark 0
LayerCount: 2
Fore
SplineSet
20 822 m 0
 33 822 115 788 141 773 c 0
 150 768 152 768 161 773 c 0
 187 788 269 823 282 823 c 0
 291 823 296 818 296 812 c 0
 296 808 295 804 290 800 c 2
 192 722 l 2
 172 706 166 700 151 700 c 0
 136 700 130 706 110 722 c 2
 12 800 l 2
 7 804 5 808 5 812 c 0
 5 818 11 822 20 822 c 0
EndSplineSet
EndChar
StartChar: uni030C.sc
Encoding: 1114980 -1 1689
Width: 0
Flags: HW
HStem: 485 201
VStem: 30 217<658 682>
AnchorPoint: "top_accent" 140 596 mark 0
LayerCount: 2
Fore
SplineSet
148 590 m 0
 171 622 195 649 208 664 c 0
 216 673 230 686 238 686 c 0
 247 686 247 682 247 673 c 0
 247 658 179 536 159 503 c 0
 154 494 147 485 139 485 c 0
 131 485 124 494 119 503 c 0
 99 536 30 658 30 673 c 0
 30 682 30 686 39 686 c 0
 47 686 61 673 69 664 c 0
 82 649 108 620 130 590 c 0
 136 582 142 582 148 590 c 0
EndSplineSet
EndChar
StartChar: uni030C.stack
Encoding: 1114174 -1 742
Width: 1000
Flags: HW
HStem: 447 161
VStem: 5 223<580 604>
AnchorPoint: "top_accent" 117 572 mark 0
AnchorPoint: "top_stack" 117 507 mark 0
AnchorPoint: "gravestack" 114 580 basemark 0
AnchorPoint: "acutestack" 120 580 basemark 0
AnchorPoint: "top_stack" 117 635 basemark 0
LayerCount: 2
Fore
SplineSet
124 535 m 2
 193 595 l 2
 202 602 211 608 219 608 c 0
 228 608 228 604 228 595 c 0
 228 580 139 465 139 465 c 2
 133 457 125 447 117 447 c 0
 109 447 101 457 95 465 c 2
 95 465 5 580 5 595 c 0
 5 604 5 608 14 608 c 0
 22 608 31 603 40 595 c 2
 109 535 l 2
 114 530 119 530 124 535 c 2
EndSplineSet
Substitution2: "Smallcaps subtable" uni030C.stacksc
EndChar

StartChar: uni0313.grkstack
Encoding: 1114967 -1 1676
Width: 1000
Flags: HW
LayerCount: 2
Fore
SplineSet
36 560 m 0
 17 561 0 572 0 594 c 0
 0 610 18 620 47 620 c 0
 87 620 120 588 120 547 c 0
 120 492 67 456 28 456 c 0
 16 456 10 461 10 466 c 0
 10 470 15 475 24 478 c 0
 53 488 73 503 73 526 c 0
 73 546 56 559 36 560 c 0
EndSplineSet
Substitution2: "Smallcaps subtable" uni0313.grkstacksc
EndChar
StartChar: uni0314.grkstack
Encoding: 1114968 -1 1677
Width: 1000
Flags: HW
LayerCount: 2
Fore
SplineSet
84 560 m 0
 64 559 47 546 47 526 c 0
 47 503 67 488 96 478 c 0
 105 475 110 470 110 466 c 0
 110 461 104 456 92 456 c 0
 53 456 0 492 0 547 c 0
 0 588 33 620 73 620 c 0
 102 620 120 610 120 594 c 0
 120 572 103 561 84 560 c 0
EndSplineSet
Substitution2: "Smallcaps subtable" uni0314.grkstacksc
EndChar
StartChar: uni0314.sc
Encoding: 1114984 -1 1693
Width: 1000
Flags: HW
LayerCount: 2
Fore
SplineSet
78 588 m 0
 62 585 52 572 52 556 c 0
 52 527 72 509 99 496 c 0
 107 492 116 489 116 482 c 0
 116 477 109 472 96 472 c 0
 43 472 0 516 0 569 c 0
 0 616 26 666 73 666 c 0
 97 666 120 651 120 628 c 0
 120 605 101 592 78 588 c 0
EndSplineSet
EndChar

StartChar: uni0315.sc
Encoding: 1114985 -1 1694
Width: 1000
Flags: HW
LayerCount: 2
Fore
SplineSet
73 612 m 0
 44 613 26 632 26 654 c 0
 26 670 44 690 73 690 c 0
 121 690 172 649 172 593 c 0
 172 529 107 472 56 470 c 1
 54 470 l 2
 42 470 36 475 36 480 c 0
 36 484 41 489 50 491 c 0
 93 500 120 533 120 566 c 0
 120 587 103 610 73 612 c 0
EndSplineSet
EndChar
StartChar: uni0324.cap
Encoding: 1114149 -1 717
Width: 0
Flags: HW
HStem: -195 108<17.0803 100.92 204.08 287.92>
VStem: 5 108<-182.92 -99.0803> 192 108<-182.92 -99.0803>
AnchorPoint: "below_accent" 152 -80 mark 0
LayerCount: 2
Fore
SplineSet
246 -87 m 0
 274 -87 300 -113 300 -141 c 0
 300 -169 274 -195 246 -195 c 0
 218 -195 192 -169 192 -141 c 0
 192 -113 218 -87 246 -87 c 0
59 -87 m 0
 87 -87 113 -113 113 -141 c 0
 113 -169 87 -195 59 -195 c 0
 31 -195 5 -169 5 -141 c 0
 5 -113 31 -87 59 -87 c 0
EndSplineSet
EndChar
StartChar: uni0328.cap
Encoding: 1114146 -1 714
Width: 0
Flags: HW
HStem: -274 71<102.981 176.807>
VStem: 5 85<-189.916 -94.2834>
AnchorPoint: "ogonek" 161 15 mark 0
LayerCount: 2
Fore
SplineSet
112 -274 m 0
 49 -274 5 -224 5 -161 c 0
 5 -60 150 18 150 18 c 1
 176 18 l 1
 176 18 90 -42 90 -142 c 0
 90 -177 114 -203 149 -203 c 0
 184 -203 221 -168 230 -163 c 0
 235 -160 242 -161 242 -169 c 0
 242 -212 166 -274 112 -274 c 0
EndSplineSet
Substitution2: "c2sc subtable" uni0328
EndChar
StartChar: uni0345.sc
Encoding: 1114987 -1 1696
Width: 1000
Flags: HW
LayerCount: 2
Fore
SplineSet
106 -127 m 0
 106 -152 109 -160 123 -160 c 0
 144 -160 159 -146 162 -146 c 0
 171 -146 172 -151 172 -162 c 0
 172 -171 149 -222 99 -222 c 0
 65 -222 40 -190 40 -140 c 0
 40 -94 43 -61 74 -61 c 0
 97 -61 110 -68 110 -87 c 0
 110 -99 106 -111 106 -127 c 0
EndSplineSet
EndChar

StartChar: uni0431.SRB
Encoding: 1115013 -1 1726
Width: 481
Flags: HW
LayerCount: 2
Fore
SplineSet
206 405 m 0
 153 450 90 491 90 559 c 0
 90 618 149 661 212 669 c 0
 262 675 307 677 329 678 c 0
 395 680 403 686 423 700 c 0
 424 701 426 701 427 701 c 0
 431 701 433 692 433 688 c 0
 433 662 382 603 324 602 c 1
 319 602 l 2
 267 602 251 615 196 615 c 0
 189 615 182 614 174 614 c 0
 139 612 129 602 129 583 c 0
 129 547 220 493 286 443 c 0
 365 383 446 319 446 213 c 0
 446 96 364 -11 214 -14 c 1
 211 -14 l 2
 130 -14 35 71 35 187 c 0
 35 278 100 364 206 396 c 0
 212 398 210 402 206 405 c 0
364 191 m 0
 364 290 270 377 227 377 c 0
 199 377 169 355 149 329 c 0
 122 295 117 258 117 210 c 0
 117 111 171 17 235 16 c 1
 239 16 l 2
 282 16 318 30 337 68 c 0
 353 99 364 152 364 191 c 0
EndSplineSet
EndChar
StartChar: uni2619.01
Encoding: 1115035 -1 2010
Width: 940
Flags: HW
LayerCount: 2
Fore
SplineSet
729 -6 m 0
 729 6 735 20 747 20 c 0
 768 20 774 -2 795 -2 c 0
 826 -2 847 39 847 76 c 0
 847 110 826 144 792 144 c 0
 768 144 749 127 717 127 c 0
 666 127 628 186 613 250 c 1
 581 245 554 234 529 220 c 0
 519 214 519 213 529 208 c 0
 560 193 583 173 583 138 c 0
 583 51 486 4 405 4 c 0
 245 4 15 112 15 284 c 0
 15 336 36 402 85 402 c 0
 113 402 140 386 140 358 c 0
 140 340 130 322 112 322 c 0
 100 322 89 331 81 322 c 0
 65 305 59 290 59 266 c 0
 59 218 111 196 159 196 c 0
 274 196 299 394 445 394 c 0
 497 394 538 355 538 303 c 0
 538 278 519 252 505 242 c 0
 500 239 510 235 515 240 c 0
 536 259 567 281 608 290 c 1
 608 295 607 301 607 306 c 0
 607 384 672 454 755 454 c 0
 774 454 776 423 791 423 c 0
 806 423 805 456 823 456 c 0
 841 456 855 442 855 424 c 0
 855 383 822 348 781 348 c 0
 735 348 740 388 707 388 c 0
 680 388 644 342 644 300 c 2
 644 296 l 1
 660 298 677 299 693 299 c 0
 742 299 829 265 829 227 c 0
 829 213 829 207 820 197 c 0
 815 191 825 187 839 182 c 0
 874 169 925 106 925 42 c 0
 925 27 917 15 903 12 c 0
 889 9 876 16 869 5 c 0
 849 -26 827 -52 790 -52 c 0
 758 -52 729 -36 729 -6 c 0
653 254 m 1
 669 211 702 170 735 170 c 0
 757 170 773 190 773 212 c 0
 773 240 711 254 671 254 c 2
 653 254 l 1
EndSplineSet
EndChar

StartChar: v.LAT
Encoding: 1114189 -1 822
Width: 419
VWidth: 982
Flags: HW
AnchorPoint: "top_accent" 231 596 basechar 0
AnchorPoint: "below_accent" 211 -80 basechar 0
LayerCount: 2
Fore
SplineSet
306 380 m 4
 291 383 278 393 278 403 c 4
 278 413 287 423 303 423 c 4
 318 423 343 417 358 417 c 4
 373 417 391 423 406 423 c 4
 422 423 430 413 430 403 c 4
 430 393 411 385 396 380 c 4
 385 376 367 358 353 323 c 6
 274 123 l 6
 257 81 229 -14 211 -14 c 4
 201 -14 192 9 186 26 c 6
 75 317 l 6
 65 343 51 375 36 380 c 4
 21 385 3 393 3 403 c 4
 3 413 11 423 27 423 c 4
 42 423 76 417 91 417 c 4
 106 417 148 423 163 423 c 4
 179 423 188 413 188 403 c 4
 188 393 176 385 154 378 c 4
 149 377 145 364 149 354 c 6
 220 171 l 6
 224 161 233 145 239 145 c 4
 246 145 253 161 257 171 c 6
 313 321 l 6
 321 341 323 355 323 362 c 4
 323 372 312 379 306 380 c 4
EndSplineSet
Substitution2: "Single Substitution lookup 64 subtable" v.LATmedi
EndChar

StartChar: zero.subs
Encoding: 1114258 -1 939
Width: 300
Flags: HW
LayerCount: 2
Fore
SplineSet
149 310 m 0
 87 310 75 231 75 169 c 0
 75 98 82 5 153 5 c 0
 219 5 225 91 225 157 c 0
 225 224 216 310 149 310 c 0
160 335 m 0
 241 335 285 250 285 169 c 0
 285 78 234 -17 142 -17 c 0
 58 -17 15 74 15 158 c 0
 15 247 71 335 160 335 c 0
EndSplineSet
EndChar
StartChar: zero.taboldstyle
Encoding: 1114308 -1 989
Width: 510
VWidth: 982
Flags: HW
HStem: -4 66<183.157 328.083> 375 55<181.68 321.833>
VStem: 41 62<138.752 291.14> 408 67<149.945 295.064>
LayerCount: 2
Fore
SplineSet
251 430 m 0
 360 430 475 344 475 235 c 0
 475 111 375 -4 251 -4 c 0
 136 -4 41 101 41 217 c 0
 41 326 142 430 251 430 c 0
103 212 m 0
 103 133 177 62 256 62 c 0
 339 62 408 145 408 228 c 0
 408 306 324 375 246 375 c 0
 169 375 103 289 103 212 c 0
EndSplineSet
Substitution2: "'pnum' Proportionalziffern lookup 33 subtable" zero
Substitution2: "'lnum' Lining Figures lookup 30 subtable" zero.tablining
EndChar
